SplineFontDB: 3.0
FontName: MenaionUnicode
FullName: Menaion Unicode
FamilyName: Menaion Unicode
Weight: Book
Copyright: Menaion Unicode Copyright (c) 2013-2015 Aleksandr Andreev.\n\nBased on Menaion Copyright (c) LCAPR, UdSU; LD, ISTU, 2010. Used with permission.\n\nThis font is part of the Ponomar Project, see http://www.ponomar.net/ for more information.
Version: 2.0
DefaultBaseFilename: MenaionUnicode
ItalicAngle: 0
UnderlinePosition: -78
UnderlineWidth: 102
Ascent: 800
Descent: 200
InvalidEm: 0
sfntRevision: 0x00010000
LayerCount: 2
Layer: 0 0 "Back" 1
Layer: 1 0 "Fore" 0
XUID: [1021 130 1332205325 10107924]
UseXUID: 1
FSType: 0
OS2Version: 3
OS2_WeightWidthSlopeOnly: 0
OS2_UseTypoMetrics: 1
CreationTime: 1269256071
ModificationTime: 1558864632
PfmFamily: 17
TTFWeight: 400
TTFWidth: 5
LineGap: 475
VLineGap: 0
Panose: 2 0 0 0 0 0 0 0 0 0
OS2TypoAscent: 50
OS2TypoAOffset: 1
OS2TypoDescent: -250
OS2TypoDOffset: 1
OS2TypoLinegap: 950
OS2WinAscent: 0
OS2WinAOffset: 1
OS2WinDescent: 0
OS2WinDOffset: 1
HheadAscent: 176
HheadAOffset: 1
HheadDescent: -15
HheadDOffset: 1
OS2FamilyClass: 256
OS2Vendor: 'PYRS'
OS2CodePages: 00000005.00000000
OS2UnicodeRanges: c00002c7.10000000.00000001.00000002
Lookup: 4 0 0 "'ccmp' Canonical Equivalents" { "'ccmp' Canonical Equivalents-Latin"  "'ccmp' Canonical Equivalents-Greek"  "'ccmp' Canonical Equivalents-Cyrillic"  } ['ccmp' ('DFLT' <'dflt' > 'byzm' <'dflt' > 'cyrl' <'dflt' > 'geor' <'dflt' > 'grek' <'dflt' > 'latn' <'dflt' > ) ]
Lookup: 4 0 0 "'ccmp' Cyrillic Ligatures" { "'ccmp' Cyrillic Ligatures-1"  } ['ccmp' ('DFLT' <'dflt' > 'byzm' <'dflt' > 'cyrl' <'dflt' > 'geor' <'dflt' > 'grek' <'dflt' > 'latn' <'dflt' > ) ]
Lookup: 258 0 0 "'kern' Slavonic Digraphs" { "'kern' Slavonic Digraphs-1" [150,15,2] } ['kern' ('DFLT' <'dflt' > 'byzm' <'dflt' > 'cyrl' <'dflt' > 'geor' <'dflt' > 'glag' <'dflt' > 'grek' <'dflt' > 'latn' <'dflt' > ) ]

StartChar: uni003A
Encoding: 58 58 1
Width: 36
Flags: HW
HStem: -9 122<-24.4358 60.4358> 358 124<-24.4358 60.4357>
VStem: -43 122<9.04896 94.4357 376.564 463.436>
LayerCount: 2
Fore
SplineSet
18 482 m 0
 34.6667 482 49 476 61 464 c 0
 73 452 79 437.333 79 420 c 0
 79 403.333 73 388.833 61 376.5 c 0
 49 364.167 34.6667 358 18 358 c 256
 1.33333 358 -13 364 -25 376 c 0
 -37 388 -43 402.333 -43 419 c 0
 -43 436.335 -36.8333 451.168 -24.5 463.5 c 0
 -12.1667 475.833 2 482 18 482 c 0
18 113 m 256
 35.3333 113 49.8333 107 61.5 95 c 0
 73.1667 83 79 68.6667 79 52 c 0
 79 34.6667 73 20.1667 61 8.5 c 0
 49 -3.16667 34.6667 -9 18 -9 c 256
 1.33333 -9 -13 -3.16667 -25 8.5 c 0
 -37 20.1667 -43 34.6667 -43 52 c 0
 -43 68.6667 -37.1667 83 -25.5 95 c 0
 -13.8333 107 0.666667 113 18 113 c 256
EndSplineSet
Validated: 1
EndChar

StartChar: uni003B
Encoding: 59 59 2
Width: 31
Flags: HW
HStem: 1 111<-31.467 33.7191> 360 124<-29.4358 55.951>
VStem: -48 122<379.08 465.436> 35 55<-64.1389 7.84413>
LayerCount: 2
Fore
SplineSet
13 484 m 0xe0
 30.3333 484 44.8333 478 56.5 466 c 0
 68.1667 454 74 439.333 74 422 c 0
 74 405.333 68.1667 390.833 56.5 378.5 c 0
 44.8333 366.167 30.3333 360 13 360 c 0
 -3.66667 360 -18 366 -30 378 c 0
 -42 390 -48 404.333 -48 421 c 0
 -48 438.334 -41.8333 453.168 -29.5 465.5 c 0
 -17.1667 477.833 -3 484 13 484 c 0xe0
-39 -176 m 1
 -65 -144 l 1
 1.66666 -89.3333 35 -43.6667 35 -7 c 0
 35 -4 35 -4 35 -0.5 c 0
 35 1.83333 34.6667 4.66667 34 8 c 1
 28 6 22.5 4.33333 17.5 3 c 0
 12.5 1.66667 7.66667 1 3 1 c 0
 -13 1 -25.6667 6 -35 16 c 0
 -44.3333 26 -49 39 -49 55 c 0
 -49 70.3334 -43.3333 83.6667 -32 95 c 0
 -20.6667 106.333 -7 112 9 112 c 0
 31 112 50 103.167 66 85.5 c 0
 82 67.8333 90 45 90 17 c 0xd0
 90 -0.333334 88.1667 -15.8333 84.5 -29.5 c 0
 80.8332 -43.1667 74.1665 -57.1667 64.5 -71.5 c 0
 54.8333 -85.8333 41.6667 -101.333 25 -118 c 0
 8.33333 -134.667 -13 -154 -39 -176 c 1
EndSplineSet
Validated: 1
EndChar

StartChar: uni00CB
Encoding: 203 203 3
Width: 609
Flags: HW
HStem: 0 36<212.625 478.412> 0 18<21 87.52> 329 35<209 429.812> 626 36<209 480.609> 644 18<21 95.6023> 709 96<184.084 265.916 373.337 454.663>
VStem: 115 94<38.5037 329 364 625.069> 177 96<715.508 798.492> 366 96<716.337 797.663> 458 19<230 279.922 405.988 460> 519 12<517 543.747>
AnchorPoint: "Double" 609.5 851.5 basechar 0
AnchorPoint: "Diacritic" 303.5 853.5 basechar 0
LayerCount: 2
Fore
SplineSet
366 757 m 0x24a0
 366 776 366 776 380.5 790.5 c 0
 395 805 395 805 414 805 c 0
 433 805 433 805 447.5 790.5 c 0
 462 776 462 776 462 757 c 0
 462 738 462 738 447.5 723.5 c 0
 433 709 433 709 414 709 c 0
 395 709 395 709 380.5 723.5 c 0
 366 738 366 738 366 757 c 0x24a0
177 757 m 0x2520
 177 776 177 776 191 790.5 c 0
 205 805 205 805 225 805 c 0
 245 805 245 805 259 790.5 c 0
 273 776 273 776 273 757 c 0
 273 738 273 738 259 723.5 c 0
 245 709 245 709 225 709 c 0
 205 709 205 709 191 723.5 c 0
 177 738 177 738 177 757 c 0x2520
115 547 m 2
 115 598 113 645 66 645 c 0
 59 645 52 644 44 644 c 2
 21 644 l 1
 21 662 l 1
 531 662 l 1x6e60
 531 517 l 1
 519 517 l 1
 508 571 500 614 447 622 c 0
 432 625 414 626 391 626 c 2
 209 626 l 1x3660
 209 364 l 1
 354 364 l 2
 409 364 442 375 452 417 c 1
 456 429 458 443 458 460 c 1
 477 460 l 1
 477 230 l 1
 458 230 l 1
 451 278 448 314 405 324 c 0
 392 328 375 329 354 329 c 2
 209 329 l 1
 209 82 l 2
 209 60 211 43 232 38 c 0
 239 37 250 36 264 36 c 2
 376 36 l 2xb660
 458 36 502 55 534 105 c 0
 545 122 556 142 568 166 c 1
 588 166 l 1
 531 0 l 1
 21 0 l 1
 21 18 l 1
 44 18 l 2
 86 18 104 31 111 66 c 0
 114 79 115 96 115 117 c 2
 115 547 l 2
EndSplineSet
Validated: 1
LCarets2: 1 0
Ligature2: "'ccmp' Canonical Equivalents-Latin" uni0045 uni0308
EndChar

StartChar: uni00A8
Encoding: 168 168 4
Width: 476
Flags: HW
HStem: 192 123<28.049 114.436 362.049 448.436>
VStem: 10 123<210.049 296.436> 344 123<210.049 296.436>
LayerCount: 2
Fore
SplineSet
344 253 m 256
 344 270.333 349.833 285 361.5 297 c 0
 373.167 309 387.667 315 405 315 c 256
 422.333 315 437 309 449 297 c 0
 461 285 467 270.333 467 253 c 256
 467 235.667 461 221.167 449 209.5 c 0
 437 197.833 422.333 192 405 192 c 256
 387.667 192 373.167 197.833 361.5 209.5 c 0
 349.833 221.167 344 235.667 344 253 c 256
10 253 m 256
 10 270.333 15.833 285 27.5 297 c 0
 39.167 309 53.667 315 71 315 c 256
 88.333 315 103 309 115 297 c 0
 127 285 133 270.333 133 253 c 256
 133 235.667 127 221.167 115 209.5 c 0
 103 197.833 88.333 192 71 192 c 256
 53.667 192 39.167 197.833 27.5 209.5 c 0
 15.833 221.167 10 235.667 10 253 c 256
EndSplineSet
Validated: 1
EndChar

StartChar: uni2030
Encoding: 8240 8240 5
Width: 1000
Flags: HW
HStem: -27 61<469.599 557.36 798.599 886.36> 289 61<467.849 557.179 797.149 886.179> 345 62<114.599 202.36> 662 60<112.849 202.179>
VStem: 18 72<432.545 636.249> 226 72<431.716 637.847> 373 72<60.0454 263.083> 581 72<59.2159 264.387> 702 72<60.0454 262.122> 910 72<59.2159 264.387>
DStem2: 157 -25 222 -25 0.362625 0.931935<23.5707 807.996>
LayerCount: 2
Fore
SplineSet
514 728 m 1x9fc0
 222 -25 l 1
 157 -25 l 1
 450 728 l 1
 514 728 l 1x9fc0
157 722 m 256
 203 722 238 706 262 674 c 0
 286 642 298 596.667 298 538 c 0
 298 409.333 251.333 345 158 345 c 0xbfc0
 112 345 77.1667 361.167 53.5 393.5 c 0
 29.8333 425.833 18 473.333 18 536 c 0
 18 596 29.6667 642 53 674 c 0
 76.3333 706 111 722 157 722 c 256
160 407 m 0
 204 407 226 449.333 226 534 c 0
 226 619.333 203.333 662 158 662 c 0
 136 662 119.167 652.5 107.5 633.5 c 0
 95.8333 614.5 90 581 90 533 c 0
 90 449 113.333 407 160 407 c 0
841 350 m 256xdfc0
 887 350 922 334 946 302 c 0
 970 270 982 224.667 982 166 c 0
 982 37.3333 935.333 -27 842 -27 c 0
 796 -27 761.167 -10.8333 737.5 21.5 c 0
 713.833 53.8333 702 101.333 702 164 c 0
 702 222.667 713.667 268.333 737 301 c 0
 760.333 333.667 795 350 841 350 c 256xdfc0
844 34 m 0
 888 34 910 76.3333 910 161 c 0
 910 246.333 887.333 289 842 289 c 0
 820.667 289 804 279.5 792 260.5 c 0
 780 241.5 774 208 774 160 c 0
 774 76 797.333 34 844 34 c 0
512 350 m 256
 558 350 593 334 617 302 c 0
 641 270 653 224.667 653 166 c 0
 653 37.3333 606.333 -27 513 -27 c 0
 467 -27 432.167 -10.8333 408.5 21.5 c 0
 384.833 53.8333 373 101.333 373 164 c 0
 373 222.667 384.667 268.333 408 301 c 0
 431.333 333.667 466 350 512 350 c 256
515 34 m 0
 559 34 581 76.3333 581 161 c 0
 581 246.333 558.333 289 513 289 c 0
 491 289 474.167 279.5 462.5 260.5 c 0
 450.833 241.5 445 208 445 160 c 0
 445 76 468.333 34 515 34 c 0
EndSplineSet
Validated: 1
EndChar

StartChar: uni2039
Encoding: 8249 8249 6
Width: 333
Flags: HW
VStem: 44 100<208 308>
LayerCount: 2
Fore
SplineSet
271 35 m 1
 199 35 l 1
 44 258 l 1
 199 481 l 1
 271 481 l 1
 144 258 l 1
 271 35 l 1
EndSplineSet
Validated: 1
EndChar

StartChar: uni203A
Encoding: 8250 8250 7
Width: 333
Flags: HW
VStem: 189 100<208 308>
LayerCount: 2
Fore
SplineSet
289 258 m 1
 134 35 l 1
 62 35 l 1
 189 258 l 1
 62 481 l 1
 134 481 l 1
 289 258 l 1
EndSplineSet
Validated: 1
EndChar

StartChar: uni2044
Encoding: 8260 8260 8
Width: 0
Flags: HW
VStem: -309 77<-25 52> 230 76<656 732>
DStem2: -309 -25 -232 -25 0.580016 0.814605<44.6612 929.285>
LayerCount: 2
Fore
SplineSet
306 732 m 1
 -232 -25 l 1
 -309 -25 l 1
 230 732 l 1
 306 732 l 1
EndSplineSet
Validated: 1
EndChar

StartChar: uni201A
Encoding: 8218 8218 9
Width: 222
Flags: HW
HStem: 0 102<61 107>
VStem: 61 94<0.0623572 102> 107 48<-73.0488 0>
LayerCount: 2
Fore
SplineSet
155 22 m 2xc0
 155 5.33333 154.333 -10.1667 153 -24.5 c 0
 151.667 -38.8333 148.5 -52.3333 143.5 -65 c 0
 138.5 -77.6667 130.5 -89.5 119.5 -100.5 c 0
 108.5 -111.5 93.6667 -122 75 -132 c 1
 53 -98 l 1
 87.6667 -84 105.667 -51.3333 107 0 c 1xa0
 61 0 l 1
 61 102 l 1
 155 102 l 1
 155 22 l 2xc0
EndSplineSet
Validated: 1
EndChar

StartChar: uni201C
Encoding: 8220 8220 10
Width: 333
Flags: HW
HStem: 494 102<91 137 243 289>
VStem: 43 94<494 595.938> 43 48<596 669.438> 195 94<494 595.938> 195 48<596 669.438>
LayerCount: 2
Fore
SplineSet
297 694 m 1x90
 261.667 678.667 243.667 646 243 596 c 1x88
 289 596 l 1
 289 494 l 1
 195 494 l 1
 195 574 l 2
 195 590.667 195.667 606.167 197 620.5 c 0
 198.333 634.833 201.5 648.333 206.5 661 c 0
 211.5 673.667 219.333 685.5 230 696.5 c 0
 240.667 707.5 255.667 718 275 728 c 1
 297 694 l 1x90
145 694 m 1
 109.667 678.667 91.6666 646 91 596 c 1xa0
 137 596 l 1
 137 494 l 1
 43 494 l 1
 43 574 l 2xc0
 43 590.667 43.6667 606.167 45 620.5 c 0
 46.3333 634.833 49.5 648.333 54.5 661 c 0
 59.5 673.667 67.3333 685.5 78 696.5 c 0
 88.6667 707.5 103.667 718 123 728 c 1
 145 694 l 1
EndSplineSet
Validated: 1
EndChar

StartChar: uni201E
Encoding: 8222 8222 11
Width: 333
Flags: HW
HStem: 0 102<44 90 196 242>
VStem: 44 94<0.0623572 102> 90 48<-73.0488 0> 196 94<0.0623572 102> 242 48<-73.0488 0>
LayerCount: 2
Fore
SplineSet
290 22 m 2x90
 290 5.33333 289.333 -10.1667 288 -24.5 c 0
 286.667 -38.8333 283.5 -52.3333 278.5 -65 c 0
 273.5 -77.6667 265.5 -89.5 254.5 -100.5 c 0
 243.5 -111.5 228.667 -122 210 -132 c 1
 188 -98 l 1
 222.667 -84 240.667 -51.3333 242 0 c 1x88
 196 0 l 1
 196 102 l 1
 290 102 l 1
 290 22 l 2x90
138 22 m 2xc0
 138 5.33333 137.333 -10.1667 136 -24.5 c 0
 134.667 -38.8333 131.5 -52.3333 126.5 -65 c 0
 121.5 -77.6667 113.5 -89.5 102.5 -100.5 c 0
 91.5 -111.5 76.6667 -122 58 -132 c 1
 36 -98 l 1
 70.6667 -84 88.6667 -51.3333 90 0 c 1xa0
 44 0 l 1
 44 102 l 1
 138 102 l 1
 138 22 l 2xc0
EndSplineSet
Validated: 1
EndChar

StartChar: uni2020
Encoding: 8224 8224 12
Width: 527
Flags: HW
HStem: 426.2 78<22 217 305 500>
VStem: 217 88<-165.8 426.2 504.2 702.2>
LayerCount: 2
Fore
SplineSet
500 426.2 m 1
 305 426.2 l 1
 305 -165.8 l 1
 217 -165.8 l 1
 217 426.2 l 1
 22 426.2 l 1
 22 504.2 l 1
 217 504.2 l 1
 217 702.2 l 1
 305 702.2 l 1
 305 504.2 l 1
 500 504.2 l 1
 500 426.2 l 1
EndSplineSet
Validated: 1
EndChar

StartChar: uni2021
Encoding: 8225 8225 13
Width: 525
Flags: HW
HStem: 13.5 78<22 217 305 500> 446.5 78<22 217 305 499>
VStem: 217 88<-167.5 13.5 91.5 446.5 524.5 707.5>
LayerCount: 2
Fore
SplineSet
500 13.5 m 1
 305 13.5 l 1
 305 -167.5 l 1
 217 -167.5 l 1
 217 13.5 l 1
 22 13.5 l 1
 22 91.5 l 1
 217 91.5 l 1
 217 446.5 l 1
 22 446.5 l 1
 22 524.5 l 1
 217 524.5 l 1
 217 707.5 l 1
 305 707.5 l 1
 305 524.5 l 1
 499 524.5 l 1
 499 446.5 l 1
 305 446.5 l 1
 305 91.5 l 1
 500 91.5 l 1
 500 13.5 l 1
EndSplineSet
Validated: 1
EndChar

StartChar: uni2022
Encoding: 8226 8226 14
Width: 350
Flags: HW
HStem: 227 247<105.146 243.625>
VStem: 51 248<281.5 418.385>
LayerCount: 2
Fore
SplineSet
175 474 m 256
 191.667 474 207.5 470.667 222.5 464 c 0
 237.5 457.333 250.667 448.333 262 437 c 0
 273.333 425.667 282.333 412.5 289 397.5 c 0
 295.667 382.5 299 366.667 299 350 c 256
 299 333.333 295.667 317.5 289 302.5 c 0
 282.333 287.5 273.5 274.5 262.5 263.5 c 0
 251.5 252.5 238.333 243.667 223 237 c 0
 207.667 230.333 191.667 227 175 227 c 256
 158.333 227 142.5 230.167 127.5 236.5 c 0
 112.5 242.833 99.3333 251.5 88 262.5 c 0
 76.6667 273.5 67.6667 286.5 61 301.5 c 0
 54.3333 316.5 51 332.667 51 350 c 256
 51 367.333 54.3333 383.5 61 398.5 c 0
 67.6667 413.5 76.6667 426.667 88 438 c 0
 99.3333 449.335 112.5 458.168 127.5 464.5 c 0
 142.5 470.833 158.333 474 175 474 c 256
EndSplineSet
Validated: 1
EndChar

StartChar: uni2026
Encoding: 8230 8230 15
Width: 1000
Flags: HW
HStem: 0 100<117 217 450 550 783 883>
VStem: 117 100<0 100> 450 100<0 100> 783 100<0 100>
CounterMasks: 1 70
LayerCount: 2
Fore
SplineSet
883 0 m 1
 783 0 l 1
 783 100 l 1
 883 100 l 1
 883 0 l 1
550 0 m 1
 450 0 l 1
 450 100 l 1
 550 100 l 1
 550 0 l 1
217 0 m 1
 117 0 l 1
 117 100 l 1
 217 100 l 1
 217 0 l 1
EndSplineSet
Validated: 1
EndChar

StartChar: uni2013
Encoding: 8211 8211 16
Width: 500
Flags: HW
HStem: 223 72<-6 506>
LayerCount: 2
Fore
SplineSet
506 223 m 1
 -6 223 l 1
 -6 295 l 1
 506 295 l 1
 506 223 l 1
EndSplineSet
Validated: 1
EndChar

StartChar: uni2014
Encoding: 8212 8212 17
Width: 1000
Flags: HW
HStem: 223 72<-6 1006>
LayerCount: 2
Fore
SplineSet
1006 223 m 1
 -6 223 l 1
 -6 295 l 1
 1006 295 l 1
 1006 223 l 1
EndSplineSet
Validated: 1
EndChar

StartChar: uni201D
Encoding: 8221 8221 18
Width: 419
Flags: HW
HStem: 611 111<66.533 131.719 255.533 320.719>
VStem: 133 55<545.578 614.906> 322 55<549.953 617.906>
LayerCount: 2
Fore
SplineSet
260 462 m 1
 234 494 l 1
 292.667 530 322 566.333 322 603 c 2
 322 609 l 2
 322 613 321.667 616 321 618 c 1
 315 616 309.5 614.333 304.5 613 c 0
 299.5 611.667 294.667 611 290 611 c 0
 274 611 261.333 616 252 626 c 0
 242.667 636 238 649 238 665 c 0
 238 680.333 243.667 693.667 255 705 c 0
 266.333 716.333 280 722 296 722 c 0
 318 722 337 713.167 353 695.5 c 0
 369 677.833 377 655 377 627 c 0
 377 595.667 368.5 566 351.5 538 c 0
 334.5 510 304 484.667 260 462 c 1
71 459 m 1
 45 491 l 1
 103.667 527 133 563.333 133 600 c 2
 133 606 l 2
 133 610 132.667 613 132 615 c 1
 126 613 120.5 611.333 115.5 610 c 0
 110.5 608.667 105.667 608 101 608 c 0
 85 608 72.3333 613 63 623 c 0
 53.6667 633 49 646 49 662 c 0
 49 677.333 54.6667 690.667 66 702 c 0
 77.3333 713.333 91 719 107 719 c 0
 129 719 148 710.167 164 692.5 c 0
 180 674.833 188 652 188 624 c 0
 188 592.667 179.5 563 162.5 535 c 0
 145.5 507 115 481.667 71 459 c 1
EndSplineSet
Validated: 1
EndChar

StartChar: uni0401
Encoding: 1025 1025 19
Width: 647
GlyphClass: 3
Flags: HW
HStem: -23 162<257.984 457.397> 243 114<271.468 497.459> 289 67<159.03 259.414> 494 146<269.375 474.549> 698 122<106.863 200.8 438.34 531.137>
VStem: 75 84<199.294 438.151> 92 124<712.34 805.137> 424 122<712.34 805.137>
LayerCount: 2
Fore
SplineSet
510 698 m 256x99
 476 698 450 724 450 758 c 256
 450 793 476 820 510 820 c 256
 545 820 572 793 572 758 c 256
 572 724 545 698 510 698 c 256x99
180 698 m 256
 145 698 118 724 118 758 c 256
 118 793 145 820 180 820 c 256
 214 820 242 793 242 758 c 256x9b
 242 724 214 698 180 698 c 256
440 139 m 0
 494 139 543 136 543 85 c 0
 543 71 538 55 527 36 c 1
 502 2 458 -23 393 -23 c 0
 291 -23 220 26 175 86 c 0
 131 145 101 230 101 327 c 0
 101 437 147 515 206 566 c 0
 256 607 327 640 408 640 c 0
 464 640 515 622 534 586 c 1
 543 562 545 554 545 530 c 0
 545 494 509 490 471 490 c 0
 436 490 396 494 360 494 c 0
 262 494 185 464 185 365 c 0
 185 357 226 356 256 356 c 0
 267 356 277 356 283 356 c 0xbd
 330 356 389 357 436 357 c 0
 465 357 465 357 486 357 c 0
 524 357 552 352 552 315 c 0
 552 261 488 243 435 243 c 0xdd
 361 243 292 266 234 282 c 0
 216 287 203 289 194 289 c 0xbd
 188 289 184 288 184 285 c 0
 184 181 250 138 355 138 c 0
 383 138 412 139 440 139 c 0
EndSplineSet
Validated: 1
LCarets2: 1 0
Ligature2: "'ccmp' Canonical Equivalents-Cyrillic" uni0415 uni0308
EndChar

StartChar: uni0402
Encoding: 1026 1026 20
Width: 752
Flags: HW
HStem: -8 27<496.642 576.479> 0 18<147 213.25 367.953 427> 394 66<440.292 560.051> 621 41<95.377 243 337 492.118>
VStem: 37 16<517 551.647> 243 94<31.4516 329.327 358 621> 532 13<517 549.645> 614 111<101.539 330.277>
LayerCount: 2
Fore
SplineSet
327 621 m 1x7f
 327 358 l 1
 388 426 453 460 522 460 c 0
 623 460 677 391 702 312 c 0
 710 282 715 250 715 216 c 0
 715 119 676 43 613 9 c 0
 592 -2 570 -8 545 -8 c 0
 519 -8 493 -0 468 15 c 1
 479 30 l 1
 499 23 516 19 531 19 c 0xbf
 580 19 604 74 604 184 c 0
 604 294 587 394 481 394 c 0
 421 394 370 364 327 303 c 1
 327 123 l 2
 327 116 327 109 327 102 c 0
 327 61 329 33 366 24 c 0
 378 20 395 18 417 18 c 1
 417 0 l 1
 137 0 l 1
 137 18 l 1
 191 18 228 23 232 72 c 0
 232 84 233 102 233 123 c 2
 233 621 l 1
 184 621 l 2
 117 621 72 609 54 562 c 0
 50 550 46 534 43 517 c 1
 27 517 l 1
 27 662 l 1
 535 662 l 1
 535 517 l 1
 522 517 l 1
 515 576 493 608 438 617 c 0
 420 620 401 621 378 621 c 2
 327 621 l 1x7f
EndSplineSet
Validated: 1
EndChar

StartChar: uni0464
Encoding: 1124 1124 21
Width: 845
Flags: HW
HStem: -21 163<609.808 720.652> 0 46<45.5 88.6569 234.447 275.5> 240 122<626.902 770.018> 279 83<575.625 637.635> 300 65<231.5 479.5> 476 161<604.754 732.984> 563 47<45.5 86.8925 235.965 276.5>
VStem: 90.5 141<50.4179 300 365 557.228> 481.5 91<183.742 278.999 365.018 440.14>
AnchorPoint: "Double" 844.5 752 basechar 0
AnchorPoint: "Diacritic" 362.5 751 basechar 0
LayerCount: 2
Fore
SplineSet
46 46 m 1x4980
 68 46 90 55 90 78 c 2
 90 527 l 2
 90 549 66 563 46 563 c 1
 46 610 l 1
 276 610 l 1
 276 563 l 1
 252 563 234 550 232 527 c 1
 232 365 l 1
 482 365 l 1x4b80
 488 450 514 520 554 570 c 0
 582 605 622 637 672 637 c 0
 716 637 748 610 760 578 c 1
 766 567 768 555 768 542 c 0
 768 484 732 476 676 476 c 0
 674 476 672 476 670 476 c 0
 604 476 578 437 572 371 c 1
 572 370 l 2
 572 366 576 364 586 362 c 1x1580
 594 362 604 361 618 361 c 256
 630 361 646 361 662 362 c 1
 742 362 l 2
 776 362 800 352 800 317 c 0
 800 312 800 308 798 305 c 0
 780 265 758 240 710 240 c 0x2180
 682 240 652 250 632 260 c 1
 616 266 596 279 580 279 c 0
 578 279 576 278 576 277 c 1
 576 219 586 185 614 160 c 1
 624 152 638 146 652 142 c 1
 678 138 706 132 730 122 c 0
 744 116 760 97 760 74 c 0
 760 52 748 32 738 16 c 1
 720 -4 692 -21 652 -21 c 0x9180
 624 -21 598 -12 578 6 c 0
 510 64 482 177 480 300 c 1
 232 300 l 1
 232 78 l 1
 234 57 250 48 276 46 c 1
 276 0 l 1
 46 0 l 1
 46 46 l 1x4980
EndSplineSet
Validated: 1
EndChar

StartChar: uni047E
Encoding: 1150 1150 22
Width: 1171
Flags: HW
HStem: -7 72<335.11 441.65 733.221 838.008> 564 46<45.5 85.4292 268.693 304.5 431.5 470.498 697.424 736.5 864.5 899.234 1081.37 1125.5> 694 44<470.5 509.816 662.319 700.5> 842 143<249.5 306.912 863.495 923.5> 919 66<346.125 515.5 655.5 827.853>
VStem: 101.5 144<298.786 538.72> 515.5 140<239.496 486.164 744.991 919> 921.5 143<291.094 541.972>
AnchorPoint: "Double" 1171.5 1164 basechar 0
AnchorPoint: "Diacritic" 582.5 1162 basechar 0
LayerCount: 2
Fore
SplineSet
658 282 m 1xe7
 668 207 684 153 706 118 c 0
 726 83 754 66 788 66 c 0
 854 66 918 164 918 360 c 0
 918 383 922 405 922 429 c 0
 922 517 902 562 864 564 c 1
 864 610 l 1
 1126 610 l 1
 1126 564 l 1
 1090 564 1070 541 1064 494 c 1
 1058 325 1030 199 984 116 c 0
 938 34 872 -7 788 -7 c 0
 696 -7 628 74 584 237 c 1
 562 152 534 90 498 52 c 0
 464 12 422 -7 374 -7 c 0
 208 -7 118 160 102 494 c 1
 96 541 76 564 46 564 c 1
 46 610 l 1
 304 610 l 1
 304 564 l 1
 266 562 246 514 246 419 c 2
 246 390 l 2
 246 381 246 371 248 360 c 0
 258 261 276 187 298 138 c 0
 322 89 350 65 382 65 c 0
 422 65 452 86 474 129 c 0
 498 172 510 235 510 318 c 0
 510 482 482 564 432 564 c 1
 432 610 l 1
 736 610 l 1
 736 564 l 1
 734 564 l 2
 684 564 658 480 658 311 c 2
 658 282 l 1xe7
434 919 m 1xef
 362 913 318 893 294 842 c 1
 250 842 l 1xf7
 154 939 l 1
 154 985 l 1
 1018 985 l 1xef
 1018 939 l 1
 924 842 l 1
 878 842 l 1xf7
 854 883 820 915 764 916 c 0
 752 917 744 918 736 919 c 1
 656 919 l 1
 656 784 l 1
 658 754 676 740 700 738 c 1
 700 694 l 1
 470 694 l 1
 470 738 l 1
 498 740 514 752 516 783 c 1
 516 919 l 1
 434 919 l 1xef
EndSplineSet
Validated: 1
EndChar

StartChar: uni046E
Encoding: 1134 1134 23
Width: 781
Flags: HW
HStem: 0 65<461.5 507.5> 0 45<275.5 317.973> 333 69<290.655 319.5 461.5 489.522> 563 46<15.5 53.1895 207.756 243.5 535.5 570.938 725.995 765.5>
VStem: 319.5 142<65.6546 335.393> 565.5 136<-785.778 -625.622>
AnchorPoint: "Double" 780 752 basechar 0
AnchorPoint: "Diacritic" 389 750 basechar 0
LayerCount: 2
Fore
SplineSet
574 526 m 0x7c
 574 549 560 563 536 563 c 1
 536 609 l 1
 766 609 l 1
 766 563 l 1
 760 563 l 2
 744 563 730 554 726 540 c 0
 710 491 694 449 660 414 c 0
 614 369 550 345 462 333 c 1
 462 65 l 1
 702 65 l 1xbc
 702 0 l 1x7c
 402 -404 l 1
 532 -404 630 -481 678 -576 c 0
 694 -609 702 -644 702 -681 c 0
 702 -728 688 -777 660 -828 c 0
 632 -880 586 -932 522 -985 c 1
 474 -985 l 1
 486 -972 l 1
 518 -929 544 -866 558 -803 c 0
 564 -779 566 -755 566 -730 c 0
 566 -605 494 -542 394 -510 c 0
 352 -497 298 -490 232 -490 c 2
 204 -490 l 1
 204 -443 l 1
 508 0 l 1xbc
 276 0 l 1
 276 45 l 1
 298 48 320 53 320 76 c 1
 320 333 l 1
 228 343 160 370 114 418 c 0
 82 451 64 492 54 540 c 0
 50 555 38 563 16 563 c 1
 16 609 l 1
 244 609 l 1
 244 563 l 1
 220 563 206 550 206 527 c 0
 206 493 230 465 252 447 c 0
 284 421 332 402 390 402 c 256
 448 402 496 420 528 446 c 0
 550 465 574 492 574 526 c 0x7c
EndSplineSet
Validated: 1
EndChar

StartChar: uni0470
Encoding: 1136 1136 24
Width: 894
Flags: HW
HStem: 0 46<331 372.27 518.812 561> 207 63<318 376 516 578> 564 46<202.098 236 331 374.071 518.378 561 658 692.991>
VStem: 376 140<50.199 207 270 560.124>
AnchorPoint: "Double" 891 752 basechar 0
AnchorPoint: "Diacritic" 444 751 basechar 0
LayerCount: 2
Fore
SplineSet
561 564 m 1
 533 564 516 552 516 528 c 2
 516 270 l 1
 578 270 l 1
 691 532 l 2
 692 536 693 539 693 542 c 0
 693 557 681 564 658 564 c 1
 658 610 l 1
 862 610 l 1
 862 564 l 1
 657 207 l 1
 516 207 l 1
 516 85 l 2
 516 59 531 46 561 46 c 1
 561 0 l 1
 331 0 l 1
 331 46 l 1
 360 46 376 60 376 87 c 1
 376 207 l 1
 236 207 l 1
 32 564 l 1
 32 610 l 1
 236 610 l 1
 236 564 l 1
 217 564 202 557 202 540 c 0
 202 536 202 533 203 532 c 2
 318 270 l 1
 376 270 l 1
 376 528 l 1
 376 554 363 564 331 564 c 1
 331 610 l 1
 561 610 l 1
 561 564 l 1
EndSplineSet
Validated: 1
EndChar

StartChar: uni0481
Encoding: 1153 1153 25
Width: 467
Flags: HW
HStem: -19 94<197.203 328.107> 360 92<185.605 325.948>
VStem: 43.5 91<137.813 303.197> 368.5 55<-147 19 113.377 157>
LayerCount: 2
Fore
SplineSet
267.5 452 m 0
 323.5 452 376.5 434 396.5 399 c 1
 396.5 375 382.5 345 372.5 329 c 0
 368.5 322 364.5 318 359.5 318 c 0
 357.5 318 355.5 319 354.5 320 c 0
 323.5 342 292.5 360 249.5 360 c 0
 190.5 360 155.5 317 142.5 271 c 0
 136.5 254 134.5 237 134.5 219 c 0
 134.5 156 165.5 111 208.5 89 c 0
 225.5 80 245.5 75 268.5 75 c 0
 304.5 75 337.5 99 354.5 122 c 0
 362.5 132 368.5 144 368.5 157 c 1
 423.5 157 l 1
 423.5 -147 l 1
 368.5 -147 l 1
 368.5 19 l 1
 351.5 2 318.5 -9 289.5 -15 c 0
 277.5 -18 265.5 -19 254.5 -19 c 0
 108.5 -16 43.5 82 43.5 235 c 0
 43.5 347 104.5 414 189.5 440 c 0
 216.5 448 242.5 452 267.5 452 c 0
EndSplineSet
Validated: 1
EndChar

StartChar: uni0462
Encoding: 1122 1122 26
Width: 895
Flags: HW
HStem: 0 66<465.5 713.262> 0 46<279.5 321.529> 276 64<465.5 550.202> 344 144<125.5 180.579 701.466 759.5> 422 66<217.547 325.5 465.5 664.353> 564 46<279.5 321.969 470.468 509.5>
VStem: 325.5 140<66.5188 276 336.491 422 488 558.568> 713.5 152<37 137.362>
AnchorPoint: "Double" 897.5 752 basechar 0
AnchorPoint: "Diacritic" 394 751.5 basechar 0
LayerCount: 2
Fore
SplineSet
466 66 m 1xa7
 676 66 l 2
 700 66 714 74 714 92 c 1
 706 137 680 174 648 201 c 0
 602 239 540 264 466 276 c 1
 466 66 l 1xa7
310 422 m 2x6f
 232 422 194 395 170 344 c 1
 126 344 l 1x37
 30 442 l 1
 30 488 l 1
 326 488 l 1
 326 526 l 2
 326 551 306 564 280 564 c 1
 280 610 l 1
 510 610 l 1
 510 564 l 1
 484 564 466 546 466 522 c 2
 466 488 l 1
 856 488 l 1x2f
 856 442 l 1
 760 344 l 1
 716 344 l 1x37
 690 385 658 419 600 419 c 0
 590 419 580 420 572 422 c 1
 466 422 l 1
 466 340 l 1
 598 316 726 272 804 190 c 0
 836 156 866 113 866 52 c 0
 866 22 852 0 818 0 c 2
 280 0 l 1
 280 46 l 1
 306 46 326 59 326 86 c 2
 326 422 l 1
 310 422 l 2x6f
EndSplineSet
Validated: 1
EndChar

StartChar: uni0460
Encoding: 1120 1120 27
Width: 1159
Flags: HW
HStem: -7 72<331.703 432.578 729.721 830.98> 564 46<40 81.7432 265.193 301 428 466.876 693.924 733 861 895.734 1077.26 1119>
VStem: 98 144<298.786 538.72> 502 152<240.049 508.5> 918 143<291.094 541.972>
AnchorPoint: "Double" 1157.5 752 basechar 0
AnchorPoint: "Diacritic" 575 751 basechar 0
LayerCount: 2
Fore
SplineSet
654 282 m 1
 665 207 681 153 702 118 c 0
 723 83 751 66 785 66 c 0
 850 66 893 164 915 360 c 0
 917 383 918 405 918 429 c 0
 918 517 899 562 861 564 c 1
 861 610 l 1
 1119 610 l 1
 1119 564 l 1
 1086 564 1067 541 1061 494 c 1
 1054 325 1027 199 981 116 c 0
 935 34 869 -7 784 -7 c 0
 692 -7 624 74 581 237 c 1
 558 152 530 90 495 52 c 0
 460 12 419 -7 371 -7 c 0
 205 -7 114 160 98 494 c 1
 92 541 73 564 40 564 c 1
 40 610 l 1
 301 610 l 1
 301 564 l 1
 262 562 242 514 242 419 c 2
 242 390 l 2
 242 381 243 371 244 360 c 0
 255 259 272 185 296 137 c 0
 318 89 347 65 380 65 c 0
 423 65 450 100 466 134 c 0
 492 187 502 259 502 342 c 0
 502 490 477 564 428 564 c 1
 428 610 l 1
 733 610 l 1
 733 564 l 1
 731 564 l 2
 680 564 654 480 654 311 c 2
 654 282 l 1
EndSplineSet
Validated: 1
EndChar

StartChar: uni0466
Encoding: 1126 1126 28
Width: 981
Flags: HW
HStem: 0 46<197.53 236 340 382.749 526.448 569 694 729.396> 225 66<325 385 524 603> 564 46<340 378.57>
VStem: 385 139<49.9807 225> 730 207<0 75>
AnchorPoint: "Double" 980 752 basechar 0
AnchorPoint: "Diacritic" 450 751 basechar 0
LayerCount: 2
Fore
SplineSet
197 74 m 0
 197 53 212 46 236 46 c 1
 236 0 l 1
 44 0 l 1
 44 3 44 5 44 8 c 0
 44 33 52 60 69 91 c 0
 143 228 274 336 357 463 c 0
 374 488 382 509 382 526 c 0
 382 551 365 560 340 564 c 1
 340 610 l 1
 543 610 l 1
 552 581 569 550 592 517 c 0
 642 446 703 373 761 305 c 0
 817 240 874 169 912 93 c 0
 929 60 937 29 937 0 c 1
 694 0 l 1
 694 46 l 1
 717 46 730 54 730 75 c 0
 730 106 707 140 692 162 c 0
 678 183 658 212 642 225 c 1
 524 225 l 1
 524 81 l 1
 524 55 545 46 569 46 c 1
 569 0 l 1
 340 0 l 1
 340 46 l 1
 366 46 385 57 385 81 c 2
 385 225 l 1
 281 225 l 1
 256 195 236 167 220 140 c 0
 205 114 197 92 197 74 c 0
325 291 m 1
 603 291 l 1
 590 304 571 326 545 357 c 0
 519 388 486 429 446 480 c 1
 419 421 382 360 345 313 c 0
 336 301 329 294 325 291 c 1
EndSplineSet
Validated: 1
EndChar

StartChar: uni0467
Encoding: 1127 1127 29
Width: 763
Flags: HW
HStem: 0 46<166.504 183.5 247.5 279.491 411.542 442.5 518.5 535.496> 140 60<239.5 280.5 410.5 460.5> 387 46<240.5 275.184>
VStem: 43.5 123<3.56959 66.6394> 280.5 130<48.3906 140>
AnchorPoint: "Double" 765.5 563 basechar 0
AnchorPoint: "Diacritic" 338.5 563 basechar 0
LayerCount: 2
Fore
SplineSet
248 46 m 1
 262 46 280 60 280 73 c 2
 280 140 l 1
 208 140 l 1
 196 124 184 110 178 98 c 0
 170 86 166 75 166 66 c 0
 166 53 172 46 184 46 c 1
 184 0 l 1
 44 0 l 1
 44 3 44 4 44 7 c 0
 44 22 50 39 60 59 c 0
 100 129 164 196 216 258 c 0
 232 278 248 298 258 316 c 0
 270 334 276 349 276 361 c 0
 276 376 264 385 240 387 c 1
 240 433 l 1
 432 433 l 1
 454 387 494 341 528 300 c 0
 588 229 658 153 702 69 c 0
 714 46 720 24 720 5 c 2
 720 0 l 1
 518 0 l 1
 518 46 l 1
 530 46 536 56 536 67 c 0
 536 84 522 102 514 112 c 0
 510 120 504 126 500 130 c 2
 490 140 l 1
 410 140 l 1
 410 73 l 1
 412 57 426 46 442 46 c 1
 442 0 l 1
 248 0 l 1
 248 46 l 1
240 200 m 1
 460 200 l 1
 456 208 414 258 340 351 c 1
 318 304 282 255 254 217 c 0
 246 207 240 201 240 200 c 1
EndSplineSet
Validated: 1
EndChar

StartChar: uni0468
Encoding: 1128 1128 30
Width: 1319
Flags: HW
HStem: 0 46<46 88.0616 233.472 276 533.53 572 676 718.749 862.835 905 1030 1065.4> 225 66<661 721 860 939> 309 65<231 569> 564 46<46 88.7324 233.55 276 676 714.812>
VStem: 91 140<50.6494 309 374 559.412> 380 153<4.57031 83.381> 721 139<49.9807 225> 1066 207<0 75>
AnchorPoint: "Double" 1317.5 752 basechar 0
AnchorPoint: "Diacritic" 770 751 basechar 0
LayerCount: 2
Fore
SplineSet
533 74 m 0
 533 53 548 46 572 46 c 1
 572 0 l 1
 381 0 l 1
 381 3 380 6 380 9 c 0
 380 29 385 51 397 74 c 0
 437 162 508 238 569 309 c 1
 231 309 l 1
 231 82 l 2
 231 59 246 46 276 46 c 1
 276 0 l 1
 46 0 l 1
 46 46 l 1
 69 46 91 58 91 82 c 2
 91 532 l 1
 91 553 68 564 46 564 c 1
 46 610 l 1
 276 610 l 1
 276 564 l 1
 253 564 233 554 231 532 c 1
 231 374 l 1
 625 374 l 1
 652 406 674 435 691 462 c 0
 709 488 718 510 718 527 c 0
 718 551 700 560 676 564 c 1
 676 610 l 1
 879 610 l 1
 888 581 905 550 928 517 c 0
 1004 408 1105 303 1183 196 c 0
 1210 161 1231 126 1248 93 c 0
 1265 60 1273 29 1273 0 c 1
 1030 0 l 1
 1030 46 l 1
 1053 46 1066 54 1066 75 c 0
 1066 106 1043 140 1028 162 c 0
 1014 183 994 212 978 225 c 1
 860 225 l 1
 860 81 l 1
 861 55 881 46 905 46 c 1
 905 0 l 1
 676 0 l 1
 676 46 l 1
 702 46 721 57 721 81 c 2
 721 225 l 1
 617 225 l 1
 592 195 572 167 557 140 c 0
 541 114 533 92 533 74 c 0
661 291 m 1
 939 291 l 1
 926 304 907 326 881 357 c 0
 855 388 822 429 782 480 c 1
 755 421 718 360 681 313 c 0
 672 301 665 294 661 291 c 1
EndSplineSet
Validated: 1
EndChar

StartChar: uni046A
Encoding: 1130 1130 31
Width: 973
Flags: HW
HStem: 0 46<202.681 248 371 415.152 559.917 603 722 765.716> 544 66<332.003 642.997>
VStem: 45 156<6 81.0362> 166 166<532 598> 417 141<50.3242 332>
AnchorPoint: "Double" 970.5 752 basechar 0
AnchorPoint: "Diacritic" 490 751 basechar 0
LayerCount: 2
Fore
SplineSet
371 46 m 1xd8
 395 46 417 55 417 79 c 2
 417 332 l 1
 359 287 303 236 259 184 c 0
 240 162 226 142 216 124 c 0
 206 106 201 91 201 79 c 0
 201 57 217 46 248 46 c 1
 248 0 l 1
 48 0 l 2
 46 0 45 3 45 9 c 0xe8
 45 19 49 36 58 60 c 0
 67 85 83 114 108 148 c 0
 133 182 167 220 212 260 c 0
 257 302 315 344 387 388 c 1
 386 389 l 1
 325 419 258 459 212 506 c 0
 191 529 166 559 166 598 c 0
 166 603 165 607 166 610 c 1
 807 610 l 1
 808 608 808 606 808 604 c 2
 808 597 l 2
 808 586 805 574 800 560 c 0
 794 546 783 530 767 513 c 0
 751 496 729 477 700 456 c 0
 671 435 634 413 588 389 c 1
 588 388 l 1
 665 341 744 286 808 224 c 0
 850 185 888 139 912 86 c 0
 923 61 928 37 928 12 c 2
 928 0 l 1
 722 0 l 1
 722 46 l 1
 749 46 767 54 767 78 c 0
 767 92 760 110 748 131 c 0
 718 180 674 227 631 268 c 0
 606 292 582 313 558 332 c 1
 558 78 l 2
 558 56 581 46 603 46 c 1
 603 0 l 1
 371 0 l 1
 371 46 l 1xd8
344 544 m 1
 336 542 332 538 332 532 c 0xd8
 332 523 338 512 352 500 c 0
 377 474 416 448 450 431 c 0
 467 422 480 418 489 418 c 0
 498 418 512 423 529 432 c 0
 562 451 600 479 624 506 c 0
 637 518 643 529 643 536 c 0
 643 541 639 544 630 544 c 2
 344 544 l 1
EndSplineSet
Validated: 1
EndChar

StartChar: uni046C
Encoding: 1132 1132 32
Width: 1324
Flags: HW
HStem: 0 46<46 88.7324 232.843 276 552.681 598 721 765.152 909.917 953 1072 1115.72> 346 60<231 672> 544 66<682.003 992.997> 564 46<46 88.0616 234.868 276>
VStem: 91 140<50.5879 346 406 559.201> 395 156<8.5 84.5961> 767 141<50.3242 332>
AnchorPoint: "Double" 1319 752 basechar 0
AnchorPoint: "Diacritic" 850 751 basechar 0
LayerCount: 2
Fore
SplineSet
694 544 m 1xee
 686 542 682 538 682 532 c 0
 682 523 689 512 701 500 c 0
 727 474 766 450 800 433 c 0
 817 424 830 418 839 418 c 0
 848 418 862 424 879 433 c 0
 912 452 950 479 975 506 c 0
 987 518 993 529 993 536 c 0
 993 541 989 544 980 544 c 2
 694 544 l 1xee
46 46 m 1
 68 46 91 57 91 78 c 1
 91 528 l 2
 91 552 69 564 46 564 c 1
 46 610 l 1
 276 610 l 1
 276 564 l 1
 247 564 235 553 231 528 c 1
 231 406 l 1
 704 406 l 1
 643 438 574 483 536 539 c 0
 523 558 516 578 516 598 c 0
 516 603 515 607 516 610 c 1
 1157 610 l 1xde
 1158 608 1158 606 1158 604 c 2
 1158 597 l 2
 1158 586 1155 574 1149 560 c 0
 1144 546 1133 530 1117 513 c 0
 1101 496 1079 477 1050 456 c 0
 1021 435 984 413 938 389 c 1
 938 388 l 1
 1015 341 1094 286 1159 224 c 0
 1200 185 1238 139 1262 86 c 0
 1273 61 1278 37 1278 12 c 2
 1278 0 l 1
 1072 0 l 1
 1072 46 l 1
 1099 46 1117 54 1117 78 c 0
 1117 92 1111 110 1097 131 c 0
 1068 180 1024 227 981 268 c 0
 956 292 932 313 908 332 c 1
 908 78 l 2
 908 56 931 46 953 46 c 1
 953 0 l 1
 721 0 l 1
 721 46 l 1
 745 46 767 55 767 79 c 2
 767 332 l 1
 709 287 653 236 609 184 c 0
 590 162 576 142 566 124 c 0
 556 106 551 91 551 79 c 0
 551 57 567 46 598 46 c 1
 598 0 l 1
 398 0 l 2
 396 0 395 4 395 13 c 0
 395 24 399 40 407 61 c 0
 414 82 428 108 449 137 c 0
 470 166 498 199 534 234 c 0
 570 270 616 307 672 346 c 1
 231 346 l 1
 231 78 l 1
 231 56 253 46 276 46 c 1
 276 0 l 1
 46 0 l 1
 46 46 l 1
EndSplineSet
Validated: 1
EndChar

StartChar: uni0472
Encoding: 1138 1138 33
Width: 971
Flags: HW
HStem: -29 142<423.457 547.419> 186 135<119.5 179.298 792.824 850.5> 253 68<202.328 293.5 362.5 610.5 681.5 767.079> 498 141<419.92 551.967>
VStem: 293.5 69<184.136 253 321 432.009> 610.5 69<187.547 253 321 431.83>
AnchorPoint: "Double" 971.5 752 basechar 0
AnchorPoint: "Diacritic" 486.5 754 basechar 0
LayerCount: 2
Fore
SplineSet
362 253 m 1xbc
 374 183 412 113 486 113 c 1
 558 113 598 185 610 253 c 1
 362 253 l 1xbc
486 498 m 0
 422 498 388 453 372 402 c 0
 364 380 358 353 358 321 c 1
 614 321 l 1
 614 384 598 430 574 457 c 0
 550 484 520 498 486 498 c 0
806 186 m 1xdc
 784 230 748 253 680 253 c 1
 680 160 652 90 618 42 c 0
 582 -5 538 -29 486 -29 c 0
 426 -29 386 3 358 42 c 0
 320 94 294 168 294 253 c 1
 266 253 l 2xbc
 216 253 184 220 164 186 c 1
 120 186 l 1xdc
 24 275 l 1
 24 321 l 1
 294 321 l 1
 294 429 312 513 356 571 c 0
 386 610 426 639 486 639 c 0
 546 639 586 611 616 571 c 0
 660 513 682 428 682 321 c 1
 946 321 l 1xbc
 946 275 l 1
 850 186 l 1
 806 186 l 1xdc
EndSplineSet
Validated: 1
EndChar

StartChar: uni0474
Encoding: 1140 1140 34
Width: 828
Flags: HW
HStem: 0 66<389.957 420.641> 564 46<14.5 52.0243>
DStem2: 217.5 582 64.5 518 0.34116 -0.940005<-29.3403 545.769>
AnchorPoint: "Double" 830 752 basechar 0
AnchorPoint: "Diacritic" 406.5 751 basechar 0
LayerCount: 2
Fore
SplineSet
680 421 m 1
 676 443 674 468 648 468 c 0
 642 468 636 463 632 454 c 0
 630 453 624 441 612 418 c 0
 580 352 550 267 526 178 c 0
 512 122 496 63 496 0 c 1
 414 0 334 0 252 0 c 1
 64 518 l 1
 56 539 44 564 14 564 c 1
 14 610 l 1
 208 610 l 2
 208 609 212 600 218 582 c 0
 274 415 336 231 396 66 c 1
 418 66 l 1
 440 229 490 394 552 516 c 0
 570 552 588 578 604 594 c 0
 614 603 628 610 644 610 c 2
 774 610 l 2
 800 610 814 604 814 591 c 0
 814 586 812 584 812 580 c 0
 802 542 780 502 762 472 c 0
 754 458 744 445 738 436 c 0
 730 427 726 422 724 421 c 2
 680 421 l 1
EndSplineSet
Validated: 1
EndChar

StartChar: uni0478
Encoding: 1144 1144 35
Width: 1159
GlyphClass: 3
Flags: HW
HStem: -29 161<185.6 287.337> 391 42<476.5 519.339> 488 151<179.55 293.137>
VStem: 40.5 85<206.082 423.345> 347.5 83<207.566 422.449> 795.5 53<-394.575 -97.7244> 811.5 42<-435.855 -203.789>
DStem2: 665.5 415 527.5 358 0.368703 -0.929547<-18.8972 378.85>
AnchorPoint: "Double" 1159 607 basechar 0
AnchorPoint: "Diacritic" 812.5 607 basechar 0
LayerCount: 2
Fore
SplineSet
348 309 m 0xf8
 348 389 326 455 272 479 c 0
 260 485 248 488 234 488 c 0
 204 488 180 470 162 450 c 1
 138 418 126 370 126 309 c 0
 126 233 154 172 198 144 c 0
 212 136 224 132 236 132 c 0
 268 132 294 156 310 179 c 0
 332 210 348 254 348 309 c 0xf8
40 305 m 0
 40 418 58 507 102 568 c 0
 132 610 174 639 234 639 c 256
 296 639 338 610 368 568 c 0
 412 507 430 418 430 305 c 0
 430 165 396 45 312 -7 c 0
 290 -22 264 -29 236 -29 c 0
 170 -29 126 10 98 56 c 0
 60 117 40 204 40 305 c 0
996 265 m 2
 996 274 994 293 986 293 c 0
 980 293 974 287 966 275 c 0
 928 221 904 161 890 86 c 0
 864 -56 848 -177 848 -316 c 0xfc
 848 -352 852 -380 852 -400 c 0
 852 -420 854 -432 854 -436 c 1
 824 -436 l 1
 820 -433 816 -424 812 -410 c 0xfa
 796 -346 796 -258 796 -177 c 0
 796 -116 802 -57 802 0 c 1
 670 0 l 1
 528 358 l 2
 520 374 500 391 476 391 c 1
 476 433 l 1
 660 433 l 1
 660 432 662 427 666 415 c 0
 708 301 752 174 796 59 c 1xfc
 812 59 l 1
 824 147 848 243 876 314 c 0
 888 350 902 379 916 401 c 0
 930 423 944 433 956 433 c 2
 1102 433 l 1
 1112 431 1118 424 1118 410 c 0
 1118 383 1106 357 1098 334 c 1
 1084 307 1066 277 1048 256 c 1
 996 256 l 1
 996 265 l 2
EndSplineSet
Validated: 1
EndChar

StartChar: uni0407
Encoding: 1031 1031 36
Width: 435
GlyphClass: 3
Flags: HW
HStem: 0 46<84 126.361 271.55 314> 564 46<84 126.062 272.868 314> 664 123<-3.2296 89.8 327.77 420.8>
VStem: -18 123<678.77 771.8> 129 140<50.5879 559.351> 313 123<678.77 771.8>
AnchorPoint: "Double" 437 800 basechar 0
AnchorPoint: "Diacritic" 207 800 basechar 0
LayerCount: 2
Fore
SplineSet
391 664 m 256
 357 664 330 691 330 725 c 256
 330 759 357 787 391 787 c 256
 425 787 453 759 453 725 c 256
 453 691 425 664 391 664 c 256
60 664 m 256
 26 664 -1 691 -1 725 c 256
 -1 759 26 787 60 787 c 256
 94 787 122 759 122 725 c 256
 122 691 94 664 60 664 c 256
101 46 m 1
 123 46 145 57 146 78 c 1
 146 528 l 2
 146 552 124 564 101 564 c 1
 101 610 l 1
 331 610 l 1
 331 564 l 1
 302 563 290 553 286 528 c 1
 286 78 l 1
 288 56 308 46 331 46 c 1
 331 0 l 1
 101 0 l 1
 101 46 l 1
EndSplineSet
Validated: 1
LCarets2: 1 0
Ligature2: "'ccmp' Canonical Equivalents-Cyrillic" uni0406 uni0308
EndChar

StartChar: uni0406
Encoding: 1030 1030 37
Width: 435
Flags: HW
HStem: 0 46<104 146.732 290.843 334> 564 46<104 146.062 292.868 334>
VStem: 149 140<50.5879 559.201>
AnchorPoint: "Double" 437 747 basechar 0
AnchorPoint: "Diacritic" 223 742 basechar 0
LayerCount: 2
Fore
SplineSet
101 46 m 1
 123 46 146 57 146 78 c 1
 146 528 l 2
 146 552 124 564 101 564 c 1
 101 610 l 1
 331 610 l 1
 331 564 l 1
 302 564 290 553 286 528 c 1
 286 78 l 1
 286 56 308 46 331 46 c 1
 331 0 l 1
 101 0 l 1
 101 46 l 1
EndSplineSet
Validated: 1
EndChar

StartChar: uni0405
Encoding: 1029 1029 38
Width: 654
Flags: HW
HStem: -21 68<268.112 367.541> 155 44<255.922 292> 419 45<367 407.172> 553 70<269.391 391.01>
VStem: 81 160<391.666 525.581> 110 141<62.5224 149.313> 395 130<76.0201 212.166> 408 158<466.957 535.938>
AnchorPoint: "Double" 653 752 basechar 0
AnchorPoint: "Diacritic" 317 750 basechar 0
LayerCount: 2
Fore
SplineSet
328 47 m 1xf6
 375 50 402 94 402 145 c 0xf6
 402 170 395 193 382 212 c 0
 369 231 344 248 307 261 c 1
 161 299 88 362 88 450 c 0
 88 585 204 623 351 623 c 0
 499 623 573 565 573 448 c 0
 573 441 573 440 573 433 c 0
 573 428 573 424 572 419 c 1
 374 419 l 1
 374 464 l 1
 401 465 415 475 415 493 c 0
 415 536 376 552 331 553 c 1
 276 549 248 516 248 459 c 0xf9
 248 396 285 370 329 345 c 0
 350 333 378 321 412 308 c 0
 492 278 532 227 532 154 c 1
 527 37 459 -21 328 -21 c 1
 202 -19 117 27 117 148 c 0
 117 170 125 186 135 199 c 1
 299 199 l 1
 299 155 l 1
 272 152 258 137 258 109 c 0
 258 69 289 47 328 47 c 1xf6
EndSplineSet
Validated: 1
EndChar

StartChar: uni04380435
Encoding: 59099 59099 39
Width: 1098
GlyphClass: 3
Flags: HW
HStem: -16 132<852.245 949.025> 0 46<95.5 135.431 265.737 305.5 436.5 476.431 606.737 646.5> 171 89<867.844 989.676> 203 54<831.548 894.871> 209 60<265.5 476.5 606.5 761.5> 331 122<850.38 955.27> 387 46<95.5 135.238 266.386 303.5 436.5 476.227 606.729 646.5>
VStem: 135.5 130<49.012 209 269 384.123> 476.5 130<49.012 209 269 384.1>
AnchorPoint: "Double" 1097 562.5 basechar 0
AnchorPoint: "Diacritic" 536.5 563 basechar 0
LayerCount: 2
Fore
SplineSet
968 62 m 0x9180
 968 15 942 -16 892 -16 c 0x9180
 846 -16 816 18 798 50 c 0
 776 88 762 142 762 200 c 1
 762 209 l 1
 606 209 l 1
 606 69 l 1
 608 51 628 46 646 46 c 1
 646 0 l 1
 436 0 l 1
 436 46 l 1
 452 46 476 54 476 69 c 1
 476 209 l 1
 266 209 l 1
 266 69 l 1
 268 51 286 46 306 46 c 1
 306 0 l 1
 96 0 l 1
 96 46 l 1
 112 46 136 54 136 69 c 1
 136 362 l 2
 136 379 112 387 96 387 c 1
 96 433 l 1
 304 433 l 1
 304 387 l 1
 282 387 268 378 266 362 c 1
 266 269 l 1
 476 269 l 1
 476 362 l 2
 476 379 452 387 436 387 c 1
 436 433 l 1
 646 433 l 1
 646 387 l 1
 626 387 606 381 606 362 c 1
 606 269 l 1
 766 269 l 1x4b80
 778 346 810 412 866 442 c 0
 880 449 894 453 908 453 c 0
 948 453 974 418 974 378 c 0
 974 345 964 331 932 331 c 2
 904 331 l 2
 856 331 838 305 832 262 c 0
 832 259 838 257 848 257 c 256x1580
 874 257 914 260 940 260 c 0
 952 260 952 260 962 260 c 0
 984 260 1002 255 1002 233 c 0
 1002 196 978 171 944 171 c 0x2180
 910 171 880 188 856 198 c 0
 848 201 842 203 838 203 c 0
 834 203 832 202 832 201 c 1
 836 158 848 129 876 116 c 0
 902 105 942 119 960 98 c 0
 966 92 968 80 968 62 c 0x9180
EndSplineSet
Validated: 1
LCarets2: 2 0 0
Ligature2: "'ccmp' Cyrillic Ligatures-1" uni0438 uni200D uni0435
Colour: ffff00
EndChar

StartChar: uni043D0438
Encoding: 59211 59211 40
Width: 1093
GlyphClass: 3
Flags: HW
HStem: 0 46<101 141.877 270.143 310 442 481.872 612.326 652 782 821.878 952.148 992> 209 60<612 822> 387 46<101 141.622 281.861 310 442 481.703 612.821 652 782 821.766 964.346 992>
VStem: 142 128<49.3568 286 345 380.326> 482 130<48.977 121 187 209 269 383.699> 822 130<49.0936 209 269 380.326>
DStem2: 270 345 270 286 0.789152 -0.614198<36.2377 264.344>
AnchorPoint: "Double" 1090.5 562.5 basechar 0
AnchorPoint: "Diacritic" 533 563 basechar 0
LayerCount: 2
Fore
SplineSet
142 361 m 2
 142 370 137 377 126 381 c 0
 116 385 108 387 101 387 c 1
 101 433 l 1
 310 433 l 1
 310 387 l 1
 299 386 289 384 282 380 c 0
 274 377 270 370 270 361 c 2
 270 345 l 1
 482 187 l 1
 482 361 l 2
 482 371 477 378 467 382 c 0
 457 385 449 387 442 387 c 1
 442 433 l 1
 652 433 l 1
 652 387 l 1
 628 386 615 377 612 362 c 1
 612 269 l 1
 822 269 l 1
 822 362 l 2
 822 371 817 378 807 382 c 0
 797 385 789 387 782 387 c 1
 782 433 l 1
 992 433 l 1
 992 387 l 1
 981 386 971 384 964 380 c 0
 957 377 953 371 952 362 c 1
 952 69 l 1
 953 63 955 58 958 56 c 0
 962 52 966 50 971 49 c 0
 976 48 980 47 984 46 c 0
 988 46 991 46 992 46 c 1
 992 0 l 1
 782 0 l 1
 782 46 l 1
 789 46 798 48 807 52 c 0
 816 55 821 61 822 69 c 1
 822 209 l 1
 612 209 l 1
 612 70 l 1
 613 64 615 60 618 56 c 0
 622 54 626 51 631 50 c 0
 636 48 640 47 644 46 c 0
 648 46 651 46 652 46 c 1
 652 0 l 1
 442 0 l 1
 442 46 l 1
 449 46 458 48 468 52 c 0
 477 55 482 61 482 70 c 2
 482 121 l 1
 270 286 l 1
 270 69 l 1
 271 63 273 58 276 56 c 0
 280 52 284 50 289 49 c 0
 294 48 298 47 302 46 c 0
 306 46 309 46 310 46 c 1
 310 0 l 1
 101 0 l 1
 101 46 l 1
 108 46 117 48 126 52 c 0
 136 55 141 61 142 69 c 1
 142 361 l 2
EndSplineSet
Validated: 1
LCarets2: 2 0 0
Ligature2: "'ccmp' Cyrillic Ligatures-1" uni043D uni200D uni0438
Colour: ffff00
EndChar

StartChar: uni043D0467
Encoding: 59217 59217 41
Width: 1493
GlyphClass: 3
Flags: HW
HStem: 0 46<101 141.877 270.143 310 442 481.872 612.326 652 846.737 873 913 943.715 1083.53 1123 1173 1200.75> 140 60<912 953 1083 1133> 200 60<612 839> 387 46<101 141.622 281.861 310 442 481.703 612.821 652 913 946.469>
VStem: 142 128<49.3568 286 345 380.326> 482 130<48.977 121 187 200 260 383.699> 716 157<0 46> 716 123<6 69.2316> 953 130<56.827 140>
DStem2: 270 345 270 286 0.789152 -0.614198<36.2377 264.344> 1200 300 1012 351 0.629442 -0.777047<-157.672 35.5321>
AnchorPoint: "Double" 1490.5 562.5 basechar 0
AnchorPoint: "Diacritic" 531 563 basechar 0
LayerCount: 2
Fore
SplineSet
101 46 m 1
 117 46 141 54 142 69 c 1
 142 361 l 2xbd80
 142 378 117 387 101 387 c 1
 101 433 l 1
 310 433 l 1
 310 387 l 1
 290 386 270 381 270 361 c 2
 270 345 l 1
 482 187 l 1
 482 361 l 2
 482 371 477 378 467 382 c 0
 457 385 449 387 442 387 c 1
 442 433 l 1
 652 433 l 1
 652 387 l 1
 628 386 615 377 612 362 c 1
 612 260 l 1
 889 260 l 1xbd80
 906 281 920 300 931 317 c 0
 942 334 947 349 947 360 c 0
 947 376 936 385 913 387 c 1
 913 433 l 1
 1105 433 l 1
 1126 387 1166 341 1200 300 c 0
 1260 229 1331 153 1374 69 c 0
 1386 46 1392 24 1392 5 c 2
 1392 0 l 1
 1173 0 l 1
 1173 46 l 1
 1193 46 1209 51 1209 67 c 0
 1209 84 1196 100 1188 111 c 0
 1180 121 1169 133 1162 140 c 1
 1083 140 l 1
 1083 73 l 2
 1083 53 1103 46 1123 46 c 1
 1123 0 l 1
 913 0 l 1
 913 46 l 1
 928 46 938 50 944 56 c 0
 950 64 953 69 953 73 c 2
 953 140 l 1
 881 140 l 1
 868 125 857 111 850 100 c 0
 843 88 839 77 839 68 c 0xdd80
 839 51 853 46 873 46 c 1
 873 0 l 1
 717 0 l 1
 716 1 716 4 716 8 c 0xde80
 716 19 720 32 726 48 c 0
 743 83 769 116 794 147 c 0
 809 165 824 183 839 200 c 1
 612 200 l 1
 612 70 l 1
 614 52 633 46 652 46 c 1
 652 0 l 1
 442 0 l 1
 442 46 l 1
 458 46 482 53 482 70 c 2
 482 121 l 1
 270 286 l 1
 270 69 l 1
 272 51 291 46 310 46 c 1
 310 0 l 1
 101 0 l 1
 101 46 l 1
1133 200 m 1xdc80
 1128 208 1087 258 1012 351 c 1
 990 304 955 255 926 217 c 0
 918 207 913 201 912 200 c 1
 1133 200 l 1xdc80
EndSplineSet
Validated: 1
LCarets2: 2 0 0
Ligature2: "'ccmp' Cyrillic Ligatures-1" uni043D uni200D uni0467
Colour: ffff00
EndChar

StartChar: uni04410432
Encoding: 59339 59339 42
Width: 861
GlyphClass: 3
Flags: HW
HStem: 0 117<203.155 304.715> 0 60<434 597.893> 377 56<434 534>
VStem: 97 67<156.513 280.045> 305 129<117.073 242 292 317.225> 598 166<32.5 115.901>
AnchorPoint: "Double" 860.5 562.5 basechar 0
AnchorPoint: "Diacritic" 388 563 basechar 0
LayerCount: 2
Fore
SplineSet
578 60 m 2x7c
 597 60 598 72 598 88 c 0
 598 151 558 192 514 217 c 0
 494 229 467 237 434 242 c 1
 434 60 l 1
 578 60 l 2x7c
434 292 m 1
 454 292 478 307 494 317 c 0
 510 328 534 348 534 371 c 2
 534 377 l 1
 434 377 l 1
 434 292 l 1
764 45 m 0
 764 20 755 3 731 0 c 1
 392 0 l 2x7c
 337 0 304 0 262 0 c 0xbc
 224 0 206 13 182 32 c 0
 130 72 97 140 97 232 c 1
 97 305 121 358 158 392 c 0
 185 416 220 433 263 433 c 2
 653 433 l 2
 666 433 672 427 672 415 c 0
 672 404 666 390 652 375 c 0
 629 347 594 316 566 294 c 0
 554 284 547 279 547 278 c 0
 547 275 550 273 557 270 c 0
 582 262 603 249 629 232 c 0
 646 221 666 205 687 185 c 0
 714 160 733 135 745 110 c 0
 757 85 764 64 764 45 c 0
279 117 m 0xbc
 288 117 299 118 305 120 c 1
 305 312 l 1
 295 316 283 318 268 318 c 0
 247 318 227 312 206 299 c 0
 185 286 171 265 164 234 c 1
 164 226 l 2
 164 153 209 117 279 117 c 0xbc
EndSplineSet
Validated: 1
LCarets2: 2 0 0
Ligature2: "'ccmp' Cyrillic Ligatures-1" uni0441 uni200D uni0432
Colour: ffff00
EndChar

StartChar: uni04420440
Encoding: 59363 59363 43
Width: 896
GlyphClass: 3
Flags: HW
HStem: -3 76<515.085 631.333> 477 133<174 223.678 686 726> 554 56<250.125 385 515 650.775>
VStem: 385 130<74.0635 375.873 484.449 554> 387 107<-211.697 15> 625 132<96.039 259.265>
AnchorPoint: "Double" 898 799 basechar 0
AnchorPoint: "Diacritic" 451 800 basechar 0
LayerCount: 2
Fore
SplineSet
625 185 m 1x94
 624 209 620 233 614 256 c 0
 606 279 598 300 589 318 c 0
 580 337 570 352 560 363 c 0
 549 374 541 380 534 380 c 0
 530 380 526 379 522 376 c 0
 518 373 516 367 515 358 c 1
 515 91 l 2
 515 84 519 80 526 77 c 0
 533 74 541 73 549 73 c 0
 555 73 562 74 571 76 c 0
 580 77 588 82 596 88 c 0
 604 96 611 106 616 120 c 0
 622 133 625 152 625 175 c 2
 625 185 l 1x94
686 477 m 1xd4
 682 486 682 486 676 500 c 0
 672 508 666 517 658 525 c 0
 651 533 641 540 630 546 c 0
 619 551 604 554 586 554 c 2
 515 554 l 1
 515 488 l 1xb4
 546 485 576 472 604 450 c 0
 634 426 659 398 682 365 c 0
 705 332 723 295 736 256 c 0
 750 217 757 179 757 144 c 0
 757 124 754 105 750 88 c 0
 744 70 736 54 726 42 c 0
 714 28 700 18 682 10 c 0
 665 2 644 -2 619 -3 c 0
 611 -3 602 -3 592 -2 c 0
 581 -1 570 -0 559 1 c 0
 548 2 536 4 525 6 c 0
 514 9 503 12 494 15 c 1
 486 -386 l 1
 484 -396 481 -401 476 -401 c 0
 471 -401 464 -395 456 -384 c 0
 447 -373 439 -352 430 -321 c 0
 422 -290 414 -248 406 -194 c 0
 398 -141 392 -72 387 12 c 1xac
 385 92 l 1
 385 554 l 1
 313 554 l 2xb4
 306 554 299 553 290 552 c 0
 281 551 272 547 264 542 c 0
 254 537 246 529 237 518 c 0
 228 508 221 494 214 477 c 1
 174 477 l 1xd4
 99 564 l 1
 99 610 l 1
 797 610 l 1xb4
 797 564 l 1
 726 477 l 1
 686 477 l 1xd4
EndSplineSet
Validated: 1
LCarets2: 2 0 0
Ligature2: "'ccmp' Cyrillic Ligatures-1" uni0442 uni200D uni0440
Ligature2: "'ccmp' Cyrillic Ligatures-1" uni1C84 uni200D uni0440
Colour: ffff00
EndChar

StartChar: uni04100423
Encoding: 58864 58864 44
Width: 1211
GlyphClass: 3
Flags: HW
HStem: -30 125<171 268.217> 0 46<562 605.671> 413 20G<956 1095.68> 564 46<331 365.937>
VStem: 97 127<42.3334 152.578> 793.5 48.5<-428.768 -2.24609>
DStem2: 519 610 421 476 0.44981 -0.893124<75.5973 286.68 353.749 379.685 404.953 515.45> 514 286 541 225 0.677883 0.735169<-241.069 -26.5425>
AnchorPoint: "Double" 1213.5 664.5 basechar 0
AnchorPoint: "Diacritic" 772 671 basechar 0
LayerCount: 2
Fore
SplineSet
842 -273 m 256
 842 -329 844 -389 850 -428 c 1xbc
 850 -430 l 2
 850 -436 846 -439 838 -439 c 0
 810 -439 809 -415 804 -388 c 0
 801 -373 799 -354 798 -334 c 0
 796 -312 794 -289 794 -264 c 1
 792 -239 792 -212 792 -185 c 0
 792 -155 792 -124 794 -92 c 1
 794 -61 796 -30 799 0 c 1
 562 0 l 1
 562 46 l 1x7c
 592 46 607 56 607 77 c 0
 607 81 606 86 606 92 c 1
 598 111 585 138 578 150 c 1
 569 171 559 183 552 202 c 0
 549 208 545 216 541 225 c 1
 493 166 427 100 366 54 c 1
 335 29 303 9 272 -6 c 0
 241 -22 212 -30 186 -30 c 0
 130 -30 97 1 97 55 c 0
 97 80 102 105 110 131 c 1
 136 198 172 254 217 313 c 0
 244 348 275 388 310 432 c 1
 348 478 367 512 367 534 c 0
 367 552 355 562 331 564 c 1
 331 610 l 1
 519 610 l 1
 796 60 l 1
 809 60 l 1
 819 140 840 224 864 290 c 0
 875 323 887 352 900 376 c 0
 912 400 924 417 935 426 c 0
 940 431 949 433 963 433 c 2
 1090 433 l 2
 1109 433 1114 424 1114 409 c 0
 1114 383 1099 355 1090 334 c 1
 1082 320 1074 306 1066 292 c 1
 1056 279 1048 267 1039 256 c 1
 999 256 l 1
 996 269 992 292 979 292 c 0
 972 292 965 286 957 274 c 0
 888 171 859 17 846 -140 c 1
 844 -189 842 -233 842 -273 c 256
514 286 m 1
 515 287 l 1
 421 476 l 1
 352 381 302 306 271 250 c 0
 240 194 224 153 224 128 c 0
 224 106 234 95 254 95 c 0xbc
 270 95 288 100 308 110 c 1
 358 131 403 171 444 210 c 0
 468 233 491 259 514 286 c 1
EndSplineSet
Validated: 1
LCarets2: 2 0 0
Ligature2: "'ccmp' Cyrillic Ligatures-1" uni0410 uni200D uni0443
Ligature2: "'ccmp' Cyrillic Ligatures-1" uni0410 uni200D uni0423
Colour: ffff00
EndChar

StartChar: uni04300443
Encoding: 58898 58898 45
Width: 1025
GlyphClass: 3
Flags: HW
HStem: -16 117<121.229 255> 0 46<405 442.769> 390 43<249 281.927>
VStem: 93 120<14.9765 134.333> 611.5 48.5<-428.768 -2.24603>
DStem2: 135 154 245 208 0.573774 0.819014<20.9862 246.548> 419 433 326 322 0.461428 -0.887178<55.564 202.523 247.806 332.149>
AnchorPoint: "Double" 1024.5 562.5 basechar 0
AnchorPoint: "Diacritic" 527 563 basechar 0
LayerCount: 2
Fore
SplineSet
660 -273 m 256
 660 -329 661 -389 668 -428 c 1xb8
 668 -430 l 2
 668 -436 664 -439 656 -439 c 0
 629 -439 627 -415 622 -388 c 0
 612 -329 610 -255 610 -185 c 0
 610 -123 612 -58 617 0 c 1
 405 0 l 1
 405 46 l 1x78
 430 47 443 56 443 71 c 0
 443 76 442 79 441 84 c 2
 410 149 l 1
 356 92 281 33 205 -0 c 0
 182 -11 161 -16 143 -16 c 0
 110 -16 93 1 93 36 c 0
 93 84 114 120 135 154 c 0
 167 205 208 253 248 304 c 0
 271 333 282 354 282 367 c 256
 282 380 271 388 249 390 c 1
 249 433 l 1
 419 433 l 1
 613 60 l 1
 627 60 l 1
 642 175 674 291 718 376 c 0
 730 400 742 417 753 426 c 0
 758 431 767 433 781 433 c 2
 908 433 l 2
 927 433 932 425 932 409 c 0
 932 383 918 355 908 334 c 0
 894 307 875 278 857 256 c 1
 817 256 l 1
 814 269 810 292 797 292 c 0
 790 292 783 286 775 274 c 0
 728 203 699 106 682 7 c 0
 667 -79 660 -179 660 -273 c 256
390 196 m 1
 326 322 l 1
 293 281 266 243 245 208 c 0
 224 173 213 145 213 124 c 0
 213 109 221 101 237 101 c 0xb8
 273 101 324 133 390 196 c 1
EndSplineSet
Validated: 1
LCarets2: 2 0 0
Ligature2: "'ccmp' Cyrillic Ligatures-1" uni0430 uni200D uni0443
Colour: ffff00
EndChar

StartChar: uni04300442
Encoding: 58895 58895 46
Width: 896
GlyphClass: 3
Flags: HW
HStem: -16 117<142.229 273.667> 0 46<336 365.593 528.468 556> 390 43<306 333.993> 477 133<170 210 672.322 722> 554 56<245.225 381 511 645.875>
VStem: 114 120<15.3383 128.667> 381 130<56.2856 102 150.481 320 433 554>
AnchorPoint: "Double" 897 748 basechar 0
AnchorPoint: "Diacritic" 447 757 basechar 0
LayerCount: 2
Fore
SplineSet
336 46 m 1x6e
 364 48 379 60 381 91 c 1
 381 102 l 1
 348 73 306 43 268 20 c 0
 239 4 202 -16 164 -16 c 0
 131 -16 114 1 114 36 c 0
 114 84 134 120 156 154 c 0
 191 208 236 254 287 304 c 0
 318 335 334 358 334 371 c 0
 334 383 325 389 306 390 c 1
 306 433 l 1
 381 433 l 1
 381 554 l 1
 310 554 l 2xae
 263 554 234 531 220 500 c 0
 214 486 214 486 210 477 c 1
 170 477 l 1x36
 99 564 l 1
 99 610 l 1
 797 610 l 1x2e
 797 564 l 1
 722 477 l 1
 682 477 l 1x36
 665 520 639 554 583 554 c 2
 511 554 l 1
 511 92 l 1
 513 62 531 48 556 46 c 1
 556 0 l 1
 336 0 l 1
 336 46 l 1x6e
243 161 m 0
 237 146 234 133 234 124 c 0
 234 109 242 101 258 101 c 0xa6
 289 101 330 123 381 168 c 1
 381 320 l 1
 307 258 261 205 243 161 c 0
EndSplineSet
Validated: 1
LCarets2: 2 0 0
Ligature2: "'ccmp' Cyrillic Ligatures-1" uni0430 uni200D uni0442
Colour: ffff00
EndChar

StartChar: uni04180415
Encoding: 59082 59082 47
Width: 1385
GlyphClass: 3
Flags: HW
HStem: -10 164<1095.89 1205.87> 0 46<100 143.157 287.268 330 536 580.152 727.268 770> 251 122<1110.37 1254.71> 290 82<1061.36 1120.01> 311 66<285 582 725 965> 488 160<1091.86 1218.43> 564 46<100 141.497 289.219 330 537 578.132 727.826 770>
VStem: 145 140<50.5879 311 377 557.839> 582 143<50.5879 311 377 559.351> 967 91<193.799 289.999 376.219 451.14> 1009 237<52.4375 126.916>
AnchorPoint: "Double" 1386.5 774 basechar 0
AnchorPoint: "Diacritic" 660 774 basechar 0
LayerCount: 2
Fore
SplineSet
1227 373 m 0x21c0
 1262 373 1285 363 1285 328 c 0
 1285 323 1285 319 1284 316 c 0
 1266 276 1242 251 1195 251 c 0x21c0
 1152 251 1115 271 1085 284 c 0
 1077 288 1070 290 1066 290 c 0
 1064 290 1062 289 1061 288 c 1
 1061 214 1080 166 1137 154 c 0
 1164 147 1191 144 1215 133 c 0
 1229 126 1246 109 1246 85 c 0
 1246 64 1234 42 1223 28 c 0
 1205 6 1177 -10 1138 -10 c 0x91a0
 1072 -10 1033 39 1009 89 c 0
 982 147 965 227 965 311 c 1
 725 311 l 1
 725 78 l 1
 725 57 748 46 770 46 c 1
 770 0 l 1
 536 0 l 1
 536 46 l 1
 560 46 582 55 582 78 c 1
 582 311 l 1
 285 311 l 1
 285 78 l 1
 285 57 308 46 330 46 c 1
 330 0 l 1
 100 0 l 1
 100 46 l 1
 123 46 145 55 145 78 c 1
 145 529 l 1
 141 554 129 564 100 564 c 1
 100 610 l 1
 330 610 l 1
 330 564 l 1
 310 564 285 549 285 528 c 2
 285 377 l 1
 582 377 l 1
 582 528 l 1
 578 553 566 563 537 563 c 1
 537 610 l 1
 770 610 l 1
 770 564 l 1x4ba0
 746 564 725 552 725 528 c 2
 725 376 l 1
 967 376 l 1
 974 461 1000 531 1039 581 c 0
 1066 615 1106 648 1158 648 c 0
 1202 648 1232 621 1245 590 c 0
 1251 578 1253 566 1253 553 c 0
 1253 498 1221 487 1171 487 c 0
 1168 487 1165 487 1162 488 c 0
 1161 488 1159 488 1158 488 c 0
 1092 488 1064 450 1058 382 c 1
 1058 381 l 2
 1058 373 1078 372 1093 372 c 0
 1097 372 1100 372 1103 372 c 256x15c0
 1131 372 1167 373 1195 373 c 0
 1211 373 1211 373 1227 373 c 0x21c0
EndSplineSet
Validated: 1
LCarets2: 2 0 0
Ligature2: "'ccmp' Cyrillic Ligatures-1" uni0418 uni200D uni0415
Colour: ffff00
EndChar

StartChar: uni041B0413
Encoding: 59136 59136 48
Width: 952
GlyphClass: 3
Flags: HW
HStem: 0 46<236.8 269 522 556.169> 544 66<500 666.805> 564 46<286 318.2>
VStem: 96 173<0 51.9375> 96 131<62.4399 146.806> 567 198<21.3335 120.447>
AnchorPoint: "Double" 950 800 basechar 0
AnchorPoint: "Diacritic" 458 801 basechar 0
LayerCount: 2
Fore
SplineSet
97 0 m 1xd4
 96 4 96 8 96 12 c 0
 96 19 96 19 96 25 c 0
 96 61 102 97 113 132 c 0
 124 167 139 201 156 234 c 0
 173 267 192 298 212 328 c 0
 232 357 251 385 268 410 c 0
 285 435 300 458 311 478 c 0
 322 499 328 516 328 529 c 0
 328 538 325 546 318 552 c 0
 312 558 301 562 286 564 c 1
 286 610 l 1
 856 610 l 1
 856 564 l 1xb4
 763 467 l 1
 712 467 l 1
 700 487 689 502 678 512 c 0
 668 522 658 529 647 534 c 0
 636 539 625 541 614 542 c 0
 603 543 590 543 577 544 c 1
 500 544 l 1
 529 497 558 450 590 401 c 0
 620 352 649 305 675 259 c 0
 701 213 722 170 740 130 c 0
 756 89 765 55 765 26 c 0
 765 17 764 8 762 0 c 1
 522 0 l 1
 522 46 l 1
 538 47 550 53 556 62 c 0
 564 72 567 85 567 100 c 0
 567 122 561 148 550 179 c 0
 538 210 523 242 505 276 c 0
 487 309 467 343 446 376 c 0
 424 409 403 440 383 467 c 1
 372 448 357 423 340 392 c 0
 322 360 305 326 288 292 c 0
 271 256 257 222 245 188 c 0
 233 153 227 124 227 100 c 0xcc
 227 84 230 71 236 62 c 0
 243 53 254 47 269 46 c 1
 269 0 l 1
 97 0 l 1xd4
EndSplineSet
Validated: 1
LCarets2: 2 0 0
Ligature2: "'ccmp' Cyrillic Ligatures-1" uni041B uni200D uni0413
Ligature2: "'ccmp' Cyrillic Ligatures-1" uni041B uni200D uni0433
Colour: ffff00
EndChar

StartChar: uni043B0433
Encoding: 59146 59146 49
Width: 815
GlyphClass: 3
Flags: HW
HStem: 0 46<224.753 251.5 405.5 434.217> 377 56<432.5 568.557> 387 46<242.5 275.492>
VStem: 100.5 151<0 46> 100.5 116<21 119.185> 443.5 178<15.3335 97.6826>
DStem2: 432.5 377 321.5 332 0.53287 -0.846197<0 239.723>
AnchorPoint: "Double" 818 562.5 basechar 0
AnchorPoint: "Diacritic" 389.5 563 basechar 0
LayerCount: 2
Fore
SplineSet
242 433 m 1xb4
 714 433 l 1
 714 387 l 1xb4
 642 307 l 1
 602 307 l 1
 592 326 583 340 574 350 c 0
 565 359 556 366 548 370 c 0
 540 373 532 375 525 376 c 0
 518 376 512 376 506 377 c 1
 432 377 l 1
 452 344 474 311 496 277 c 0
 518 243 539 210 558 178 c 0
 576 147 592 117 604 90 c 0
 616 62 622 38 622 18 c 0
 622 13 621 7 620 0 c 1
 404 0 l 1
 406 46 l 1
 419 47 428 50 434 58 c 0
 440 64 444 74 444 86 c 0
 444 101 439 120 431 140 c 0
 423 162 412 183 400 206 c 0
 388 229 375 251 361 273 c 0
 347 295 334 315 322 332 c 1
 315 321 306 304 294 284 c 0
 282 262 271 240 259 216 c 0
 247 192 237 168 229 144 c 0
 221 121 216 101 216 84 c 0xcc
 216 73 219 64 224 56 c 0
 230 50 239 46 252 46 c 1
 252 0 l 1
 102 0 l 1
 102 4 101 8 101 12 c 0
 101 15 100 19 100 23 c 0
 100 48 105 72 114 96 c 0
 122 121 133 144 146 166 c 0
 159 189 173 210 188 230 c 0
 203 250 217 268 230 286 c 0
 243 302 254 318 262 331 c 0
 271 344 276 356 276 365 c 0
 276 378 264 385 242 387 c 1
 242 433 l 1xb4
EndSplineSet
Validated: 1
LCarets2: 2 0 0
Ligature2: "'ccmp' Cyrillic Ligatures-1" uni043B uni200D uni0433
Colour: ffff00
EndChar

StartChar: uni041D0418
Encoding: 59203 59203 50
Width: 1302
GlyphClass: 3
Flags: HW
HStem: 0 46<99.5 142.391 286.536 329.5 536.5 579.394 723.536 767.5 972.5 1015.39 1159.65 1202.5> 311 66<721.5 1017.5> 564 46<99.5 141.533 296.877 329.5 536.5 578.533 734.816 767.5 972.5 1014.09 1170.3 1202.5>
VStem: 144.5 140<50.5933 408 483 553.717> 581.5 140<50.5933 163 262 311 377 554.232> 1017.5 140<50.5933 311 377 554.203>
AnchorPoint: "Double" 1305 800 basechar 0
AnchorPoint: "Diacritic" 648.5 799 basechar 0
LayerCount: 2
Fore
SplineSet
144 528 m 2
 144 540 139 549 129 555 c 0
 119 561 109 564 100 564 c 1
 100 610 l 1
 330 610 l 1
 330 564 l 1
 316 563 304 560 296 554 c 0
 288 548 284 539 284 528 c 2
 284 483 l 1
 582 262 l 1
 582 528 l 2
 582 540 576 549 566 555 c 0
 556 561 546 564 536 564 c 1
 536 610 l 1
 768 610 l 1
 768 564 l 1
 752 563 741 560 734 554 c 0
 728 549 724 540 722 528 c 1
 722 377 l 1
 1018 377 l 1
 1018 528 l 2
 1018 539 1012 548 1002 554 c 0
 992 561 982 564 972 564 c 1
 972 610 l 1
 1202 610 l 1
 1202 564 l 1
 1187 563 1176 560 1170 555 c 0
 1164 550 1160 541 1158 529 c 1
 1158 78 l 1
 1158 70 1161 64 1165 60 c 0
 1169 55 1174 52 1179 50 c 0
 1184 48 1189 47 1194 46 c 0
 1198 46 1201 46 1202 46 c 1
 1202 0 l 1
 972 0 l 1
 972 46 l 1
 982 46 992 48 1002 54 c 0
 1012 58 1017 67 1018 78 c 1
 1018 311 l 1
 722 311 l 1
 722 78 l 1
 722 70 724 64 728 60 c 0
 732 55 737 52 742 50 c 0
 747 48 752 47 757 46 c 0
 762 46 766 46 768 46 c 1
 768 0 l 1
 536 0 l 1
 536 46 l 1
 546 46 556 48 566 54 c 0
 576 58 581 67 582 78 c 1
 582 163 l 1
 284 408 l 1
 284 78 l 1
 285 70 288 64 292 60 c 0
 296 55 300 52 305 50 c 0
 310 48 315 47 320 46 c 0
 324 46 328 46 330 46 c 1
 330 0 l 1
 100 0 l 1
 100 46 l 1
 110 46 119 48 129 54 c 0
 139 58 144 67 144 78 c 1
 144 528 l 2
EndSplineSet
Validated: 1
LCarets2: 2 0 0
Ligature2: "'ccmp' Cyrillic Ligatures-1" uni041D uni200D uni0418
Colour: ffff00
EndChar

StartChar: uni041D0466
Encoding: 59208 59208 51
Width: 1883
GlyphClass: 3
Flags: HW
HStem: 0 46<101 143.891 288.036 331 538 580.896 725.036 769 1050.77 1081 1185 1227.49 1385.47 1414 1539 1566.75> 225 66<1170 1230 1369 1448> 309 65<723 1078> 564 46<101 143.033 298.377 331 538 580.033 736.316 769 1185 1217.2>
VStem: 146 140<50.5933 408 483 553.717> 583 140<50.5933 163 262 309 374 554.232> 889 153<8.3335 85.5819> 1230 139<52.7069 225> 1575 207<0 74>
DStem2: 1437 517 1291 480 0.613744 -0.789505<-59.5641 184.338 261.489 430.225>
AnchorPoint: "Double" 1885 797 basechar 0
AnchorPoint: "Diacritic" 666 799 basechar 0
LayerCount: 2
Fore
SplineSet
1448 291 m 1
 1435 304 1416 326 1390 357 c 0
 1364 388 1331 429 1291 480 c 1
 1264 420 1226 361 1190 313 c 0
 1181 301 1174 294 1170 291 c 1
 1448 291 l 1
101 46 m 1
 123 46 145 57 146 78 c 1
 146 528 l 2
 146 550 122 564 101 564 c 1
 101 610 l 1
 331 610 l 1
 331 564 l 1
 306 562 286 553 286 528 c 2
 286 483 l 1
 583 262 l 1
 583 528 l 2
 583 551 558 564 538 564 c 1
 538 610 l 1
 769 610 l 1
 769 564 l 1
 740 562 727 554 723 528 c 1
 723 374 l 1
 1134 374 l 1
 1161 406 1183 435 1200 462 c 0
 1218 488 1227 510 1227 527 c 0
 1227 551 1209 560 1185 564 c 1
 1185 610 l 1
 1388 610 l 1
 1397 581 1414 550 1437 517 c 0
 1513 408 1614 303 1692 196 c 0
 1719 161 1740 126 1757 93 c 0
 1774 60 1782 29 1782 0 c 1
 1539 0 l 1
 1539 46 l 1
 1562 46 1575 53 1575 74 c 0
 1575 105 1552 139 1537 162 c 0
 1523 183 1502 210 1487 225 c 1
 1369 225 l 1
 1369 81 l 1
 1370 55 1390 46 1414 46 c 1
 1414 0 l 1
 1185 0 l 1
 1185 46 l 1
 1211 46 1230 57 1230 81 c 2
 1230 225 l 1
 1126 225 l 1
 1101 195 1081 167 1066 140 c 0
 1050 114 1042 92 1042 74 c 0
 1042 53 1057 46 1081 46 c 1
 1081 0 l 1
 890 0 l 1
 890 3 889 6 889 9 c 0
 889 29 894 51 906 74 c 0
 946 162 1017 238 1078 309 c 1
 723 309 l 1
 723 78 l 1
 725 54 744 46 769 46 c 1
 769 0 l 1
 538 0 l 1
 538 46 l 1
 559 46 582 57 583 78 c 1
 583 163 l 1
 286 408 l 1
 286 78 l 1
 288 55 307 46 331 46 c 1
 331 0 l 1
 101 0 l 1
 101 46 l 1
EndSplineSet
Validated: 1
LCarets2: 2 0 0
Ligature2: "'ccmp' Cyrillic Ligatures-1" uni041D uni200D uni0466
Ligature2: "'ccmp' Cyrillic Ligatures-1" uni041D uni200D uni0467
Colour: ffff00
EndChar

StartChar: uni04210412
Encoding: 59328 59328 52
Width: 1060
GlyphClass: 3
Flags: HW
HStem: 0 67<524 789.796> 346 64<524 596.819> 544 66<524 701.999>
VStem: 80 89<220.784 329 331 406.994> 385 139<147.22 346 410 477.172> 702 152<527.36 586.5> 792 188<69.5595 156.9>
AnchorPoint: "Double" 1059 801 basechar 0
AnchorPoint: "Diacritic" 470 799 basechar 0
LayerCount: 2
Fore
SplineSet
758 67 m 2xfa
 778 67 792 83 792 101 c 0
 792 139 767 174 748 200 c 0
 708 254 651 306 588 334 c 0
 568 342 551 346 534 346 c 2
 524 346 l 1
 524 67 l 1
 758 67 l 2xfa
524 410 m 1
 567 410 611 437 640 457 c 0
 658 470 673 483 684 496 c 0
 696 510 702 522 702 533 c 0xfc
 702 537 701 541 699 544 c 1
 524 544 l 1
 524 410 l 1
828 610 m 0
 844 610 854 594 854 579 c 0xfc
 854 549 829 522 811 503 c 0
 776 466 729 429 686 402 c 0
 674 395 665 390 659 388 c 1
 666 386 680 380 698 371 c 0
 772 335 851 280 907 222 c 0
 928 200 946 177 960 154 c 0
 973 130 980 106 980 82 c 0xfa
 980 53 964 27 946 13 c 0
 937 6 924 0 908 0 c 1
 341 0 l 2
 311 0 279 2 256 10 c 0
 141 47 80 166 80 326 c 0
 80 390 89 441 106 478 c 0
 142 563 201 610 314 610 c 0
 485 610 657 610 828 610 c 0
313 140 m 0
 338 140 370 148 385 154 c 1
 385 257 385 359 385 462 c 1
 381 477 340 485 315 485 c 0
 252 485 213 451 190 407 c 0
 180 387 170 362 170 331 c 1
 169 329 l 1
 169 260 188 208 221 176 c 0
 244 153 273 140 313 140 c 0
EndSplineSet
Validated: 1
LCarets2: 2 0 0
Ligature2: "'ccmp' Cyrillic Ligatures-1" uni0421 uni200D uni0412
Colour: ffff00
EndChar

StartChar: uni04420463
Encoding: 59420 59420 53
Width: 920
GlyphClass: 3
Flags: HW
HStem: 0 60<514 671.325> 0 46<344 382.496> 217 133<242 282 664.322 714> 294 56<317.225 384 514 637.875> 387 46<344 380.312 514.347 550> 477 133<173 213 675.322 725> 554 56<248.225 384 514 648.875>
VStem: 384 130<60.0113 168 223.16 294 350 381.389 433 554>
AnchorPoint: "Double" 920 800 basechar 0
AnchorPoint: "Diacritic" 442 801 basechar 0
LayerCount: 2
Fore
SplineSet
344 46 m 1
 365 46 384 56 384 78 c 2
 384 294 l 1
 382 294 l 2x59
 335 294 306 271 292 240 c 0
 286 226 286 226 282 217 c 1
 242 217 l 1x29
 171 304 l 1
 171 350 l 1
 384 350 l 1
 384 353 l 1
 382 371 361 387 344 387 c 1
 344 433 l 1
 384 433 l 1
 384 554 l 1
 313 554 l 2x1b
 266 554 237 531 223 500 c 0
 217 486 217 486 213 477 c 1
 173 477 l 1x0d
 102 564 l 1
 102 610 l 1
 800 610 l 1x0b
 800 564 l 1
 725 477 l 1
 685 477 l 1x0d
 668 520 642 554 586 554 c 2
 514 554 l 1
 514 433 l 1
 550 433 l 1
 550 387 l 1
 533 387 521 380 514 366 c 1
 514 350 l 1
 789 350 l 1x1b
 789 304 l 1
 714 217 l 1
 674 217 l 1x29
 657 260 631 294 575 294 c 2
 514 294 l 1
 514 228 l 1
 621 204 736 179 794 105 c 0
 806 89 814 70 818 49 c 1
 818 41 l 2
 818 19 807 0 781 0 c 2
 344 0 l 1
 344 46 l 1
651 60 m 2
 665 60 677 66 677 76 c 0
 677 98 657 114 640 126 c 0
 608 147 564 160 514 168 c 1
 514 60 l 1x89
 651 60 l 2
EndSplineSet
Validated: 1
LCarets2: 2 0 0
Ligature2: "'ccmp' Cyrillic Ligatures-1" uni1C84 uni200D uni0463
Ligature2: "'ccmp' Cyrillic Ligatures-1" uni0442 uni200D uni0463
Colour: ffff00
EndChar

StartChar: uni04220412
Encoding: 59360 59360 54
Width: 1069
GlyphClass: 3
Flags: HW
HStem: 0 60<604 754.934> 0 46<418 450.654> 377 56<604 693> 387 46<422 457.745> 458 152<198 254.73 815.142 872> 544 66<300.125 464 604 767.372>
VStem: 464 140<60.3431 240 293 376.866 433 544> 757 166<39.3335 115.832>
AnchorPoint: "Double" 1067 798 basechar 0
AnchorPoint: "Diacritic" 521 801 basechar 0
LayerCount: 2
Fore
SplineSet
923 45 m 0
 923 20 914 3 890 0 c 1
 418 0 l 1
 418 46 l 1x53
 448 49 461 61 464 91 c 1
 464 341 l 2
 464 365 448 387 422 387 c 1
 422 433 l 1
 464 433 l 1
 464 544 l 1
 383 544 l 1x57
 325 539 282 522 258 485 c 0
 252 476 247 467 243 458 c 1
 198 458 l 1x0b
 102 564 l 1
 102 610 l 1
 967 610 l 1x07
 967 564 l 1
 872 458 l 1
 827 458 l 1x0b
 811 493 786 516 753 530 c 0
 731 539 708 540 684 544 c 1
 604 544 l 1
 604 433 l 1x27
 812 433 l 2
 825 433 831 427 831 415 c 0
 831 404 824 390 812 375 c 0
 788 347 753 316 726 294 c 0
 712 284 706 279 706 278 c 0
 706 275 709 273 716 270 c 0
 741 262 762 249 788 232 c 0
 805 221 825 205 846 185 c 0
 873 160 892 135 904 110 c 0
 916 85 922 64 923 45 c 0
737 60 m 2x83
 756 60 757 73 757 89 c 0
 757 149 720 188 678 213 c 0
 659 225 634 234 604 240 c 1
 604 60 l 1
 737 60 l 2x83
694 370 m 0
 694 373 693 374 693 377 c 1x23
 604 377 l 1
 604 293 l 1
 636 301 667 320 684 344 c 0
 691 353 694 361 694 370 c 0
EndSplineSet
Validated: 1
LCarets2: 2 0 0
Ligature2: "'ccmp' Cyrillic Ligatures-1" uni0422 uni200D uni0412
Ligature2: "'ccmp' Cyrillic Ligatures-1" uni0422 uni200D uni0432
Colour: ffff00
EndChar

StartChar: uni04420432
Encoding: 59392 59392 55
Width: 927
GlyphClass: 3
Flags: HW
HStem: 0 60<506.5 664.434> 0 46<331.5 364.184> 377 56<506.5 602.5> 387 46<335.5 370.474> 477 133<165.5 205.5 667.822 717.5> 554 56<240.725 376.5 506.5 641.375>
VStem: 376.5 130<60.2119 241 292 376.661 433 554> 666.5 166<39.3335 115.786>
AnchorPoint: "Double" 931 800 basechar 0
AnchorPoint: "Diacritic" 432.5 799 basechar 0
LayerCount: 2
Fore
SplineSet
832 45 m 0
 832 20 823 3 800 0 c 1
 332 0 l 1
 332 46 l 1x53
 357 48 373 58 376 79 c 1
 376 349 l 1
 375 356 372 364 366 373 c 0
 360 382 350 387 336 387 c 1
 336 433 l 1
 376 433 l 1
 376 554 l 1
 306 554 l 2x57
 259 554 229 531 216 500 c 0
 210 486 210 486 206 477 c 1
 166 477 l 1x0b
 94 564 l 1
 94 610 l 1
 792 610 l 1x07
 792 564 l 1
 718 477 l 1
 678 477 l 1x0b
 661 520 634 554 578 554 c 2
 506 554 l 1
 506 433 l 1x27
 722 433 l 2
 734 433 740 427 740 415 c 0
 740 404 734 390 721 375 c 0
 697 347 663 316 635 294 c 0
 622 284 616 279 616 278 c 0
 616 275 619 273 626 270 c 0
 650 262 672 249 698 232 c 0
 715 221 734 205 756 185 c 0
 782 160 802 135 814 110 c 0
 826 85 832 64 832 45 c 0
646 60 m 2
 665 60 666 72 666 88 c 0
 666 122 652 152 634 174 c 0
 606 208 563 231 506 241 c 1
 506 60 l 1x83
 646 60 l 2
602 377 m 1x23
 506 377 l 1
 506 292 l 1
 539 295 574 323 592 344 c 0
 599 354 602 362 602 371 c 2
 602 377 l 1x23
EndSplineSet
Validated: 1
LCarets2: 2 0 0
Ligature2: "'ccmp' Cyrillic Ligatures-1" uni1C84 uni200D uni0432
Ligature2: "'ccmp' Cyrillic Ligatures-1" uni0442 uni200D uni0432
Colour: ffff00
EndChar

StartChar: uni04220418
Encoding: 59361 59361 56
Width: 1085
GlyphClass: 3
Flags: HW
HStem: 0 46<418 447.593 620.468 648 774 813.855 944.122 984> 209 60<603 814> 387 46<776 803.17 944.557 984> 458 152<197 253.73 814.143 871> 544 66<299.125 463 603 766.372>
VStem: 463 140<56.2856 209 269 544> 814 130<49.0936 209 269 378.779>
AnchorPoint: "Double" 1084 800 basechar 0
AnchorPoint: "Diacritic" 524 799 basechar 0
LayerCount: 2
Fore
SplineSet
984 387 m 1
 966 387 944 378 944 360 c 2
 944 69 l 1xee
 945 54 968 46 984 46 c 1
 984 0 l 1
 774 0 l 1
 774 46 l 1
 792 46 812 52 814 69 c 1
 814 209 l 1
 603 209 l 1
 603 92 l 1
 605 62 623 48 648 46 c 1
 648 0 l 1
 418 0 l 1
 418 46 l 1
 446 48 461 60 463 91 c 1
 463 544 l 1
 382 544 l 1xee
 324 539 281 522 257 485 c 0
 251 476 246 467 242 458 c 1
 197 458 l 1xf6
 101 564 l 1
 101 610 l 1
 966 610 l 1xee
 966 564 l 1
 871 458 l 1
 826 458 l 1xf6
 810 493 785 516 752 530 c 0
 730 539 707 540 683 544 c 1
 603 544 l 1
 603 269 l 1
 814 269 l 1
 814 360 l 2
 814 378 795 386 776 387 c 1
 776 433 l 1
 984 433 l 1
 984 387 l 1
EndSplineSet
Validated: 1
LCarets2: 2 0 0
Ligature2: "'ccmp' Cyrillic Ligatures-1" uni0422 uni200D uni0418
Ligature2: "'ccmp' Cyrillic Ligatures-1" uni0422 uni200D uni0438
Colour: ffff00
EndChar

StartChar: uni04420438
Encoding: 59401 59401 57
Width: 992
GlyphClass: 3
Flags: HW
HStem: 0 46<341.5 381.355 511.622 551.5 682.5 722.355 852.622 892.5> 209 60<511.5 722.5> 387 46<341.5 379.519 513.096 551.5 684.5 711.67 853.057 892.5> 477 133<170.5 210.5 672.822 722.5> 554 56<245.725 381.5 511.5 646.375>
VStem: 381.5 130<49.0936 209 269 382.722 433 554> 722.5 130<49.0936 209 269 378.779>
AnchorPoint: "Double" 994 800 basechar 0
AnchorPoint: "Diacritic" 439.5 799 basechar 0
LayerCount: 2
Fore
SplineSet
892 387 m 1
 875 387 852 378 852 360 c 2
 852 69 l 1xee
 854 54 877 46 892 46 c 1
 892 0 l 1
 682 0 l 1
 682 46 l 1
 701 46 721 52 722 69 c 1
 722 209 l 1
 512 209 l 1
 512 69 l 1
 513 54 536 46 552 46 c 1
 552 0 l 1
 342 0 l 1
 342 46 l 1
 360 46 380 52 382 69 c 1
 382 358 l 1
 379 376 362 386 342 387 c 1
 342 433 l 1
 382 433 l 1
 382 554 l 1
 310 554 l 2xee
 264 554 234 531 220 500 c 0
 214 486 214 486 210 477 c 1
 170 477 l 1xf6
 100 564 l 1
 100 610 l 1
 798 610 l 1xee
 798 564 l 1
 722 477 l 1
 682 477 l 1xf6
 666 520 639 554 584 554 c 2
 512 554 l 1
 512 433 l 1
 552 433 l 1
 552 387 l 1
 535 387 514 375 512 359 c 1
 512 269 l 1
 722 269 l 1
 722 360 l 2
 722 378 703 386 684 387 c 1
 684 433 l 1
 892 433 l 1
 892 387 l 1
EndSplineSet
Validated: 1
LCarets2: 2 0 0
Ligature2: "'ccmp' Cyrillic Ligatures-1" uni1C84 uni200D uni0438
Ligature2: "'ccmp' Cyrillic Ligatures-1" uni0442 uni200D uni0438
Colour: ffff00
EndChar

StartChar: uni04220420
Encoding: 59409 59409 58
Width: 1069
GlyphClass: 3
Flags: HW
HStem: -3 76<605.084 721.333> 467 143<197 257.073 813.472 871> 544 66<294.165 465 605 775.413>
VStem: 465 140<74.0635 375.873 484.449 544> 467 117<-177.457 15> 715 132<96.039 259.265>
AnchorPoint: "Double" 1069.5 800 basechar 0
AnchorPoint: "Diacritic" 541 800 basechar 0
LayerCount: 2
Fore
SplineSet
639 73 m 0
 695 73 715 115 715 175 c 2
 715 185 l 1x94
 714 234 697 284 679 318 c 0
 670 337 660 352 650 363 c 0
 639 374 631 380 624 380 c 0
 612 380 606 372 605 358 c 1
 605 91 l 2
 605 77 625 73 639 73 c 0
709 -3 m 1
 664 -3 618 3 584 15 c 1xac
 576 -385 l 1
 576 -386 l 1
 574 -396 571 -401 566 -401 c 0
 560 -401 553 -394 544 -378 c 0
 518 -332 504 -259 491 -190 c 0
 480 -130 471 -56 467 12 c 1xac
 465 92 l 1
 465 544 l 1
 385 544 l 1xb4
 363 540 342 542 321 535 c 0
 286 524 262 500 242 467 c 1
 197 467 l 1xd4
 102 564 l 1
 102 610 l 1
 967 610 l 1xb4
 967 564 l 1
 871 467 l 1
 826 467 l 1xd4
 803 518 758 538 686 544 c 1
 605 544 l 1
 605 488 l 1xb4
 636 485 666 472 694 450 c 0
 753 403 800 334 826 256 c 0
 840 217 847 179 847 144 c 0
 847 52 799 -1 709 -3 c 1
EndSplineSet
Validated: 1
LCarets2: 2 0 0
Ligature2: "'ccmp' Cyrillic Ligatures-1" uni0422 uni200D uni0440
Ligature2: "'ccmp' Cyrillic Ligatures-1" uni0422 uni200D uni0420
Colour: ffff00
EndChar

StartChar: uni04100442
Encoding: 58863 58863 59
Width: 1064
GlyphClass: 3
Flags: HW
HStem: -16 117<222.729 354.167> 0 46<416.5 446.529 618.968 646.5> 390 43<386.5 414.493> 458 152<195.5 252.23 812.642 869.5> 544 66<297.625 461.5 601.5 764.87>
VStem: 194.5 120<15.3383 128.667> 461.5 140<56.2856 102 150.481 320 433 544>
AnchorPoint: "Double" 1066 799 basechar 0
AnchorPoint: "Diacritic" 525.5 799 basechar 0
LayerCount: 2
Fore
SplineSet
602 92 m 1
 604 62 621 48 646 46 c 1
 646 0 l 1
 416 0 l 1
 416 46 l 1
 424 46 l 2x6e
 425 47 426 47 426 47 c 2
 430 47 l 1
 442 52 457 60 458 74 c 0
 458 79 460 85 462 91 c 1
 462 102 l 1
 428 73 387 43 348 20 c 0
 319 4 283 -16 244 -16 c 0
 211 -16 194 1 194 36 c 0
 194 84 214 120 236 154 c 0
 272 208 317 254 368 304 c 0
 399 335 414 358 414 371 c 0
 414 383 405 389 386 390 c 1
 386 433 l 1
 462 433 l 1
 462 544 l 1
 380 544 l 1xae
 322 539 279 522 256 485 c 0
 250 476 244 467 240 458 c 1
 196 458 l 1x36
 100 564 l 1
 100 610 l 1
 964 610 l 1x2e
 964 564 l 1
 870 458 l 1
 824 458 l 1x36
 808 493 783 516 750 530 c 0
 729 539 705 540 682 544 c 1
 602 544 l 1
 602 92 l 1
324 161 m 0
 318 146 314 133 314 124 c 0
 314 109 322 101 338 101 c 0xa6
 370 101 411 123 462 168 c 1
 462 320 l 1
 388 258 342 205 324 161 c 0
EndSplineSet
Validated: 1
LCarets2: 2 0 0
Ligature2: "'ccmp' Cyrillic Ligatures-1" uni0410 uni200D uni1C84
Ligature2: "'ccmp' Cyrillic Ligatures-1" uni0410 uni200D uni0442
Colour: ffff00
EndChar

StartChar: uni0422042C
Encoding: 59370 59370 60
Width: 1067
GlyphClass: 3
Flags: HW
HStem: 0 60<603 758.841> 0 46<423 451.139> 189 59<603 681.829> 387 46<423 461.973 603.128 643> 458 152<197 253.73 814.145 871> 544 66<299.125 463 603 766.374>
VStem: 463 140<60.0014 189 243.139 383.085 433 544>
AnchorPoint: "Double" 1065.5 800 basechar 0
AnchorPoint: "Diacritic" 529 799 basechar 0
LayerCount: 2
Fore
SplineSet
463 359 m 2
 463 376 440 387 423 387 c 1
 423 433 l 1
 463 433 l 1
 463 544 l 1
 382 544 l 1x76
 324 539 281 522 257 485 c 0
 251 476 246 467 242 458 c 1
 197 458 l 1x3a
 101 564 l 1
 101 610 l 1
 966 610 l 1x36
 966 564 l 1
 871 458 l 1
 826 458 l 1x3a
 810 493 784 516 752 530 c 0
 730 539 707 540 683 544 c 1
 603 544 l 1
 603 433 l 1
 643 433 l 1
 643 387 l 1
 627 387 603 380 603 363 c 2
 603 248 l 1
 700 228 799 188 860 129 c 0
 884 106 899 80 905 49 c 1
 905 41 l 2
 905 19 894 0 868 0 c 2
 423 0 l 1
 423 46 l 1
 451 48 463 57 463 91 c 2
 463 359 l 2
603 60 m 1xb2
 738 60 l 2
 753 60 764 65 764 76 c 1
 758 126 718 153 676 170 c 0
 656 178 632 184 603 189 c 1
 603 60 l 1xb2
EndSplineSet
Validated: 1
LCarets2: 2 0 0
Ligature2: "'ccmp' Cyrillic Ligatures-1" uni0422 uni200D uni044C
Ligature2: "'ccmp' Cyrillic Ligatures-1" uni0422 uni200D uni042C
Colour: ffff00
EndChar

StartChar: uni0442044C
Encoding: 59418 59418 61
Width: 925
GlyphClass: 3
Flags: HW
HStem: 0 60<514.5 676.341> 0 46<344.5 382.996> 190 60<514.5 596.15> 387 46<344.5 381.42 526.877 554.5> 477 133<173.5 213.5 675.822 725.5> 554 56<248.725 384.5 514.5 649.375>
VStem: 384.5 130<60.0113 190 245.139 376.171 433 554>
AnchorPoint: "Double" 924.5 799 basechar 0
AnchorPoint: "Diacritic" 436.5 799 basechar 0
LayerCount: 2
Fore
SplineSet
344 46 m 1
 365 46 384 56 384 78 c 2
 384 350 l 2x76
 384 363 380 372 370 378 c 0
 360 384 351 387 344 387 c 1
 344 433 l 1
 384 433 l 1
 384 554 l 1
 314 554 l 2x76
 267 554 237 531 224 500 c 0
 218 486 218 486 214 477 c 1
 174 477 l 1x3a
 102 564 l 1
 102 610 l 1
 800 610 l 1x36
 800 564 l 1
 726 477 l 1
 686 477 l 1x3a
 669 520 642 554 586 554 c 2
 514 554 l 1
 514 433 l 1
 554 433 l 1
 554 387 l 1
 533 387 514 371 514 350 c 2
 514 250 l 1
 612 229 713 189 776 130 c 0
 801 108 816 80 822 49 c 1
 822 41 l 2
 822 19 812 0 786 0 c 2
 344 0 l 1
 344 46 l 1
514 60 m 1xb2
 656 60 l 2
 670 60 682 65 682 76 c 1
 676 128 634 154 590 171 c 0
 569 179 544 185 514 190 c 1
 514 60 l 1xb2
EndSplineSet
Validated: 1
LCarets2: 2 0 0
Ligature2: "'ccmp' Cyrillic Ligatures-1" uni1C84 uni200D uni044C
Ligature2: "'ccmp' Cyrillic Ligatures-1" uni0442 uni200D uni044C
Colour: ffff00
EndChar

StartChar: uni04420430
Encoding: 59419 59419 62
Width: 1323
GlyphClass: 3
Flags: HW
HStem: -16 117<690.229 824> 0 46<346 384.256 531.406 556 974 1011.77 1176.32 1223> 244 60<516 769> 390 43<818 850.927> 477 133<175 224.678 687 727> 554 56<251.125 386 516 651.775>
VStem: 386 130<53.1908 244 304 554> 662 120<14.9766 134.333>
DStem2: 988 433 895 322 0.457069 -0.889431<56.2195 197.54 248.485 332.86>
AnchorPoint: "Double" 1325 799 basechar 0
AnchorPoint: "Diacritic" 442 800 basechar 0
LayerCount: 2
Fore
SplineSet
959 196 m 1
 938 239 916 280 895 322 c 1
 862 281 835 243 814 208 c 0
 793 173 782 145 782 124 c 0
 782 109 790 101 806 101 c 0
 842 101 893 133 959 196 c 1
314 554 m 2x77
 258 554 232 520 215 477 c 1
 175 477 l 1x3b
 100 564 l 1
 100 610 l 1
 798 610 l 1x37
 798 564 l 1
 727 477 l 1
 687 477 l 1x3b
 683 486 683 486 677 500 c 0
 663 531 633 554 587 554 c 2
 516 554 l 1
 516 304 l 1
 817 304 l 1
 840 331 851 352 851 367 c 0
 851 380 840 388 818 390 c 1
 818 433 l 1
 988 433 l 1
 1173 73 l 2
 1182 56 1199 47 1223 46 c 1
 1223 0 l 1
 974 0 l 1
 974 46 l 1x77
 999 47 1012 56 1012 71 c 0
 1012 76 1011 79 1010 84 c 2
 979 149 l 1
 925 92 850 33 774 -0 c 0
 751 -11 730 -16 712 -16 c 0xb3
 679 -16 662 1 662 36 c 0
 662 67 672 98 691 130 c 0
 710 163 736 201 769 244 c 1
 516 244 l 1
 516 78 l 1
 518 56 536 48 556 46 c 1
 556 0 l 1
 346 0 l 1
 346 46 l 1
 366 46 386 58 386 79 c 2
 386 554 l 1
 314 554 l 2x77
EndSplineSet
Validated: 1
LCarets2: 2 0 0
Ligature2: "'ccmp' Cyrillic Ligatures-1" uni0442 uni200D uni0430
Ligature2: "'ccmp' Cyrillic Ligatures-1" uni1C84 uni200D uni0430
Colour: ffff00
EndChar

StartChar: uni0307
Encoding: 775 775 63
Width: 0
GlyphClass: 4
Flags: HW
HStem: 539 123<-239.137 -145.2>
VStem: -254 124<553.77 647.137>
AnchorPoint: "Stacking" -190 770 basemark 0
AnchorPoint: "Stacking" -192 531.7 mark 0
AnchorPoint: "Diacritic" -190 532 mark 0
LayerCount: 2
Fore
SplineSet
-192 539 m 256
 -227 539 -254 566 -254 600 c 256
 -254 635 -227 662 -192 662 c 256
 -158 662 -130 635 -130 600 c 256
 -130 566 -158 539 -192 539 c 256
EndSplineSet
Validated: 1
EndChar

StartChar: uni030A
Encoding: 778 778 64
Width: 0
GlyphClass: 4
Flags: HW
HStem: 493 58<-245.328 -153.565> 685 55<-245.778 -153.226>
VStem: -324 61<568.211 668.16> -137 65<567.196 669.147>
AnchorPoint: "Stacking" -196 800 basemark 0
AnchorPoint: "Stacking" -195 487.7 mark 0
AnchorPoint: "Diacritic" -196 490 mark 0
LayerCount: 2
Fore
SplineSet
-200 551 m 0
 -163 551 -137 582 -137 618 c 0
 -137 655 -163 685 -200 685 c 0
 -235 685 -263 654 -263 618 c 0
 -263 583 -235 551 -200 551 c 0
-324 615 m 0
 -324 673 -289 712 -248 730 c 0
 -233 737 -216 740 -198 740 c 0
 -141 740 -100 703 -82 662 c 0
 -75 647 -72 632 -72 615 c 0
 -72 557 -108 520 -150 502 c 0
 -165 496 -181 493 -198 493 c 0
 -256 493 -297 526 -314 567 c 0
 -321 582 -324 598 -324 615 c 0
EndSplineSet
Validated: 1
EndChar

StartChar: uni0308
Encoding: 776 776 65
Width: 0
GlyphClass: 4
Flags: HW
HStem: 539 123<-416.23 -323.2 -85.2296 7.79974>
VStem: -431 123<553.77 646.8> -100 123<553.77 646.8>
AnchorPoint: "Stacking" -202 760 basemark 0
AnchorPoint: "Stacking" -204 531.7 mark 0
AnchorPoint: "Diacritic" -204 531 mark 0
LayerCount: 2
Fore
SplineSet
-39 539 m 256
 -73 539 -100 566 -100 600 c 256
 -100 634 -73 662 -39 662 c 256
 -5 662 23 634 23 600 c 256
 23 566 -5 539 -39 539 c 256
-370 539 m 256
 -404 539 -431 566 -431 600 c 256
 -431 634 -404 662 -370 662 c 256
 -336 662 -308 634 -308 600 c 256
 -308 566 -336 539 -370 539 c 256
EndSplineSet
Validated: 1
EndChar

StartChar: uni0313
Encoding: 787 787 66
Width: 0
GlyphClass: 4
Flags: HW
HStem: 615 126<-256.116 -203.468>
VStem: -202 70<583.711 621.906>
AnchorPoint: "Stacking" -200 814 basemark 0
AnchorPoint: "Stacking" -205 474.7 mark 0
AnchorPoint: "Diacritic" -204 474 mark 0
LayerCount: 2
Fore
SplineSet
-200 741 m 0
 -150 741 -132 700 -132 645 c 0
 -132 613 -158 575 -174 552 c 0
 -191 527 -221 489 -251 484 c 1
 -279 511 l 1
 -255 516 -229 548 -202 607 c 1
 -202 613 l 2
 -202 617 -202 620 -203 622 c 1
 -213 619 -222 615 -234 615 c 0
 -261 615 -276 651 -276 681 c 1
 -273 716 -238 741 -200 741 c 0
EndSplineSet
Validated: 1
EndChar

StartChar: uni031B
Encoding: 795 795 67
Width: 0
GlyphClass: 4
Flags: HW
HStem: 659 111<-247.422 -177.701>
VStem: -177 55<593.929 665.907>
AnchorPoint: "Stacking" -196 842 basemark 0
AnchorPoint: "Stacking" -199 475.7 mark 0
AnchorPoint: "Diacritic" -198 476 mark 0
LayerCount: 2
Fore
SplineSet
-203 770 m 0
 -155 770 -122 726 -122 675 c 0
 -122 608 -149 576 -186 540 c 0
 -204 524 -225 505 -251 482 c 1
 -277 514 l 1
 -210 569 -177 614 -177 651 c 2
 -177 659 l 2
 -177 663 -176 664 -177 666 c 1
 -187 663 -197 659 -209 659 c 0
 -241 659 -261 681 -261 713 c 0
 -261 744 -234 770 -203 770 c 0
EndSplineSet
Validated: 1
EndChar

StartChar: uni0309
Encoding: 777 777 68
Width: 0
GlyphClass: 4
Flags: HW
HStem: 687 52<-303 -154.999>
VStem: -155 55<616 686.906>
AnchorPoint: "Stacking" -194 800 basemark 0
AnchorPoint: "Stacking" -205 497.7 mark 0
AnchorPoint: "Diacritic" -206 498 mark 0
LayerCount: 2
Fore
SplineSet
-229 503 m 1
 -255 535 l 1
 -188 590 -155 635 -155 672 c 2
 -155 678 l 2
 -155 682 -154 685 -155 687 c 1
 -303 687 l 1
 -303 739 l 1
 -100 739 l 1
 -100 694 l 2
 -100 627 -127 597 -164 562 c 0
 -182 545 -203 526 -229 503 c 1
EndSplineSet
Validated: 1
EndChar

StartChar: uni0301
Encoding: 769 769 69
Width: 0
GlyphClass: 4
Flags: HW
HStem: 497 240
VStem: -296 249
AnchorPoint: "Stacking" -178.5 800.3 basemark 0
AnchorPoint: "Stacking" -198 479.7 mark 0
AnchorPoint: "Diacritic" -198 480 mark 0
LayerCount: 2
Fore
SplineSet
-296 527 m 5
 -104 737 l 5
 -47 679 l 5
 -265 497 l 5
 -296 527 l 5
EndSplineSet
Validated: 1
EndChar

StartChar: uni030B
Encoding: 779 779 70
Width: 0
GlyphClass: 4
Flags: HW
HStem: 496 240
AnchorPoint: "Stacking" -80 802 basemark 0
AnchorPoint: "Stacking" -217 485.7 mark 0
AnchorPoint: "Diacritic" -216 486 mark 0
LayerCount: 2
Fore
SplineSet
-369 526 m 1
 -176 736 l 1
 -119 678 l 1
 -337 496 l 1
 -369 526 l 1
-180 526 m 1
 13 735 l 1
 70 677 l 1
 -149 496 l 1
 -180 526 l 1
EndSplineSet
Validated: 1
EndChar

StartChar: uni0300
Encoding: 768 768 71
Width: 0
GlyphClass: 4
Flags: HW
HStem: 497 240
VStem: -343 250
AnchorPoint: "Stacking" -185 800.3 basemark 0
AnchorPoint: "Stacking" -121 489.7 mark 0
AnchorPoint: "Diacritic" -120 490 mark 0
LayerCount: 2
Fore
SplineSet
-125 497 m 1
 -343 679 l 1
 -286 737 l 1
 -93 527 l 1
 -125 497 l 1
EndSplineSet
Validated: 1
EndChar

StartChar: uni030F
Encoding: 783 783 72
Width: 0
GlyphClass: 4
Flags: HW
HStem: 498 240
AnchorPoint: "Stacking" -226 800 basemark 0
AnchorPoint: "Stacking" -139 489.7 mark 0
AnchorPoint: "Diacritic" -140 490 mark 0
LayerCount: 2
Fore
SplineSet
-246 498 m 1
 -465 680 l 1
 -408 738 l 1
 -215 529 l 1
 -246 498 l 1
-58 498 m 1
 -276 681 l 1
 -219 739 l 1
 -26 529 l 1
 -58 498 l 1
EndSplineSet
Validated: 1
EndChar

StartChar: uni030D
Encoding: 781 781 73
Width: 0
GlyphClass: 4
Flags: HW
HStem: 499 286<-223 -177>
VStem: -223 46<499 599.1>
AnchorPoint: "Stacking" -196 878 basemark 0
AnchorPoint: "Stacking" -195 495.7 mark 0
AnchorPoint: "Diacritic" -198 496 mark 0
LayerCount: 2
Fore
SplineSet
-223 499 m 1
 -243 785 l 1
 -157 785 l 1
 -177 499 l 1
 -223 499 l 1
EndSplineSet
Validated: 1
EndChar

StartChar: uni030E
Encoding: 782 782 74
Width: 0
GlyphClass: 4
Flags: HW
HStem: 497 286<-305 -259 -146 -101>
VStem: -305 46<497 597.1> -146 45<497 597.1>
AnchorPoint: "Stacking" -206 892 basemark 0
AnchorPoint: "Stacking" -205 489.7 mark 0
AnchorPoint: "Diacritic" -206 492 mark 0
LayerCount: 2
Fore
SplineSet
-305 497 m 1
 -325 783 l 1
 -239 783 l 1
 -259 497 l 1
 -305 497 l 1
-146 497 m 1
 -166 783 l 1
 -81 783 l 1
 -101 497 l 1
 -146 497 l 1
EndSplineSet
Validated: 1
EndChar

StartChar: uni0304
Encoding: 772 772 75
Width: 0
GlyphClass: 4
Flags: HW
HStem: 539 61<-346 -56>
VStem: -346 290<539 600>
AnchorPoint: "Stacking" -197 689 basemark 0
AnchorPoint: "Stacking" -197 538.7 mark 0
AnchorPoint: "Diacritic" -197 539 mark 0
LayerCount: 2
Fore
SplineSet
-346 600 m 1
 -56 600 l 1
 -56 539 l 1
 -346 539 l 1
 -346 600 l 1
EndSplineSet
Validated: 1
EndChar

StartChar: uni0305
Encoding: 773 773 76
Width: 0
GlyphClass: 4
Flags: HW
HStem: 539 61<-435 19>
AnchorPoint: "Stacking" -221 714 basemark 0
AnchorPoint: "Stacking" -221 537.7 mark 0
AnchorPoint: "Diacritic" -221 538 mark 0
LayerCount: 2
Fore
SplineSet
-435 600 m 1
 19 600 l 1
 19 539 l 1
 -435 539 l 1
 -435 600 l 1
EndSplineSet
Validated: 1
EndChar

StartChar: uni033F
Encoding: 831 831 77
Width: 0
GlyphClass: 4
Flags: HW
HStem: 548 61<-514 -60> 668 61<-514 -60>
AnchorPoint: "Stacking" -286 802 basemark 0
AnchorPoint: "Stacking" -286 539.7 mark 0
AnchorPoint: "Diacritic" -286 540 mark 0
LayerCount: 2
Fore
SplineSet
-514 609 m 1
 -60 609 l 1
 -60 548 l 1
 -514 548 l 1
 -514 609 l 1
-514 729 m 1
 -60 729 l 1
 -60 668 l 1
 -514 668 l 1
 -514 729 l 1
EndSplineSet
Validated: 1
EndChar

StartChar: uni2E43
Encoding: 11843 11843 78
Width: 836
Flags: HW
HStem: 180 31<593.187 789>
LayerCount: 2
Fore
SplineSet
102 328 m 0
 102 363 152 369 188 369 c 0
 208 369 233 367 247 363 c 1
 253 319 263 289 292 268 c 0
 329 240 381 231 447 224 c 0
 551 213 661 211 789 211 c 1
 831 180 l 1
 819 180 l 2
 754 180 660 174 581 174 c 0
 425 174 263 186 165 244 c 0
 133 264 113 288 104 318 c 0
 103 323 102 327 102 328 c 0
EndSplineSet
Validated: 1
EndChar

StartChar: uni203C
Encoding: 8252 8252 79
Width: 471
Flags: HW
HStem: 0 100<89 189 282 382>
VStem: 85 109<0 100 458.741 716> 278 109<0 100 458.741 716>
LayerCount: 2
Fore
SplineSet
387 557 m 1
 362 178 l 1
 305 178 l 1
 278 557 l 1
 278 716 l 1
 387 716 l 1
 387 557 l 1
194 557 m 1
 169 178 l 1
 112 178 l 1
 85 557 l 1
 85 716 l 1
 194 716 l 1
 194 557 l 1
382 0 m 1
 282 0 l 1
 282 100 l 1
 382 100 l 1
 382 0 l 1
189 0 m 1
 89 0 l 1
 89 100 l 1
 189 100 l 1
 189 0 l 1
EndSplineSet
Validated: 1
EndChar

StartChar: uni2031
Encoding: 8241 8241 80
Width: 1330
Flags: HW
HStem: -27 61<469.599 557.36 798.599 886.36 1126.23 1214.36> 289 61<467.849 557.179 797.149 886.179 1125.15 1214.18> 345 62<114.599 202.36> 662 60<112.849 202.179>
VStem: 18 72<432.545 636.249> 226 72<431.716 637.847> 373 72<60.0454 263.083> 581 72<59.2159 264.387> 702 72<60.0454 262.122> 910 72<59.2159 264.387> 1030 72<60.0454 262.122> 1238 72<59.2159 264.387>
DStem2: 157 -25 222 -25 0.362625 0.931935<23.5707 807.996>
LayerCount: 2
Fore
SplineSet
514 728 m 1x9ff0
 222 -25 l 1
 157 -25 l 1
 450 728 l 1
 514 728 l 1x9ff0
157 722 m 256
 203 722 238 706 262 674 c 0
 286 642 298 596.667 298 538 c 0
 298 409.333 251.333 345 158 345 c 0xbff0
 112 345 77.1667 361.167 53.5 393.5 c 0
 29.8333 425.833 18 473.333 18 536 c 0
 18 596 29.6667 642 53 674 c 0
 76.3333 706 111 722 157 722 c 256
160 407 m 0
 204 407 226 449.333 226 534 c 0
 226 619.333 203.333 662 158 662 c 0
 136 662 119.167 652.5 107.5 633.5 c 0
 95.8333 614.5 90 581 90 533 c 0
 90 449 113.333 407 160 407 c 0
841 350 m 256xdff0
 887 350 922 334 946 302 c 0
 970 270 982 224.667 982 166 c 0
 982 37.3333 935.333 -27 842 -27 c 0
 796 -27 761.167 -10.8333 737.5 21.5 c 0
 713.833 53.8333 702 101.333 702 164 c 0
 702 222.667 713.667 268.333 737 301 c 0
 760.333 333.667 795 350 841 350 c 256xdff0
844 34 m 0
 888 34 910 76.3333 910 161 c 0
 910 246.333 887.333 289 842 289 c 0
 820.667 289 804 279.5 792 260.5 c 0
 780 241.5 774 208 774 160 c 0
 774 76 797.333 34 844 34 c 0
512 350 m 256
 558 350 593 334 617 302 c 0
 641 270 653 224.667 653 166 c 0
 653 37.3333 606.333 -27 513 -27 c 0
 467 -27 432.167 -10.8333 408.5 21.5 c 0
 384.833 53.8333 373 101.333 373 164 c 0
 373 222.667 384.667 268.333 408 301 c 0
 431.333 333.667 466 350 512 350 c 256
515 34 m 0
 559 34 581 76.3333 581 161 c 0
 581 246.333 558.333 289 513 289 c 0
 491 289 474.167 279.5 462.5 260.5 c 0
 450.833 241.5 445 208 445 160 c 0
 445 76 468.333 34 515 34 c 0
1169 350 m 256
 1215 350 1250 334 1274 302 c 0
 1298 270 1310 224.667 1310 166 c 0
 1310 37.3333 1263.33 -27 1170 -27 c 0
 1125.33 -27 1090.83 -10.8333 1066.5 21.5 c 0
 1042.17 53.8333 1030 101.333 1030 164 c 0
 1030 222.667 1041.67 268.333 1065 301 c 0
 1088.33 333.667 1123 350 1169 350 c 256
1172 34 m 0
 1216 34 1238 76.3333 1238 161 c 0
 1238 246.333 1215.33 289 1170 289 c 0
 1148.67 289 1132 279.5 1120 260.5 c 0
 1108 241.5 1102 208 1102 160 c 0
 1102 76 1125.33 34 1172 34 c 0
EndSplineSet
Validated: 1
EndChar

StartChar: uni2032
Encoding: 8242 8242 81
Width: 222
Flags: HW
HStem: 462 254
VStem: 46 146
LayerCount: 2
Fore
SplineSet
192 716 m 1
 86 462 l 1
 46 462 l 1
 98 716 l 1
 192 716 l 1
EndSplineSet
Validated: 1
EndChar

StartChar: uni2033
Encoding: 8243 8243 82
Width: 372
Flags: HW
HStem: 462 254
VStem: 46 296
LayerCount: 2
Fore
SplineSet
342 716 m 1
 236 462 l 1
 196 462 l 1
 248 716 l 1
 342 716 l 1
192 716 m 1
 86 462 l 1
 46 462 l 1
 98 716 l 1
 192 716 l 1
EndSplineSet
Validated: 1
EndChar

StartChar: uni2034
Encoding: 8244 8244 83
Width: 522
Flags: HW
HStem: 462 254
LayerCount: 2
Fore
SplineSet
492 716 m 1
 386 462 l 1
 346 462 l 1
 398 716 l 1
 492 716 l 1
342 716 m 1
 236 462 l 1
 196 462 l 1
 248 716 l 1
 342 716 l 1
192 716 m 1
 86 462 l 1
 46 462 l 1
 98 716 l 1
 192 716 l 1
EndSplineSet
Validated: 1
EndChar

StartChar: uni2035
Encoding: 8245 8245 84
Width: 206
Flags: HW
HStem: 462 254
VStem: 30 146
LayerCount: 2
Fore
SplineSet
176 462 m 1
 136 462 l 1
 30 716 l 1
 124 716 l 1
 176 462 l 1
EndSplineSet
Validated: 1
EndChar

StartChar: uni2036
Encoding: 8246 8246 85
Width: 356
Flags: HW
HStem: 462 254
VStem: 30 296
LayerCount: 2
Fore
SplineSet
326 462 m 1
 286 462 l 1
 180 716 l 1
 274 716 l 1
 326 462 l 1
176 462 m 1
 136 462 l 1
 30 716 l 1
 124 716 l 1
 176 462 l 1
EndSplineSet
Validated: 1
EndChar

StartChar: uni2037
Encoding: 8247 8247 86
Width: 506
Flags: HW
HStem: 462 254
LayerCount: 2
Fore
SplineSet
476 462 m 1
 436 462 l 1
 330 716 l 1
 424 716 l 1
 476 462 l 1
326 462 m 1
 286 462 l 1
 180 716 l 1
 274 716 l 1
 326 462 l 1
176 462 m 1
 136 462 l 1
 30 716 l 1
 124 716 l 1
 176 462 l 1
EndSplineSet
Validated: 1
EndChar

StartChar: uni2038
Encoding: 8248 8248 87
Width: 312
Flags: HW
HStem: -23 55<107.5 204.5>
VStem: 30 252
DStem2: 30 -175 80 -175 0.452376 0.891827<22.6188 192.557> 177 32 156 -23 0.452376 -0.891827<39.5506 209.489>
LayerCount: 2
Fore
SplineSet
282 -175 m 1
 232 -175 l 1
 156 -23 l 1
 80 -175 l 1
 30 -175 l 1
 135 32 l 1
 177 32 l 1
 282 -175 l 1
EndSplineSet
Validated: 1
EndChar

StartChar: uni203D
Encoding: 8253 8253 88
Width: 556
Flags: HW
HStem: 0 100<227 327>
VStem: 46 90<508.222 569.062> 223 109<0 100 457 634 707.969 747> 244 65<176 283.694> 418 90<459.205 592.107>
DStem2: 320 380 454 401.5 0.714359 0.69978<0.846184 155.377>
LayerCount: 2
Fore
SplineSet
332 712 m 1xe8
 388.667 702.667 432.167 682 462.5 650 c 0
 492.833 618 508 579 508 533 c 0
 508 517 506.5 502 503.5 488 c 0
 500.5 474 495 460 487 446 c 0
 479 432 468 417.167 454 401.5 c 0
 440 385.833 422 368.666 400 350 c 0
 382.667 334.667 368.167 322 356.5 312 c 0
 344.833 302 335.5 291.333 328.5 280 c 0
 321.5 268.667 316.5 255 313.5 239 c 0
 310.5 223 309 202 309 176 c 1
 244 176 l 1
 244 257 l 1xd8
 223 557 l 1
 223 634 l 1
 177 614 148 569 136 499 c 1
 46 509 l 1
 52 561.667 69.8333 606 99.5 642 c 0
 129.167 678 170.333 701 223 711 c 1
 223 747 l 1
 332 747 l 1
 332 712 l 1xe8
320 380 m 1
 369 428 l 2
 385.667 444 398 459.833 406 475.5 c 0
 414 491.167 418 508.333 418 527 c 0
 418 551 410.667 573 396 593 c 0
 381.333 613 360 627.333 332 636 c 1
 332 557 l 1xe8
 320 380 l 1
327 0 m 1
 227 0 l 1
 227 100 l 1
 327 100 l 1
 327 0 l 1
EndSplineSet
Validated: 1
EndChar

StartChar: uni203E
Encoding: 8254 8254 89
Width: 500
Flags: HW
HStem: 740 50<-6 506>
LayerCount: 2
Fore
SplineSet
506 740 m 1
 -6 740 l 1
 -6 790 l 1
 506 790 l 1
 506 740 l 1
EndSplineSet
Validated: 1
EndChar

StartChar: uni203F
Encoding: 8255 8255 90
Width: 945
Flags: HW
HStem: -203 50<292.867 650.357> -49 53<3 56 888 941>
LayerCount: 2
Fore
SplineSet
941 -49 m 1
 911.667 -71.6667 878.667 -92.5 842 -111.5 c 0
 805.333 -130.5 766.667 -146.667 726 -160 c 0
 685.333 -173.333 643.5 -183.833 600.5 -191.5 c 0
 557.5 -199.167 514.667 -203 472 -203 c 256
 429.333 -203 386.333 -199.167 343 -191.5 c 0
 299.667 -183.833 257.833 -173.333 217.5 -160 c 0
 177.167 -146.667 138.667 -130.5 102 -111.5 c 0
 65.3333 -92.5 32.3333 -71.6667 3 -49 c 1
 3 4 l 1
 32.3333 -19.3333 65.1667 -40.5 101.5 -59.5 c 0
 137.833 -78.5 176.333 -95 217 -109 c 0
 257.667 -123 299.667 -133.833 343 -141.5 c 0
 386.333 -149.167 429.333 -153 472 -153 c 256
 514.667 -153 557.5 -149.167 600.5 -141.5 c 0
 643.5 -133.833 685.333 -123 726 -109 c 0
 766.668 -95 805.335 -78.5 842 -59.5 c 0
 878.667 -40.5 911.667 -19.3333 941 4 c 1
 941 -49 l 1
EndSplineSet
Validated: 1
EndChar

StartChar: uni2040
Encoding: 8256 8256 91
Width: 945
Flags: HW
HStem: 578 53<3 56 888 941> 735 50<292.867 650.357>
LayerCount: 2
Fore
SplineSet
941 578 m 1
 911.667 600.667 878.667 621.667 842 641 c 0
 805.333 660.333 766.667 677 726 691 c 0
 685.333 705 643.5 715.833 600.5 723.5 c 0
 557.5 731.167 514.667 735 472 735 c 256
 429.333 735 386.333 731.167 343 723.5 c 0
 299.667 715.833 257.667 705 217 691 c 0
 176.333 677 137.833 660.333 101.5 641 c 0
 65.1667 621.667 32.3333 600.667 3 578 c 1
 3 631 l 1
 32.3333 653.667 65.3333 674.5 102 693.5 c 0
 138.667 712.5 177.167 728.667 217.5 742 c 0
 257.834 755.333 299.667 765.833 343 773.5 c 0
 386.333 781.167 429.333 785 472 785 c 256
 514.667 785 557.5 781.167 600.5 773.5 c 0
 643.5 765.833 685.333 755.167 726 741.5 c 0
 766.668 727.833 805.335 711.667 842 693 c 0
 878.667 674.333 911.667 653.667 941 631 c 1
 941 578 l 1
EndSplineSet
Validated: 1
EndChar

StartChar: uni2041
Encoding: 8257 8257 92
Width: 312
Flags: HW
HStem: -175 321
VStem: 30 252
DStem2: 30 -175 80 -175 0.45276 0.891632<22.638 192.576> 177 32 156 -23 0.452376 -0.891827<39.5506 209.489>
LayerCount: 2
Fore
SplineSet
282 -175 m 1
 232 -175 l 1
 156 -23 l 1
 80 -175 l 1
 30 -175 l 1
 193 146 l 1
 235 146 l 1
 177 32 l 1
 282 -175 l 1
EndSplineSet
Validated: 1
EndChar

StartChar: uni2042
Encoding: 8258 8258 93
Width: 820
Flags: HW
HStem: -3 21G<101.857 133.667 255.333 288.095 531.857 563.667 685.331 718.095>
VStem: 159 70<181.341 302> 375 70<607.31 728> 589 70<181.341 302>
LayerCount: 2
Fore
SplineSet
572 584 m 1
 532.666 572 492 563 450 557 c 1
 457.334 550.333 468.167 539.333 482.5 524 c 0
 496.834 508.667 514.334 489 535 465 c 1
 476 423 l 1
 466.667 435.667 456.333 450.667 445 468 c 0
 433.667 485.333 421.667 505.333 409 528 c 1
 397.667 505.333 386.5 485.333 375.5 468 c 0
 364.5 450.667 354.333 435.667 345 423 c 1
 288 465 l 1
 335.333 522.333 362.333 553 369 557 c 1
 321.667 565.667 281.667 574.667 249 584 c 1
 272 654 l 1
 332 632 369.667 616 385 606 c 1
 381.667 634 379.167 658.167 377.5 678.5 c 0
 375.833 698.833 375 715.333 375 728 c 1
 445 728 l 1
 445 697.333 442 660.667 436 618 c 1
 434.667 615.333 434 611.667 434 607 c 1
 449.333 614.333 466.5 622 485.5 630 c 0
 504.5 638 525.667 646 549 654 c 1
 572 584 l 1
786 158 m 1
 746.667 146 706 137 664 131 c 1
 671.333 124.333 682.167 113.333 696.5 98 c 0
 710.833 82.6667 728.333 63 749 39 c 1
 690 -3 l 1
 680.661 9.66667 670.328 24.6667 659 42 c 0
 647.667 59.3333 635.667 79.3333 623 102 c 1
 611 79.3333 599.667 59.3333 589 42 c 0
 578.333 24.6667 568.333 9.66667 559 -3 c 1
 502 39 l 1
 549.333 96.3333 576.333 127 583 131 c 1
 535.666 139.667 495.666 148.667 463 158 c 1
 486 228 l 1
 546 206 583.667 190 599 180 c 1
 595.667 208.667 593.167 233 591.5 253 c 0
 589.833 273 589 289.333 589 302 c 1
 659 302 l 1
 659 271.333 656 234.667 650 192 c 1
 648.667 189.333 648 185.667 648 181 c 1
 663.333 188.333 680.5 196 699.5 204 c 0
 718.5 212 739.667 220 763 228 c 1
 786 158 l 1
356 158 m 1
 316.667 146 276 137 234 131 c 1
 241.333 124.333 252.167 113.333 266.5 98 c 0
 280.833 82.6667 298.333 63 319 39 c 1
 260 -3 l 1
 250.666 9.66667 240.333 24.6667 229 42 c 0
 217.667 59.3333 205.667 79.3333 193 102 c 1
 181 79.3333 169.667 59.3333 159 42 c 0
 148.333 24.6667 138.333 9.66667 129 -3 c 1
 72 39 l 1
 120.667 97 147.667 127.667 153 131 c 1
 105.667 139.667 65.6667 148.667 33 158 c 1
 56 228 l 1
 116 206 153.667 190 169 180 c 1
 165.667 208.667 163.167 233 161.5 253 c 0
 159.833 273 159 289.333 159 302 c 1
 229 302 l 1
 229 271.333 226 234.667 220 192 c 1
 218.667 189.333 218 185.667 218 181 c 1
 233.333 188.333 250.5 196 269.5 204 c 0
 288.5 212 309.667 220 333 228 c 1
 356 158 l 1
EndSplineSet
Validated: 1
EndChar

StartChar: uni2043
Encoding: 8259 8259 94
Width: 333
Flags: HW
HStem: 185 148<32 301>
VStem: 32 269<185 333>
LayerCount: 2
Fore
SplineSet
301 185 m 1
 32 185 l 1
 32 333 l 1
 301 333 l 1
 301 185 l 1
EndSplineSet
Validated: 1
EndChar

StartChar: uni2045
Encoding: 8261 8261 95
Width: 278
Flags: HW
HStem: -199 73<156 262> 236 43<156 262> 643 73<156 262>
VStem: 68 194<-199 -126 236 279 643 716> 68 88<-126 236 279 643>
LayerCount: 2
Fore
SplineSet
262 -199 m 1xf0
 68 -199 l 1
 68 716 l 1
 262 716 l 1
 262 643 l 1xf0
 156 643 l 1
 156 279 l 1xe8
 262 279 l 1
 262 236 l 1xf0
 156 236 l 1
 156 -126 l 1xe8
 262 -126 l 1
 262 -199 l 1xf0
EndSplineSet
Validated: 1
EndChar

StartChar: uni2046
Encoding: 8262 8262 96
Width: 278
Flags: HW
HStem: -199 73<16 122> 236 43<16 122> 643 73<16 122>
VStem: 16 194<-199 -126 236 279 643 716> 122 88<-126 236 279 643>
LayerCount: 2
Fore
SplineSet
210 -199 m 1xf0
 16 -199 l 1
 16 -126 l 1xf0
 122 -126 l 1
 122 236 l 1xe8
 16 236 l 1
 16 279 l 1xf0
 122 279 l 1
 122 643 l 1xe8
 16 643 l 1
 16 716 l 1
 210 716 l 1
 210 -199 l 1xf0
EndSplineSet
Validated: 1
EndChar

StartChar: uni201B
Encoding: 8219 8219 97
Width: 222
Flags: HW
HStem: 614 102<112 158>
VStem: 64 94<614.062 716> 64 48<540.562 614>
LayerCount: 2
Fore
SplineSet
166 516 m 1xa0
 144 482 l 1
 124.667 492 109.667 502.5 99 513.5 c 0
 88.3333 524.5 80.5 536.333 75.5 549 c 0
 70.5 561.667 67.3333 575.167 66 589.5 c 0
 64.6667 603.833 64 619.333 64 636 c 2
 64 716 l 1
 158 716 l 1
 158 614 l 1xc0
 112 614 l 1
 112.667 564 130.667 531.333 166 516 c 1xa0
EndSplineSet
Validated: 1
EndChar

StartChar: uni2023
Encoding: 8227 8227 98
Width: 350
Flags: HW
HStem: 197 307
VStem: 52 269
LayerCount: 2
Fore
SplineSet
321 350 m 1
 52 197 l 1
 52 504 l 1
 321 350 l 1
EndSplineSet
Validated: 1
EndChar

StartChar: uni2024
Encoding: 8228 8228 99
Width: 278
Flags: HW
HStem: 0 100<89 189>
VStem: 89 100<0 100>
LayerCount: 2
Fore
SplineSet
189 0 m 1
 89 0 l 1
 89 100 l 1
 189 100 l 1
 189 0 l 1
EndSplineSet
Validated: 1
EndChar

StartChar: uni2025
Encoding: 8229 8229 100
Width: 556
Flags: HW
HStem: 0 100<89 189 367 467>
VStem: 89 100<0 100> 367 100<0 100>
LayerCount: 2
Fore
SplineSet
467 0 m 1
 367 0 l 1
 367 100 l 1
 467 100 l 1
 467 0 l 1
189 0 m 1
 89 0 l 1
 89 100 l 1
 189 100 l 1
 189 0 l 1
EndSplineSet
Validated: 1
EndChar

StartChar: uni2010
Encoding: 8208 8208 101
Width: 31
Flags: HW
HStem: 211 88<-132 137>
VStem: -132 269<211 299>
LayerCount: 2
Fore
SplineSet
137 211 m 1
 -132 211 l 1
 -132 299 l 1
 137 299 l 1
 137 211 l 1
EndSplineSet
Validated: 1
EndChar

StartChar: uni2011
Encoding: 8209 8209 102
Width: 333
Flags: HW
HStem: 215 88<32 301>
VStem: 32 269<215 303>
LayerCount: 2
Fore
SplineSet
301 215 m 1
 32 215 l 1
 32 303 l 1
 301 303 l 1
 301 215 l 1
EndSplineSet
Validated: 1
EndChar

StartChar: uni2012
Encoding: 8210 8210 103
Width: 31
Flags: HW
HStem: 221 72<-278 290>
LayerCount: 2
Fore
SplineSet
290 221 m 1
 -278 221 l 1
 -278 293 l 1
 290 293 l 1
 290 221 l 1
EndSplineSet
Validated: 1
EndChar

StartChar: uni2015
Encoding: 8213 8213 104
Width: 564
Flags: HW
HStem: 223 72<26 538>
LayerCount: 2
Fore
SplineSet
538 223 m 1
 26 223 l 1
 26 295 l 1
 538 295 l 1
 538 223 l 1
EndSplineSet
Validated: 1
EndChar

StartChar: uni2016
Encoding: 8214 8214 105
Width: 31
Flags: HW
VStem: -122 76<-84 717> 46 76<-84 717>
LayerCount: 2
Fore
SplineSet
122 -84 m 1
 46 -84 l 1
 46 717 l 1
 122 717 l 1
 122 -84 l 1
-46 -84 m 1
 -122 -84 l 1
 -122 717 l 1
 -46 717 l 1
 -46 -84 l 1
EndSplineSet
Validated: 1
EndChar

StartChar: uni2017
Encoding: 8215 8215 106
Width: 500
Flags: HW
HStem: -165 50<-6 506> -85 50<-6 506>
LayerCount: 2
Fore
SplineSet
506 -85 m 1
 -6 -85 l 1
 -6 -35 l 1
 506 -35 l 1
 506 -85 l 1
506 -165 m 1
 -6 -165 l 1
 -6 -115 l 1
 506 -115 l 1
 506 -165 l 1
EndSplineSet
Validated: 1
EndChar

StartChar: uniA644
Encoding: 42564 42564 107
Width: 572
Flags: HW
HStem: -21 68<243.943 343.849> 155 44<318 354.078> 419 45<202.828 243> 553 70<217.724 343.28>
VStem: 43 159<433.734 536.452> 85 129<76.4272 213.057> 359 141<62.2747 149.735> 369 160<391.898 525.93>
AnchorPoint: "Double" 570 748 basechar 0
AnchorPoint: "Diacritic" 268 751 basechar 0
LayerCount: 2
Fore
SplineSet
271 623 m 0xf9
 416 623 529 583 529 450 c 0xf9
 529 362 456 299 310 261 c 1
 273 248 248 231 235 212 c 0
 221 193 214 170 214 145 c 0
 214 95 242 47 291 47 c 0
 330 47 359 70 359 109 c 0
 359 137 345 152 318 155 c 1
 318 199 l 1
 482 199 l 1
 492 187 500 168 500 148 c 0
 500 28 414 -21 286 -21 c 0
 157 -21 85 37 85 154 c 0xf6
 85 227 125 278 205 308 c 0
 260 329 305 348 338 381 c 0
 358 401 369 423 369 459 c 0
 369 516 341 553 286 553 c 0
 241 553 202 536 202 493 c 0
 202 475 216 464 243 464 c 1
 243 419 l 1
 45 419 l 1
 45 429 43 438 43 448 c 0
 43 565 119 623 271 623 c 0xf9
EndSplineSet
Validated: 1
EndChar

StartChar: uniA640
Encoding: 42560 42560 108
Width: 757
Flags: HW
HStem: 543 67<267.605 523.5>
VStem: 580.5 136<-297.58 -135.913>
DStem2: 218.5 46 417.5 84 0.528727 0.848792<137.471 565.287>
AnchorPoint: "Double" 757 748 basechar 0
AnchorPoint: "Diacritic" 408.5 751 basechar 0
LayerCount: 2
Fore
SplineSet
344 543 m 2
 266 543 220 494 212 425 c 1
 156 425 l 1
 40 564 l 1
 40 610 l 1
 716 610 l 1
 716 564 l 1
 418 84 l 1
 548 73 646 7 692 -88 c 0
 708 -121 716 -156 716 -193 c 0
 716 -240 702 -289 674 -340 c 1
 648 -392 602 -444 538 -497 c 1
 490 -497 l 1
 502 -484 l 1
 534 -441 558 -377 572 -314 c 0
 578 -289 580 -265 580 -240 c 0
 580 -115 510 -53 410 -20 c 1
 366 -7 312 0 248 0 c 2
 218 0 l 1
 218 46 l 1
 524 522 l 1
 524 524 l 2
 524 542 468 543 432 543 c 2
 344 543 l 2
EndSplineSet
Validated: 1
EndChar

StartChar: uniA646
Encoding: 42566 42566 109
Width: 426
Flags: HW
HStem: -7 147<153 281> 564 46<43.5 83.2998 233.21 273.5>
VStem: 88.5 140<143.663 558.299>
AnchorPoint: "Double" 425 748 basechar 0
AnchorPoint: "Diacritic" 162.5 751 basechar 0
LayerCount: 2
Fore
SplineSet
184 -7 m 0
 122 -7 88 34 88 98 c 2
 88 521 l 2
 88 547 70 564 44 564 c 1
 44 610 l 1
 274 610 l 1
 274 564 l 1
 248 564 228 548 228 522 c 2
 228 182 l 2
 228 156 244 140 268 140 c 0
 294 140 320 158 336 170 c 0
 352 182 372 201 382 216 c 1
 382 150 l 1
 346 92 302 35 240 6 c 0
 222 -3 204 -7 184 -7 c 0
EndSplineSet
Validated: 1
EndChar

StartChar: uniA664
Encoding: 42596 42596 110
Width: 848
Flags: HW
HStem: 0 46<181.074 217.223 470.223 508.635> 544 66<448.223 615.364> 564 46<234.223 273.765>
VStem: 44.2227 131<50.4318 145.027> 515.223 198<21.5 121.173>
AnchorPoint: "Double" 848.999 748 basechar 0
AnchorPoint: "Diacritic" 363.223 751 basechar 0
LayerCount: 2
Fore
SplineSet
175 100 m 0xd8
 175 68 187 46 217 46 c 1
 217 0 l 1
 44 0 l 1
 43 4 44 8 44 12 c 2
 44 25 l 2
 44 106 74 177 104 234 c 0
 136 295 179 356 216 410 c 0
 233 435 248 458 259 478 c 0
 270 499 276 516 276 529 c 0
 276 553 258 561 234 564 c 1
 234 610 l 1
 804 610 l 1
 804 564 l 1xb8
 711 467 l 1
 660 467 l 1
 641 499 625 521 595 534 c 0
 574 543 553 544 525 544 c 2
 448 544 l 1
 529 413 626 275 688 130 c 1
 704 89 713 55 713 26 c 0
 713 17 712 8 710 0 c 1
 470 0 l 1
 470 46 l 1
 501 46 515 68 515 100 c 0
 515 122 509 148 498 179 c 0
 458 282 392 384 331 467 c 1
 283 388 226 283 193 188 c 0
 181 153 175 124 175 100 c 0xd8
EndSplineSet
Validated: 1
EndChar

StartChar: uniA666
Encoding: 42598 42598 111
Width: 1376
Flags: HW
HStem: -14 139<505.446 634.754> 0 46<37.5 82.8214 268.625 307.5 828.5 869.418 1053.84 1097.5> 544 66<992.122 1149.64> 564 46<112.5 143.508 392.914 418.5 719.5 743.496>
DStem2: 138.5 279 269.5 254 0.137905 0.990445<-129.535 180.398> 1005.5 279 867.5 252 0.164297 -0.986411<-185.593 127.746>
AnchorPoint: "Double" 1376 748 basechar 0
AnchorPoint: "Diacritic" 556.5 751 basechar 0
LayerCount: 2
Fore
SplineSet
258 130 m 0x80
 258 82 266 46 308 46 c 1
 308 0 l 1
 38 0 l 1
 38 46 l 1x40
 78 46 96 83 108 118 c 0
 124 163 132 223 138 279 c 256
 146 334 156 403 156 463 c 256
 156 508 152 559 116 564 c 1
 112 564 l 1
 112 610 l 1
 418 610 l 1
 418 564 l 1
 394 564 390 539 390 514 c 2
 390 485 l 2
 390 357 426 229 488 162 c 0
 512 137 538 125 570 125 c 0
 602 125 630 138 654 164 c 0
 716 235 746 367 746 497 c 2
 746 522 l 2
 746 544 740 564 720 564 c 1
 720 610 l 1
 1338 610 l 1
 1338 564 l 1x90
 1246 467 l 1
 1194 467 l 1
 1176 499 1160 521 1130 534 c 0
 1108 543 1088 544 1060 544 c 2
 1002 544 l 1
 988 525 984 492 984 459 c 0
 984 399 996 332 1006 279 c 0
 1014 226 1020 166 1032 118 c 1
 1042 83 1056 46 1098 46 c 1
 1098 0 l 1
 828 0 l 1
 828 46 l 1x60
 872 46 880 79 880 127 c 0
 880 159 876 201 868 252 c 0
 860 303 852 366 842 440 c 1
 820 440 l 1
 810 361 800 292 788 235 c 0
 766 138 736 53 670 12 c 0
 644 -5 610 -14 570 -14 c 256
 478 -14 430 29 398 94 c 0
 378 132 362 178 350 236 c 0
 338 292 328 360 320 439 c 1
 298 439 l 1
 286 366 276 305 270 254 c 0
 262 203 258 162 258 130 c 0x80
EndSplineSet
Validated: 1
EndChar

StartChar: uni04A4
Encoding: 1188 1188 112
Width: 1085
Flags: HW
HStem: 0 46<45.5 87.8611 232.977 275.5 482.5 524.861 669.641 713.5> 544 66<667.5 851.139> 564 46<45.5 86.8925 233.214 275.5 482.5 523.893>
VStem: 90.5 140<50.5879 415 483 558.351> 527.5 140<50.5879 170 262 543.725>
AnchorPoint: "Double" 1084.5 752 basechar 0
AnchorPoint: "Diacritic" 591.5 751 basechar 0
LayerCount: 2
Fore
SplineSet
528 528 m 2xb8
 528 550 504 564 482 564 c 1
 482 610 l 1
 1040 610 l 1
 1040 564 l 1xb8
 944 467 l 1
 898 467 l 1
 876 518 830 544 758 544 c 1
 668 544 l 1xd8
 668 78 l 1
 670 54 688 46 714 46 c 1
 714 0 l 1
 482 0 l 1
 482 46 l 1
 504 46 526 57 528 78 c 1
 528 170 l 1
 230 415 l 1
 230 78 l 1
 232 55 252 46 276 46 c 1
 276 0 l 1
 46 0 l 1
 46 46 l 1
 68 46 90 57 90 78 c 1
 90 528 l 2
 90 550 66 564 46 564 c 1
 46 610 l 1
 276 610 l 1
 276 564 l 1
 250 563 230 553 230 528 c 2
 230 483 l 1
 528 262 l 1
 528 528 l 2xb8
EndSplineSet
Validated: 1
EndChar

StartChar: uniA650
Encoding: 42576 42576 113
Width: 1214
Flags: HW
HStem: 0 67<386 669.993> 0 46<197 235.996 939 981.732 1126.55 1169> 256 65<455 523.06> 545 65<211.46 381> 564 46<520.383 569 939 981.062 1127.87 1169>
VStem: 670 148<39 137.239> 984 140<50.5879 559.351>
DStem2: 270 129 440 256 0.265453 0.964124<-28.031 169.501 234.221 430.541>
AnchorPoint: "Double" 1214 752 basechar 0
AnchorPoint: "Diacritic" 1055 751 basechar 0
LayerCount: 2
Fore
SplineSet
939 46 m 1x6e
 961 46 984 57 984 78 c 2
 984 528 l 2
 984 552 962 564 939 564 c 1
 939 610 l 1
 1169 610 l 1
 1169 564 l 1
 1140 563 1128 553 1124 528 c 1
 1124 78 l 1
 1126 56 1146 46 1169 46 c 1
 1169 0 l 1
 939 0 l 1
 939 46 l 1x6e
292 545 m 2x76
 230 545 184 518 173 468 c 1
 123 468 l 1
 45 564 l 1
 45 610 l 1
 569 610 l 1
 569 564 l 1x2e
 541 564 525 555 517 536 c 0
 515 530 513 526 511 521 c 2
 455 321 l 1
 537 305 615 276 681 240 c 0
 730 213 773 178 800 131 c 0
 812 109 818 85 818 59 c 0
 818 19 791 0 749 0 c 2
 197 0 l 1
 197 48 l 1
 209 48 222 54 236 68 c 1
 250 80 261 101 270 129 c 1
 381 545 l 1
 292 545 l 2x76
639 67 m 2xa6
 661 67 670 72 670 88 c 0
 668 127 640 160 614 183 c 0
 572 219 512 245 440 256 c 1
 386 67 l 1
 639 67 l 2xa6
EndSplineSet
Validated: 1
EndChar

StartChar: uniA64A
Encoding: 42570 42570 114
Width: 625
Flags: HW
HStem: -22 88<253.478 372.709> 637 94<52 163.124 459.682 585>
VStem: -19 121<583.431 634.887> 76 137<109.128 310.888> 412 142<109.332 311.216> 526 118<586.994 669.297>
AnchorPoint: "Double" 624.5 799 basechar 0
AnchorPoint: "Diacritic" 320 799 basechar 0
LayerCount: 2
Fore
SplineSet
559 731 m 0xe0
 611 731 644 704 644 651 c 0
 644 608 614 563 555 515 c 1
 523 555 l 1
 525 568 526 579 526 589 c 0xe4
 526 622 513 638 486 638 c 0
 465 638 444 631 421 616 c 0
 399 601 378 583 357 560 c 1
 488 427 554 309 554 204 c 0
 554 55 462 -22 313 -22 c 1
 202 -20 126 25 93 106 c 0
 82 133 76 165 76 202 c 0xd8
 76 307 141 426 271 560 c 1
 246 589 211 615 173 630 c 0
 160 635 148 637 136 637 c 0
 113 637 102 620 102 585 c 2
 102 570 l 2
 102 566 103 560 104 555 c 1
 74 515 l 1
 38 534 7 568 -10 606 c 0
 -16 620 -19 634 -19 649 c 0
 -19 704 22 731 82 731 c 0
 145 731 222 685 313 594 c 1
 353 640 394 674 435 697 c 0
 476 720 518 731 559 731 c 0xe0
315 66 m 0
 386 66 412 129 412 209 c 0
 412 284 379 380 313 497 c 1
 246 378 213 280 213 204 c 0xd8
 213 124 242 66 315 66 c 0
EndSplineSet
Validated: 1
EndChar

StartChar: uniA656
Encoding: 42582 42582 115
Width: 1183
Flags: HW
HStem: -30 125<452.5 562.314> 0 46<46.5 89.2324 233.343 276.5 856.5 900.401 1084.36 1136.5> 380 66<231.5 562.5> 564 46<46.5 88.5616 235.368 276.5 625.5 659.442>
VStem: 91.5 140<50.5879 380 446 559.201> 391.5 127<28 154.45>
DStem2: 813.5 610 715.5 476 0.445212 -0.895425<76.3563 287.442 354.533 515.936>
AnchorPoint: "Double" 1183 752 basechar 0
AnchorPoint: "Diacritic" 713.5 751 basechar 0
LayerCount: 2
Fore
SplineSet
810 287 m 1xbc
 716 476 l 1
 646 381 596 306 566 250 c 0
 534 194 518 153 518 128 c 0
 518 106 528 95 548 95 c 0
 564 95 582 100 602 110 c 0
 684 148 752 219 808 286 c 1
 810 287 l 1xbc
46 46 m 1x7c
 68 46 92 57 92 78 c 2
 92 528 l 2
 92 552 70 564 46 564 c 1
 46 610 l 1
 276 610 l 1
 276 564 l 1
 248 564 236 553 232 528 c 1
 232 446 l 1
 616 446 l 1
 646 485 660 514 660 534 c 0
 660 552 648 564 626 564 c 1
 626 610 l 1
 814 610 l 1
 1080 73 l 1
 1092 55 1110 46 1136 46 c 1
 1136 0 l 1
 856 0 l 1
 856 46 l 1x7c
 886 46 902 56 902 77 c 0
 902 89 898 100 894 109 c 2
 836 225 l 1
 788 166 722 100 660 54 c 1
 630 29 598 9 566 -6 c 0
 536 -22 506 -30 480 -30 c 0xbc
 424 -30 392 1 392 55 c 0
 392 112 412 154 434 197 c 1
 470 261 514 318 562 380 c 1
 232 380 l 1
 232 78 l 2
 232 56 254 46 276 46 c 1
 276 0 l 1
 46 0 l 1
 46 46 l 1x7c
EndSplineSet
Validated: 1
EndChar

StartChar: uniA652
Encoding: 42578 42578 116
Width: 970
Flags: HW
HStem: 0 66<525 772.763> 0 46<45 88.1569 232.268 275 340 381.625> 275 65<525 611.37> 455 66<253.493 385 525 723.494> 475 46<45 86.1324> 655 46<340 381.625 530.713 570>
VStem: 90 140<50.5879 431.857> 385 140<66.6032 275 336.485 455 521 648.874> 773 152<36.5 137.046>
AnchorPoint: "Double" 971 748 basechar 0
AnchorPoint: "Diacritic" 456 811 basechar 0
LayerCount: 2
Fore
SplineSet
525 66 m 1xa780
 736 66 l 2
 760 66 773 74 773 92 c 1
 766 137 739 173 707 200 c 0
 662 238 601 264 525 275 c 1
 525 66 l 1xa780
340 46 m 1x7780
 366 46 385 58 385 85 c 2
 385 455 l 1
 370 455 l 2x7780
 320 455 284 450 263 439 c 0
 241 428 230 408 230 378 c 2
 230 78 l 2
 230 57 253 46 275 46 c 1
 275 0 l 1
 45 0 l 1
 45 46 l 1
 68 46 90 56 90 78 c 2
 90 439 l 1
 86 464 74 475 45 475 c 1
 45 521 l 1x6f80
 385 521 l 1
 385 616 l 2
 385 642 366 655 340 655 c 1
 340 701 l 1
 570 701 l 1
 570 655 l 1
 544 655 525 636 525 613 c 2
 525 521 l 1x3780
 915 521 l 1
 915 475 l 1x2f80
 820 378 l 1
 773 378 l 1
 748 419 717 452 661 452 c 0
 649 452 640 454 632 455 c 1
 525 455 l 1
 525 340 l 1
 659 316 785 271 863 190 c 0
 897 156 925 112 925 52 c 0
 925 21 911 0 877 0 c 2
 340 0 l 1
 340 46 l 1x7780
EndSplineSet
Validated: 1
EndChar

StartChar: uniA658
Encoding: 42584 42584 117
Width: 970
Flags: HW
HStem: 0 66<185 719> 225 66<311 592> 564 46<329 374.625>
AnchorPoint: "Double" 971 748 basechar 0
AnchorPoint: "Diacritic" 417 751 basechar 0
LayerCount: 2
Fore
SplineSet
311 291 m 1
 592 291 l 1
 579 304 559 327 534 359 c 0
 508 391 475 433 435 485 c 1
 399 416 352 352 311 291 c 1
377 529 m 0
 377 554 357 564 329 564 c 1
 329 610 l 1
 532 610 l 1
 541 581 558 550 581 517 c 0
 631 446 692 373 750 305 c 0
 806 240 863 169 901 93 c 0
 918 60 926 29 926 0 c 1
 45 0 l 1
 45 3 44 5 44 8 c 0
 44 31 52 57 68 86 c 0
 143 223 271 336 352 465 c 0
 369 491 377 512 377 529 c 0
719 66 m 1
 719 67 l 1
 712 97 692 133 677 159 c 0
 664 181 646 212 631 225 c 1
 270 225 l 1
 243 190 215 147 196 104 c 0
 191 91 187 78 185 67 c 1
 185 66 l 1
 719 66 l 1
EndSplineSet
Validated: 1
EndChar

StartChar: uniA645
Encoding: 42565 42565 118
Width: 451
Flags: HW
HStem: -16 59<190.877 297.917> 107 46<271 306.991> 280 46<176.009 213> 384 60<179.85 268.406>
VStem: 43 133<302.5 378.871> 86 94<54.2762 155.864> 279 129<268.952 375.589> 307 94<53.5008 125>
AnchorPoint: "Double" 452 563 basechar 0
AnchorPoint: "Diacritic" 228 563 basechar 0
LayerCount: 2
Fore
SplineSet
230 444 m 0xfa
 331 444 408 410 408 316 c 0xfa
 408 255 358 212 258 186 c 1
 216 172 180 151 180 103 c 0
 180 68 199 47 230 43 c 1
 268 43 307 53 307 87 c 0
 307 99 295 107 271 107 c 1
 271 153 l 1
 392 153 l 1
 398 145 401 133 401 117 c 0
 401 23 330 -16 233 -16 c 0
 146 -16 86 28 86 115 c 0xf5
 86 160 114 194 171 216 c 0
 243 244 279 278 279 319 c 0
 279 362 264 384 223 384 c 0
 198 384 176 372 176 347 c 0
 176 334 188 327 213 326 c 1
 213 280 l 1
 48 280 l 1
 45 290 43 299 43 306 c 0
 43 405 131 444 230 444 c 0xfa
EndSplineSet
Validated: 1
EndChar

StartChar: uniA641
Encoding: 42561 42561 119
Width: 598
Flags: HW
HStem: 375 58<216.251 372.462>
VStem: 442.5 110<-233.295 -106.343>
DStem2: 157.5 46 325.5 66 0.55769 0.83005<110.293 385.519>
AnchorPoint: "Double" 600 563 basechar 0
AnchorPoint: "Diacritic" 297.5 563 basechar 0
LayerCount: 2
Fore
SplineSet
306 375 m 0
 236 375 186 350 172 293 c 1
 132 293 l 1
 46 387 l 1
 46 433 l 1
 534 433 l 1
 534 387 l 1
 326 66 l 1
 420 66 494 12 532 -53 c 0
 546 -78 552 -106 552 -138 c 0
 552 -174 542 -214 520 -258 c 0
 500 -301 462 -349 410 -402 c 1
 372 -402 l 1
 380 -393 l 1
 410 -346 442 -273 442 -198 c 0
 442 -93 380 -42 294 -16 c 1
 258 -6 212 0 158 0 c 1
 158 46 l 1
 372 366 l 1
 372 372 320 375 306 375 c 0
EndSplineSet
Validated: 1
EndChar

StartChar: uniA647
Encoding: 42567 42567 120
Width: 371
Flags: HW
HStem: -15 120<136 246> 386 47<45 84.6564 215.39 255>
VStem: 85 130<105.006 383.128>
AnchorPoint: "Double" 374 563 basechar 0
AnchorPoint: "Diacritic" 147 563 basechar 0
LayerCount: 2
Fore
SplineSet
160 -15 m 0
 112 -15 85 18 85 69 c 2
 85 360 l 2
 85 377 72 386 45 386 c 1
 45 433 l 1
 255 433 l 1
 255 386 l 1
 237 386 215 378 215 360 c 2
 215 129 l 2
 215 113 222 105 236 105 c 0
 256 105 275 118 288 128 c 0
 302 138 317 152 326 163 c 1
 326 102 l 1
 299 54 256 13 203 -6 c 0
 188 -12 173 -15 160 -15 c 0
EndSplineSet
Validated: 1
EndChar

StartChar: uniA665
Encoding: 42597 42597 121
Width: 699
Flags: HW
HStem: 0 46<160.817 193.723 347.723 382.66> 377 56<374.723 511.42> 387 46<184.723 217.715>
VStem: 42.7227 116<47.6994 118.82> 385.723 178<15.5 96.7137>
AnchorPoint: "Double" 705 562.5 basechar 0
AnchorPoint: "Diacritic" 393.723 563 basechar 0
LayerCount: 2
Fore
SplineSet
43 0 m 1xd8
 42 8 43 14 43 23 c 0
 43 79 66 128 88 166 c 0
 123 225 170 277 205 331 c 0
 214 344 218 356 218 365 c 0
 218 378 207 387 185 387 c 1
 185 433 l 1
 657 433 l 1
 657 387 l 1xb8
 584 307 l 1
 544 307 l 1
 530 336 515 359 490 370 c 0
 476 376 465 375 448 377 c 1
 375 377 l 1
 431 285 502 190 546 90 c 0
 558 62 564 38 564 18 c 0
 564 13 563 7 562 0 c 1
 348 0 l 1
 348 46 l 1
 373 46 386 61 386 86 c 0
 386 101 382 120 374 140 c 0
 347 208 303 276 264 332 c 1
 233 279 194 208 172 144 c 1
 163 121 159 101 159 84 c 0
 159 60 170 46 194 46 c 1
 194 0 l 1
 43 0 l 1xd8
EndSplineSet
Validated: 1
EndChar

StartChar: uniA667
Encoding: 42599 42599 122
Width: 1076
Flags: HW
HStem: -10 116<375.555 489.793> 0 46<33 72.1635 217.616 258 607 650.672 795.759 836> 307 126<238.05 259.624 918.482 970> 377 56<747.296 898.001> 387 46<74 111.061 310.293 330 535 554.043>
VStem: 555 189<315.297 376.526>
DStem2: 94 139 220 190 0.144799 0.989461<-13.7419 186.678>
AnchorPoint: "Double" 1076 562.5 basechar 0
AnchorPoint: "Diacritic" 653 563 basechar 0
LayerCount: 2
Fore
SplineSet
211 107 m 0x84
 211 68 221 46 258 46 c 1
 258 0 l 1
 33 0 l 1
 33 46 l 1x44
 77 46 88 98 94 139 c 0
 100 179 107 223 113 264 c 0
 116 287 118 307 118 325 c 256
 118 359 109 387 76 387 c 2
 74 387 l 1
 74 433 l 1
 330 433 l 1
 330 387 l 1
 313 387 309 368 309 350 c 2
 309 330 l 2
 309 246 332 169 375 128 c 0
 391 113 410 106 433 106 c 0
 484 106 512 144 528 181 c 0
 544 219 554 273 554 324 c 0
 554 332 555 341 555 350 c 0
 555 369 552 387 535 387 c 1
 535 433 l 1
 1043 433 l 1
 1043 387 l 1x8c
 970 307 l 1
 930 307 l 1x24
 916 336 901 359 877 370 c 0
 862 376 851 375 834 377 c 1
 759 377 l 1
 749 367 744 350 744 327 c 0
 744 286 758 238 764 199 c 0
 772 148 775 87 803 58 c 0
 811 50 822 46 836 46 c 1
 836 0 l 1
 607 0 l 1
 607 46 l 1x54
 645 46 657 65 657 103 c 0
 657 124 654 152 647 187 c 0
 640 222 632 264 623 314 c 1
 608 314 l 1
 601 257 593 208 585 167 c 0
 567 73 540 -10 433 -10 c 0
 368 -10 334 21 310 68 c 0
 278 132 266 217 257 313 c 1
 243 313 l 1
 234 264 226 223 220 190 c 0
 214 156 211 128 211 107 c 0x84
EndSplineSet
Validated: 1
EndChar

StartChar: uni04A5
Encoding: 1189 1189 123
Width: 869
Flags: HW
HStem: 0 46<41 81.8398 210.237 250 382 421.845 552.392 592> 377 56<552 682.016> 387 46<41 81.3688 210.357 250 382 406.533>
VStem: 82 128<49.3223 286 345 383.493> 422 130<48.6033 121 187 376.812>
DStem2: 210 345 210 286 0.789152 -0.614198<36.2377 264.344>
AnchorPoint: "Double" 870.5 563 basechar 0
AnchorPoint: "Diacritic" 472 563 basechar 0
LayerCount: 2
Fore
SplineSet
250 387 m 1xb8
 230 387 210 381 210 361 c 2
 210 345 l 1
 422 187 l 1
 422 361 l 2
 422 371 417 378 407 382 c 0
 397 385 389 387 382 387 c 1
 382 433 l 1
 828 433 l 1
 828 387 l 1xb8
 757 300 l 1
 717 300 l 1
 707 322 l 2
 693 354 663 377 617 377 c 2
 552 377 l 1xd8
 552 70 l 1
 554 52 573 46 592 46 c 1
 592 0 l 1
 382 0 l 1
 382 46 l 1
 398 46 422 53 422 70 c 2
 422 121 l 1
 210 286 l 1
 210 69 l 1
 212 51 231 46 250 46 c 1
 250 0 l 1
 41 0 l 1
 41 46 l 1
 57 46 81 54 82 69 c 1
 82 361 l 2
 82 378 57 387 41 387 c 1
 41 433 l 1
 250 433 l 1
 250 387 l 1xb8
EndSplineSet
Validated: 1
EndChar

StartChar: uni0479
Encoding: 1145 1145 124
Width: 1019
GlyphClass: 3
Flags: HW
HStem: -31 132<134.97 219.773> 339 129<130.772 223.6> 387 46<352 391.873>
VStem: 31 69<139.515 304.948> 253 67<138.164 307.238> 666 50<-412.916 -31.2682>
DStem2: 537 414 398 354 0.372295 -0.928115<-20.1928 376.579>
AnchorPoint: "Double" 1021.5 563 basechar 0
AnchorPoint: "Diacritic" 664 563 basechar 0
LayerCount: 2
Fore
SplineSet
716 -273 m 256xbc
 716 -329 717 -389 724 -428 c 1
 724 -430 l 2
 724 -436 720 -439 712 -439 c 0
 685 -439 683 -415 678 -388 c 0
 668 -329 666 -255 666 -185 c 0
 666 -123 673 -58 673 0 c 1
 540 0 l 1
 398 354 l 2
 391 370 377 387 352 387 c 1
 352 433 l 1
 530 433 l 2
 530 432 532 426 537 414 c 0
 578 300 624 174 666 60 c 1
 683 60 l 1
 698 175 730 291 773 376 c 0
 786 400 798 417 809 426 c 0
 814 431 823 433 837 433 c 2
 964 433 l 2
 983 433 988 425 988 409 c 0
 988 383 974 355 963 334 c 0
 950 307 931 278 913 256 c 1
 873 256 l 1
 870 269 866 292 853 292 c 0
 846 292 839 286 831 274 c 0
 784 203 755 106 738 7 c 0
 723 -79 716 -179 716 -273 c 256xbc
253 219 m 1
 253 261 243 294 225 316 c 0
 214 329 198 339 178 339 c 256xdc
 140 339 120 310 109 278 c 0
 103 263 100 243 100 219 c 0
 100 167 121 125 155 108 c 0
 163 103 171 101 178 101 c 256
 198 101 215 116 225 129 c 0
 241 148 253 176 253 212 c 2
 253 219 l 1
31 216 m 0
 31 298 43 365 73 411 c 0
 95 444 127 468 176 468 c 256
 258 468 292 404 309 333 c 0
 316 301 320 262 320 216 c 0
 320 114 292 25 232 -14 c 0
 215 -25 196 -31 176 -31 c 0
 128 -31 95 1 74 34 c 0
 46 78 31 142 31 216 c 0
EndSplineSet
Validated: 1
EndChar

StartChar: uniA64B
Encoding: 42571 42571 125
Width: 455
Flags: HW
HStem: -17 55<189.436 261.111> 446 75<28.5 118.494 332.687 427>
VStem: -20 95<407.688 445.46> 29 131<74.7794 235.092> 288 132<65.2057 232.762>
AnchorPoint: "Double" 455.5 598 basechar 0
AnchorPoint: "Diacritic" 232 597 basechar 0
LayerCount: 2
Fore
SplineSet
190 399 m 1xd8
 173 416 134 446 102 446 c 0
 84 446 75 431 75 400 c 2
 75 392 l 1
 50 367 l 1
 3 397 -20 427 -20 456 c 0xe8
 -20 492 10 521 47 521 c 0
 90 521 149 489 224 426 c 1
 256 453 288 476 320 493 c 0
 352 510 382 519 410 519 c 0
 444 519 475 496 475 460 c 0
 475 431 448 400 395 366 c 1
 372 389 l 1
 373 392 373 395 373 398 c 2
 373 406 l 2
 373 431 364 446 347 446 c 0
 328 446 299 429 260 399 c 1
 367 305 420 222 420 150 c 0
 420 38 335 -17 224 -17 c 0
 127 -17 65 24 37 107 c 0
 32 123 29 138 29 152 c 0
 29 225 83 308 190 399 c 1xd8
224 358 m 1
 221 355 216 348 208 336 c 1
 185 295 160 236 160 172 c 0xd8
 160 130 167 97 180 74 c 0
 193 51 209 38 226 38 c 1
 244 38 259 50 270 72 c 1
 282 93 288 125 288 166 c 0
 288 230 265 293 241 334 c 0
 234 347 228 355 224 358 c 1
EndSplineSet
Validated: 1
EndChar

StartChar: uniA651
Encoding: 42577 42577 126
Width: 1014
Flags: HW
HStem: 0 60<343.5 523.493> 0 46<173.5 215.292 757.5 797.431 927.742 968.5> 179 60<391.5 453.527> 377 56<174.066 302.5> 387 46<427.024 471.5 757.5 796.894 928.608 967.5>
VStem: 523.5 142<30 109.095> 797.5 130<48.7953 383.694>
DStem2: 225.5 91 343.5 60 0.259858 0.965647<0.728245 126.329 186.052 296.184>
AnchorPoint: "Double" 1017 563 basechar 0
AnchorPoint: "Diacritic" 858.5 563 basechar 0
LayerCount: 2
Fore
SplineSet
758 46 m 1x6e
 774 46 798 54 798 69 c 2
 798 361 l 2
 798 378 774 387 758 387 c 1
 758 433 l 1
 968 433 l 1
 968 387 l 1
 944 387 930 376 928 361 c 1
 928 69 l 1
 930 52 950 46 968 46 c 1
 968 0 l 1
 758 0 l 1
 758 46 l 1x6e
666 41 m 0
 666 19 656 0 632 0 c 2
 174 0 l 1
 174 46 l 1
 202 46 216 62 226 91 c 1
 302 377 l 1
 230 377 l 2x76
 200 377 172 357 156 339 c 0
 150 332 146 324 146 315 c 1
 110 315 l 1
 46 387 l 1
 46 433 l 1
 472 433 l 1
 472 387 l 1
 442 387 434 378 424 361 c 1
 392 239 l 1
 486 222 582 182 636 120 c 0
 656 98 666 71 666 41 c 0
492 60 m 2xa6
 514 60 524 64 524 78 c 0
 524 122 488 145 450 160 c 0
 432 168 408 174 380 179 c 1
 344 60 l 1
 492 60 l 2xa6
EndSplineSet
Validated: 1
EndChar

StartChar: uniA657
Encoding: 42583 42583 127
Width: 970
Flags: HW
HStem: -16 117<392.27 526> 0 46<45 84.7604 215.069 255 676 713.762 878.239 925> 244 60<215 471> 387 46<45 84.1133 215.606 255 520 552.992>
VStem: 85 130<48.7953 244 304 383.658> 364 120<15.2822 134.5>
DStem2: 690 433 597 322 0.457069 -0.889431<56.2195 203.223 248.485 332.736>
AnchorPoint: "Double" 968 566.5 basechar 0
AnchorPoint: "Diacritic" 595 563 basechar 0
LayerCount: 2
Fore
SplineSet
661 196 m 1xbc
 640 239 618 280 597 322 c 1
 564 281 537 243 516 208 c 0
 495 173 484 145 484 124 c 0
 484 109 492 101 508 101 c 0
 544 101 595 133 661 196 c 1xbc
255 387 m 1
 239 387 215 378 215 361 c 2
 215 304 l 1
 519 304 l 1
 542 331 553 352 553 367 c 0
 553 380 542 390 520 390 c 1
 520 433 l 1
 690 433 l 1
 875 73 l 2
 884 56 901 46 925 46 c 1
 925 0 l 1
 676 0 l 1
 676 46 l 1
 701 46 714 56 714 71 c 0
 714 76 713 79 712 84 c 1
 681 149 l 1
 627 92 552 33 476 0 c 0x7c
 453 -11 432 -16 414 -16 c 0xbc
 381 -16 364 1 364 36 c 0
 364 67 374 98 393 130 c 0
 412 163 438 201 471 244 c 1
 215 244 l 1
 215 69 l 2
 215 54 239 46 255 46 c 1
 255 0 l 1
 45 0 l 1
 45 46 l 1x7c
 63 46 83 52 85 69 c 1
 85 362 l 1
 82 377 69 387 45 387 c 1
 45 433 l 1
 255 433 l 1
 255 387 l 1
EndSplineSet
Validated: 1
EndChar

StartChar: uniA653
Encoding: 42579 42579 128
Width: 851
Flags: HW
HStem: 0 60<487.5 654.492> 0 46<44.5 85.2575 215.569 255.5 317.5 355.902> 190 60<487.5 565.46> 357 56<240.858 357.5 487.5 655.146> 367 46<45.5 84.3918> 564 46<317.5 354.42 491.203 527.5>
VStem: 85.5 130<48.7953 331.123> 357.5 130<60.1491 190 245.84 357 413 558.724>
AnchorPoint: "Double" 850 747 basechar 0
AnchorPoint: "Diacritic" 433.5 751 basechar 0
LayerCount: 2
Fore
SplineSet
488 60 m 1xa7
 628 60 l 2
 644 60 654 65 654 76 c 1
 648 128 608 154 562 171 c 0
 542 179 516 185 488 190 c 1
 488 60 l 1xa7
316 357 m 2x77
 258 357 216 331 216 280 c 2
 216 69 l 1
 216 54 240 46 256 46 c 1
 256 0 l 1
 44 0 l 1
 44 46 l 1
 62 46 84 52 86 69 c 1
 86 341 l 1
 82 357 70 367 46 367 c 1
 46 413 l 1x6f
 358 413 l 1
 358 527 l 2
 358 540 352 549 342 555 c 0
 332 561 324 564 318 564 c 1
 318 610 l 1
 528 610 l 1
 528 564 l 1
 506 564 488 548 488 527 c 2
 488 413 l 1x37
 806 413 l 1
 806 367 l 1x2f
 732 280 l 1
 692 280 l 1
 674 323 648 357 592 357 c 2
 488 357 l 1
 488 250 l 1
 586 229 686 189 750 130 c 1
 774 108 790 80 796 49 c 1
 796 41 l 2
 796 19 784 0 758 0 c 2
 318 0 l 1
 318 46 l 1
 338 46 358 56 358 78 c 2
 358 357 l 1
 316 357 l 2x77
EndSplineSet
Validated: 1
EndChar

StartChar: uniA659
Encoding: 42585 42585 129
Width: 763
Flags: HW
HStem: 0 66<165.5 530.5> 140 60<239.5 460.5> 387 46<240.5 275.184>
AnchorPoint: "Double" 763 562.5 basechar 0
AnchorPoint: "Diacritic" 335.5 563 basechar 0
LayerCount: 2
Fore
SplineSet
240 200 m 1
 460 200 l 1
 456 208 414 258 340 351 c 1
 318 304 282 255 254 217 c 0
 246 207 240 201 240 200 c 1
44 0 m 1
 44 3 44 4 44 7 c 0
 44 22 50 39 60 59 c 0
 100 129 164 196 216 258 c 0
 232 278 248 298 258 316 c 0
 270 334 276 349 276 361 c 0
 276 376 264 385 240 387 c 1
 240 433 l 1
 432 433 l 1
 454 387 494 341 528 300 c 0
 588 229 658 153 702 69 c 0
 714 46 720 24 720 5 c 2
 720 0 l 1
 44 0 l 1
530 67 m 1
 526 94 504 124 488 140 c 1
 208 140 l 1
 192 119 172 94 166 66 c 1
 530 66 l 1
 530 67 l 1
EndSplineSet
Validated: 1
EndChar

StartChar: uni2DF0
Encoding: 11760 11760 130
Width: 0
GlyphClass: 4
Flags: HW
HStem: 356 30<147 173> 587 39<-69 63> 587 30<-179 -153.299> 839 29<-179 -153.625 -68.375 -43 37 62.2139 147.837 173>
VStem: -153 84<626.363 838.717> 63 84<386.297 587 626 838.676>
AnchorPoint: "Stacking" 0 350 mark 0
AnchorPoint: "Stacking" 0.5 986 basemark 0
AnchorPoint: "Diacritic" 0.5 349 mark 0
LayerCount: 2
Fore
SplineSet
173 839 m 1xdc
 162 839 147 832 147 820 c 2
 147 401 l 1
 147 391 163 386 173 386 c 1
 173 356 l 1
 63 356 l 1
 63 587 l 1xdc
 -179 587 l 1
 -179 617 l 1xbc
 -170 617 -153 624 -153 634 c 2
 -153 820 l 2
 -153 833 -167 839 -179 839 c 1
 -179 868 l 1
 -43 868 l 1
 -43 839 l 1
 -55 839 -69 834 -69 820 c 2
 -69 626 l 1
 63 626 l 1
 63 820 l 2
 63 832 49 839 37 839 c 1
 37 868 l 1
 173 868 l 1
 173 839 l 1xdc
EndSplineSet
Validated: 1
EndChar

StartChar: uni2DF2
Encoding: 11762 11762 131
Width: 0
GlyphClass: 4
Flags: HW
HStem: 532 40<-74 23 108 205> 532 31<-185 -159.046 290.099 316> 784 30<-185 -159 -74 -48 -3 22.5432 108.171 134 179 205 290 316>
VStem: -159 85<572.281 783.754> 23 85<572 783.721> 205 85<572.242 783.807>
CounterMasks: 1 1c
AnchorPoint: "Stacking" 66 530 mark 0
AnchorPoint: "Stacking" 63.5 936 basemark 0
AnchorPoint: "Diacritic" 68.5 530 mark 0
LayerCount: 2
Fore
SplineSet
-48 784 m 1x7c
 -59 784 -74 781 -74 769 c 1
 -74 572 l 1
 23 572 l 1
 23 767 l 1
 21 778 12 784 -3 784 c 1
 -3 814 l 1
 134 814 l 1
 134 784 l 1
 123 784 108 778 108 767 c 2
 108 572 l 1
 205 572 l 1xbc
 205 769 l 2
 205 780 191 784 179 784 c 1
 179 814 l 1
 316 814 l 1
 316 784 l 1
 305 784 290 781 290 769 c 1
 290 579 l 1
 292 568 301 563 316 563 c 1
 316 532 l 1
 -185 532 l 1
 -185 563 l 1
 -175 563 -159 569 -159 579 c 2
 -159 769 l 2
 -159 780 -175 784 -185 784 c 1
 -185 814 l 1
 -48 814 l 1
 -48 784 l 1x7c
EndSplineSet
Validated: 1
EndChar

StartChar: uni2DF6
Encoding: 11766 11766 132
Width: 0
GlyphClass: 4
Flags: HW
HStem: 523 76<-153.877 -75.7852> 533 30<31 54.8535 162.148 193> 787 28<-70 -50.046>
VStem: -171 77<542.073 618.913>
DStem2: 40 815 -20 743 0.456317 -0.889817<36.6879 134.063 161.878 215.827>
AnchorPoint: "Stacking" 1 516 mark 0
AnchorPoint: "Stacking" 0.5 936 basemark 0
AnchorPoint: "Diacritic" 0.5 516 mark 0
LayerCount: 2
Fore
SplineSet
-139 523 m 0xb0
 -162 523 -171 535 -171 558 c 0
 -171 579 -162 604 -144 632 c 0
 -127 661 -103 694 -72 731 c 0
 -57 748 -50 762 -50 772 c 0
 -50 781 -57 786 -70 787 c 1
 -70 815 l 1
 40 815 l 1
 160 581 l 2
 166 570 177 564 193 563 c 1
 193 533 l 1
 31 533 l 1
 31 563 l 1
 47 564 55 569 55 580 c 0
 55 583 55 586 54 588 c 2
 34 630 l 1
 -1 595 -48 554 -97 533 c 0x70
 -112 526 -126 523 -139 523 c 0xb0
21 661 m 1
 -20 743 l 1
 -43 715 -61 690 -74 667 c 0
 -87 644 -94 627 -94 614 c 0
 -94 604 -89 599 -78 599 c 0xb0
 -55 599 -22 620 21 661 c 1
EndSplineSet
Validated: 1
EndChar

StartChar: uni2DE0
Encoding: 11744 11744 133
Width: 0
GlyphClass: 4
Flags: HW
HStem: 533 39<-50 60.9985> 533 30<-160 -135.573> 736 78<70.1529 135.104> 778 36<-50 67.372> 785 29<-160 -135.076>
VStem: -134 84<572.061 668 701.5 777.828> 61 91<553.5 622.304>
AnchorPoint: "Stacking" -4.5 530 mark 0
AnchorPoint: "Stacking" 0.5 936 basemark 0
AnchorPoint: "Diacritic" 0.5 530 mark 0
LayerCount: 2
Fore
SplineSet
-160 563 m 1x56
 -144 563 -136 571 -134 584 c 1
 -134 767 l 1
 -136 777 -145 783 -160 785 c 1
 -160 814 l 1
 159 814 l 1
 159 785 l 1x4e
 147 770 126 747 115 736 c 1
 86 736 l 1x26
 69 765 52 778 8 778 c 0
 -8 778 -27 778 -50 778 c 1
 -50 706 l 1
 -30 701 -30 703 4 694 c 0
 52 682 98 657 128 625 c 0
 144 608 152 586 152 560 c 0
 152 547 149 533 135 533 c 2
 -160 533 l 1
 -160 563 l 1x56
50 572 m 2x86
 59 572 61 578 61 586 c 0
 61 604 50 621 33 638 c 0
 16 654 -12 664 -50 668 c 1
 -50 572 l 1
 50 572 l 2x86
EndSplineSet
Validated: 1
EndChar

StartChar: uni2DE1
Encoding: 11745 11745 134
Width: 0
GlyphClass: 4
Flags: HW
HStem: 533 39<-37 70> 533 30<-150 -122.644> 778 36<-37 28> 785 29<-148 -124.331>
VStem: -120 83<572.314 690 723 777.83> 70 108<554 619.925>
AnchorPoint: "Stacking" 1 530 mark 0
AnchorPoint: "Stacking" 0.5 936 basemark 0
AnchorPoint: "Diacritic" 0.5 530 mark 0
LayerCount: 2
Fore
SplineSet
-120 755 m 1x6c
 -123 772 -128 785 -148 785 c 1
 -148 814 l 1
 106 814 l 2x5c
 113 814 117 810 117 803 c 0
 117 795 113 788 104 778 c 0
 89 761 67 739 50 725 c 0
 41 718 37 715 37 714 c 0
 37 710 55 704 62 701 c 0
 99 682 147 642 166 604 c 0
 174 589 178 575 178 563 c 0
 178 545 171 535 156 533 c 1
 -150 533 l 1
 -150 563 l 1
 -130 563 -120 573 -120 592 c 2
 -120 755 l 1x6c
57 572 m 2x8c
 70 572 70 579 70 590 c 0
 70 631 44 658 16 674 c 0
 2 681 -16 687 -37 690 c 1
 -37 572 l 1
 57 572 l 2x8c
-37 723 m 1
 -15 723 9 742 20 756 c 0
 25 762 28 768 28 774 c 2
 28 778 l 1
 -37 778 l 1x2c
 -37 723 l 1
EndSplineSet
Validated: 1
EndChar

StartChar: uni2DE3
Encoding: 11747 11747 135
Width: 0
GlyphClass: 4
Flags: HW
HStem: 533 39<-72 85.9873> 785 29<-67 -47.2211>
DStem2: 51 814 -3 736 0.506085 -0.862483<39.9451 226.434>
AnchorPoint: "Stacking" -3.5 462 mark 0
AnchorPoint: "Stacking" 0.5 936 basemark 0
AnchorPoint: "Diacritic" 0.5 462 mark 0
LayerCount: 2
Fore
SplineSet
-74 533 m 1
 -106 529 -120 505 -126 468 c 1
 -157 468 l 1
 -210 533 l 1
 -210 572 l 1
 -180 572 -155 573 -134 584 c 256
 -94 605 -66 656 -50 701 c 0
 -44 717 -41 731 -41 744 c 0
 -41 767 -50 780 -67 785 c 1
 -67 814 l 1
 51 814 l 1
 193 572 l 1
 255 572 l 1
 255 533 l 1
 185 468 l 1
 153 468 l 1
 147 499 130 518 106 528 c 0
 96 531 87 533 79 533 c 2
 -74 533 l 1
-72 572 m 1
 86 572 l 1
 -3 736 l 1
 -13 669 -37 610 -72 572 c 1
EndSplineSet
Validated: 1
EndChar

StartChar: uni2DF7
Encoding: 11767 11767 136
Width: 0
GlyphClass: 4
Flags: HW
HStem: 519 82<-48.9648 22.5566> 641 58<-47.1014 47.6332> 662 35<-58.9531 -9.30819> 745 80<-51.26 26.375>
VStem: -105 46<637.25 739.348>
AnchorPoint: "Stacking" -17 512 mark 0
AnchorPoint: "Stacking" -17.5 936 basemark 0
AnchorPoint: "Diacritic" -16.5 514 mark 0
LayerCount: 2
Fore
SplineSet
30 573 m 0xb8
 30 540 14 519 -20 519 c 0
 -51 519 -70 542 -82 564 c 0
 -96 590 -105 627 -105 666 c 0
 -105 735 -83 790 -42 815 c 0
 -30 822 -20 825 -10 825 c 0
 21 825 34 799 34 769 c 0
 34 749 23 745 6 745 c 2
 -10 745 l 2
 -41 745 -53 732 -59 700 c 0
 -59 698 -55 697 -48 697 c 0xb8
 -29 697 1 699 21 699 c 0
 37 699 52 698 52 682 c 0
 52 657 34 641 13 641 c 256xd8
 -9 641 -27 652 -44 658 c 0
 -48 660 -52 662 -55 662 c 0
 -57 662 -58 661 -59 660 c 0
 -55 627 -45 601 -13 601 c 0
 -12 601 -11 601 -10 602 c 0
 -7 602 -2 602 0 602 c 0
 21 602 30 597 30 573 c 0xb8
EndSplineSet
Validated: 1
EndChar

StartChar: uniA674
Encoding: 42612 42612 137
Width: 0
GlyphClass: 4
Flags: HW
HStem: 527 82<-195.188 -54.2838> 656 50<-198.717 -24.6341> 677 28<-210.951 -133.534> 757 79<-185.004 -50.4273>
VStem: -253 42<658.286 748.845>
AnchorPoint: "Stacking" -130 521 mark 0
AnchorPoint: "Stacking" -124 944 basemark 0
AnchorPoint: "Diacritic" -130.5 522 mark 0
LayerCount: 2
Fore
SplineSet
-74 609 m 256xb8
 -55 609 -42 604 -42 585 c 0
 -42 577 -43 569 -46 560 c 1
 -52 551 l 1
 -66 534 -94 527 -131 527 c 0
 -212 527 -253 604 -253 694 c 0
 -253 767 -210 810 -156 828 c 0
 -139 833 -122 836 -107 836 c 0
 -70 836 -41 820 -41 786 c 0
 -41 765 -60 757 -80 757 c 0
 -100 757 -121 760 -141 760 c 0
 -158 760 -174 757 -188 750 c 0
 -203 744 -211 730 -211 709 c 0
 -211 705 -185 705 -174 705 c 0
 -172 705 l 0xb8
 -147 705 -118 706 -93 706 c 0xd8
 -69 706 -51 705 -39 705 c 0xb8
 -27 705 -21 700 -21 691 c 0
 -21 666 -53 656 -78 656 c 0xd8
 -112 656 -147 666 -176 674 c 0
 -185 676 -193 677 -199 677 c 0
 -206 677 -210 675 -211 672 c 0
 -206 624 -184 605 -138 605 c 0
 -117 605 -94 609 -74 609 c 256xb8
EndSplineSet
Validated: 1
EndChar

StartChar: uni2DE4
Encoding: 11748 11748 138
Width: 0
GlyphClass: 4
Flags: HW
HStem: 533 30<-101.316 -83 -44 -16.1479 68 92 134 149.967> 678 56<-47.3647 -16.0381> 784 30<-94.9963 -80 -37 -17.7193 68.4002 89 132 144.997>
VStem: -16 84<563.37 678 734.001 783.989> 145 92<771.55 810.931>
AnchorPoint: "Stacking" -1 528 mark 0
AnchorPoint: "Stacking" 0.5 936 basemark 0
AnchorPoint: "Diacritic" 0.5 530 mark 0
LayerCount: 2
Fore
SplineSet
-102 584 m 0
 -102 571 -94 563 -83 563 c 1
 -83 533 l 1
 -227 533 l 1
 -227 565 -217 580 -197 600 c 0
 -184 614 -166 628 -143 645 c 0
 -120 662 -88 681 -48 704 c 1
 -48 708 l 1
 -93 726 -144 751 -173 784 c 0
 -182 793 -186 801 -186 810 c 2
 -186 814 l 1
 -80 814 l 1
 -80 784 l 1
 -90 784 -95 781 -95 777 c 0
 -95 767 -71 755 -62 750 c 0
 -51 744 -32 734 -19 734 c 0
 -17 734 -16 736 -16 741 c 0
 -16 748 -16 748 -16 753 c 0
 -16 769 -19 784 -37 784 c 1
 -37 814 l 1
 89 814 l 1
 89 784 l 1
 72 784 68 779 68 761 c 1
 68 734 l 1
 93 739 112 746 126 755 c 0
 138 764 145 771 145 777 c 0
 145 782 141 784 132 784 c 1
 132 814 l 1
 236 814 l 1
 236 811 237 811 237 808 c 0
 237 795 227 780 206 764 c 0
 185 746 149 728 98 708 c 1
 98 704 l 1
 157 673 223 636 262 584 c 0
 273 569 279 553 279 537 c 2
 279 533 l 1
 134 533 l 1
 134 563 l 1
 145 565 150 570 150 579 c 0
 150 601 125 627 112 640 c 0
 103 651 94 660 86 667 c 0
 77 674 73 678 72 678 c 2
 68 678 l 1
 68 578 l 2
 68 567 83 563 92 563 c 1
 92 533 l 1
 -44 533 l 1
 -44 563 l 1
 -32 563 -19 567 -16 578 c 1
 -16 678 l 1
 -21 678 l 1
 -52 656 -74 637 -85 621 c 0
 -96 605 -102 593 -102 584 c 0
EndSplineSet
Validated: 1
EndChar

StartChar: uni2DE5
Encoding: 11749 11749 139
Width: 0
GlyphClass: 4
Flags: HW
HStem: 766 91<-117 -81.6514> 820 37<-67.3122 38.976>
VStem: 38 86<462.059 547.95>
DStem2: -101 606 8 619 0.558376 0.829588<71.6477 250.727>
AnchorPoint: "Stacking" 4.5 404 mark 0
AnchorPoint: "Stacking" 0.5 984 basemark 0
AnchorPoint: "Diacritic" 0.5 404 mark 0
LayerCount: 2
Fore
SplineSet
-3 820 m 0x60
 -48 820 -82 803 -91 766 c 1
 -117 766 l 1xa0
 -174 827 l 1
 -174 857 l 1
 143 857 l 1
 143 828 l 1
 8 619 l 1
 56 617 97 590 114 556 c 0
 121 544 124 531 124 518 c 0
 124 500 117 482 102 462 c 0
 87 444 62 426 27 409 c 1
 0 409 l 1
 16 428 38 462 38 498 c 0
 38 563 -30 575 -100 575 c 1
 -101 606 l 1
 39 814 l 1
 39 818 6 820 -3 820 c 0x60
EndSplineSet
Validated: 1
EndChar

StartChar: uniA675
Encoding: 42613 42613 140
Width: 0
GlyphClass: 4
Flags: HW
HStem: 541 30<-381 -355 -270 -244 -159 -133 -49 -23> 677 39<-270 -133> 793 29<-381 -355.249 -269.734 -244 -158 -133.722 -48.5963 -23>
VStem: -355 85<571.246 677 716 792.762> -133 84<571.297 677 716 792.596>
AnchorPoint: "Stacking" -194 531 mark 0
AnchorPoint: "Stacking" -200 944 basemark 0
AnchorPoint: "Diacritic" -194.5 532 mark 0
LayerCount: 2
Fore
SplineSet
-23 793 m 1
 -33 793 -49 786 -49 776 c 2
 -49 586 l 1
 -49 576 -33 571 -23 571 c 1
 -23 541 l 1
 -159 541 l 1
 -159 571 l 1
 -154 571 l 2
 -145 571 -133 576 -133 586 c 2
 -133 677 l 1
 -270 677 l 1
 -270 586 l 2
 -270 575 -254 571 -244 571 c 1
 -244 541 l 1
 -381 541 l 1
 -381 571 l 1
 -376 571 l 2
 -367 571 -355 576 -355 586 c 2
 -355 776 l 2
 -355 788 -369 793 -381 793 c 1
 -381 822 l 1
 -244 822 l 1
 -244 793 l 1
 -255 793 -270 788 -270 776 c 2
 -270 716 l 1
 -133 716 l 1
 -133 776 l 1
 -135 786 -143 793 -158 793 c 1
 -158 822 l 1
 -23 822 l 1
 -23 793 l 1
EndSplineSet
Validated: 1
EndChar

StartChar: uniA676
Encoding: 42614 42614 141
Width: 0
GlyphClass: 4
Flags: HW
HStem: 535 30<-160 -134.102 -50 -27.6777> 787 29<-160 -134.428 -49.2776 -24>
VStem: -134 84<565.297 786.357>
AnchorPoint: "Stacking" -84 531 mark 0
AnchorPoint: "Stacking" -90 944 basemark 0
AnchorPoint: "Diacritic" -86.5 530 mark 0
LayerCount: 2
Fore
SplineSet
-160 565 m 1
 -150 565 -136 570 -134 580 c 1
 -134 770 l 2
 -134 780 -151 787 -160 787 c 1
 -160 816 l 1
 -24 816 l 1
 -24 787 l 1
 -40 785 -48 780 -50 770 c 1
 -50 580 l 1
 -49 572 -47 569 -44 569 c 0
 -25 569 -24 559 -24 535 c 1
 -160 535 l 1
 -160 565 l 1
EndSplineSet
Validated: 1
EndChar

StartChar: uni2DE6
Encoding: 11750 11750 142
Width: 0
GlyphClass: 4
Flags: HW
HStem: 533 30<-171 -145.684 -60.8982 -35 47 70.2879> 763 61<87.2929 185.949> 785 29<-171 -145.266 -59.998 -34>
VStem: -145 84<563.218 784.68> 72 114<563.106 624.319>
AnchorPoint: "Stacking" 0.5 530 mark 0
AnchorPoint: "Stacking" 0.5 936 basemark 0
AnchorPoint: "Diacritic" 0.5 530 mark 0
LayerCount: 2
Fore
SplineSet
-171 563 m 1xb8
 -157 563 -145 569 -145 583 c 2
 -145 768 l 2
 -145 781 -160 785 -171 785 c 1
 -171 814 l 1
 -34 814 l 1
 -34 785 l 1
 -49 785 -58 778 -61 768 c 1
 -61 578 l 1
 -59 567 -46 563 -35 563 c 1
 -35 533 l 1
 -171 533 l 1
 -171 563 l 1xb8
138 734 m 1
 133 751 122 763 102 763 c 0
 81 763 59 753 38 733 c 1
 112 696 186 643 186 533 c 1
 47 533 l 1
 47 563 l 1
 64 563 72 572 72 591 c 0
 72 626 48 647 26 666 c 0
 13 677 -3 688 -24 699 c 1
 -24 725 l 1
 16 765 69 801 130 818 c 0
 145 822 159 824 170 824 c 256xd8
 189 824 206 818 206 801 c 256
 206 794 203 784 196 774 c 0
 190 762 179 749 164 734 c 1
 138 734 l 1
EndSplineSet
Validated: 1
EndChar

StartChar: uni2DE7
Encoding: 11751 11751 143
Width: 0
GlyphClass: 4
Flags: HW
HStem: 533 30<-77.6945 -56 44 67.6688> 785 29<-61 -40.0066>
VStem: -153 97<533 563> -153 74<563.023 627.736> 69 116<542.5 613.14>
AnchorPoint: "Stacking" 0.222229 530 mark 0
AnchorPoint: "Stacking" 0.5 936 basemark 0
AnchorPoint: "Diacritic" 0.5 530 mark 0
LayerCount: 2
Fore
SplineSet
-40 770 m 0xe8
 -40 781 -49 785 -61 785 c 1
 -61 814 l 1
 40 814 l 1
 80 744 135 672 170 600 c 0
 180 578 185 560 185 545 c 0
 185 540 185 536 184 533 c 1
 44 533 l 1
 44 563 l 1
 61 563 69 572 69 588 c 0
 69 616 53 644 41 666 c 0
 26 693 6 725 -10 749 c 1
 -31 715 -57 668 -71 627 c 0
 -76 612 -79 599 -79 588 c 0xd8
 -79 571 -71 563 -56 563 c 1
 -56 533 l 1
 -153 533 l 1
 -154 536 -153 542 -153 549 c 0
 -153 602 -121 650 -96 683 c 0
 -82 702 -69 720 -58 735 c 0
 -46 750 -40 762 -40 770 c 0xe8
EndSplineSet
Validated: 1
EndChar

StartChar: uni2DE8
Encoding: 11752 11752 144
Width: 0
GlyphClass: 4
Flags: HW
HStem: 526 76<-46.6702 46.0974> 533 30<-262 -235.333 -141.895 -116 111 138.797 233.095 260> 736 78<-129.503 -113.941 109.018 125.054> 785 29<-234 -211.533 -81.998 -69 64 75.6719 204.064 229>
VStem: -207 124<736.541 784.512>
AnchorPoint: "Stacking" 2 523.4 mark 0
AnchorPoint: "Stacking" 0.5 936 basemark 0
AnchorPoint: "Diacritic" 0.5 530 mark 0
LayerCount: 2
Fore
SplineSet
-146 604 m 256xa8
 -146 578 -140 563 -116 563 c 1
 -116 533 l 1
 -262 533 l 1
 -262 563 l 1x68
 -221 563 -222 625 -217 662 c 256
 -214 686 -207 718 -207 744 c 0
 -207 766 -213 785 -234 785 c 1
 -235 814 l 1
 -69 814 l 1
 -69 785 l 1
 -82 785 -83 769 -83 755 c 0
 -83 753 -83 751 -83 749 c 0
 -83 695 -68 643 -40 616 c 0
 -29 607 -15 602 0 602 c 0x98
 64 602 76 685 76 749 c 0
 76 753 76 758 76 762 c 0
 76 774 75 785 64 785 c 1
 64 814 l 1
 229 814 l 1
 229 785 l 1
 206 785 201 771 201 748 c 0
 201 721 210 687 213 662 c 0
 219 625 219 563 260 563 c 1
 260 533 l 1
 111 533 l 1
 111 563 l 1x58
 136 563 143 577 143 603 c 256
 143 617 141 635 136 656 c 0
 132 678 127 705 121 737 c 1
 112 737 l 1
 104 675 97 619 76 576 c 0
 62 546 42 526 0 526 c 0
 -67 526 -91 582 -103 642 c 0
 -108 668 -113 699 -116 736 c 1
 -126 736 l 1
 -131 705 -136 679 -140 658 c 0
 -144 636 -146 618 -146 604 c 256xa8
EndSplineSet
Validated: 1
EndChar

StartChar: uni2DE9
Encoding: 11753 11753 145
Width: 0
GlyphClass: 4
Flags: HW
HStem: 533 30<-179 -153 -69.9011 -44 42 68 153 179> 785 29<-179 -153.404 -69.7513 -44 42 67.7344 153.746 179>
VStem: -153 83<563.297 719 757 784.647> 68 85<563.297 612 655 784.754>
DStem2: -70 757 -70 719 0.790276 -0.612751<23.2845 171.559>
AnchorPoint: "Stacking" -1 528 mark 0
AnchorPoint: "Stacking" 0.5 936 basemark 0
AnchorPoint: "Diacritic" 0.5 530 mark 0
LayerCount: 2
Fore
SplineSet
-179 563 m 1
 -169 563 -153 568 -153 578 c 2
 -153 768 l 2
 -153 779 -169 785 -179 785 c 1
 -179 814 l 1
 -44 814 l 1
 -44 785 l 1
 -56 785 -70 780 -70 768 c 2
 -70 757 l 1
 68 655 l 1
 68 768 l 2
 68 780 53 785 42 785 c 1
 42 814 l 1
 179 814 l 1
 179 785 l 1
 164 785 155 778 153 768 c 1
 153 578 l 1
 153 566 168 563 179 563 c 1
 179 533 l 1
 42 533 l 1
 42 563 l 1
 52 563 68 568 68 578 c 2
 68 612 l 1
 -70 719 l 1
 -70 578 l 1
 -68 569 -59 563 -49 563 c 2
 -44 563 l 1
 -44 533 l 1
 -179 533 l 1
 -179 563 l 1
EndSplineSet
Validated: 1
EndChar

StartChar: uni2DEA
Encoding: 11754 11754 146
Width: 0
GlyphClass: 4
Flags: HW
HStem: 531 35<-45.674 49.3493> 813 30<-43.3671 42.4021>
VStem: -161 77<609.969 765.763> 85 78<610.476 764.435>
AnchorPoint: "Stacking" 0 528.3 mark 0
AnchorPoint: "Stacking" 0.5 936 basemark 0
AnchorPoint: "Diacritic" 0.5 530 mark 0
LayerCount: 2
Fore
SplineSet
85 687 m 2
 85 694 l 2
 85 741 67 781 39 802 c 0
 28 809 15 813 0 813 c 0
 -61 813 -84 747 -84 687 c 0
 -84 638 -69 599 -40 578 c 0
 -29 570 -16 566 0 566 c 0
 63 566 85 625 85 687 c 2
-161 687 m 256
 -161 760 -114 808 -62 830 c 0
 -42 839 -21 843 0 843 c 0
 73 843 126 799 150 748 c 0
 159 728 163 708 163 687 c 256
 163 614 115 566 62 544 c 0
 43 535 22 531 0 531 c 0
 -73 531 -125 575 -148 626 c 0
 -157 646 -161 666 -161 687 c 256
EndSplineSet
Validated: 1
EndChar

StartChar: uni2DEB
Encoding: 11755 11755 147
Width: 0
GlyphClass: 4
Flags: HW
HStem: 533 30<-181 -155 -70 -44 41 67 151.099 177> 778 36<-70 67> 785 29<-181 -155.404 151.746 177>
VStem: -155 85<563.297 777.876> 67 84<563.297 777.773>
AnchorPoint: "Stacking" -1 531 mark 0
AnchorPoint: "Stacking" 0.5 936 basemark 0
AnchorPoint: "Diacritic" 0.5 530 mark 0
LayerCount: 2
Fore
SplineSet
-181 563 m 1xd8
 -171 563 -155 568 -155 578 c 2
 -155 768 l 2
 -155 779 -171 785 -181 785 c 1
 -181 814 l 1
 177 814 l 1
 177 785 l 1xb8
 162 785 153 778 151 768 c 1
 151 578 l 1
 153 569 162 563 172 563 c 2
 177 563 l 1
 177 533 l 1
 41 533 l 1
 41 563 l 1
 51 563 67 568 67 578 c 1
 67 778 l 1
 -70 778 l 1
 -70 578 l 2
 -70 569 -58 563 -49 563 c 2
 -44 563 l 1
 -44 533 l 1
 -181 533 l 1
 -181 563 l 1xd8
EndSplineSet
Validated: 1
EndChar

StartChar: uni2DED
Encoding: 11757 11757 148
Width: 0
GlyphClass: 4
Flags: HW
HStem: 549 66<18.3528 52.3661> 744 87<-27.1233 49.2246>
VStem: -82 44<624.615 733.969>
AnchorPoint: "Stacking" -1.5 518 mark 0
AnchorPoint: "Stacking" 0.5 936 basemark 0
AnchorPoint: "Diacritic" 2.5 518 mark 0
LayerCount: 2
Fore
SplineSet
55 590 m 1
 55 577 50 559 45 549 c 1
 44 549 l 1
 36 535 25 525 3 525 c 256
 -26 525 -45 555 -56 577 c 0
 -71 605 -82 648 -82 690 c 0
 -82 752 -59 802 -20 822 c 0
 -9 828 1 831 11 831 c 0
 43 831 57 806 57 774 c 0
 57 749 44 743 22 743 c 0
 20 743 18 743 16 744 c 0
 14 744 13 744 12 744 c 0
 -19 744 -33 722 -38 692 c 1
 -38 687 l 1
 -37 647 -26 618 8 615 c 0
 32 613 53 614 55 590 c 1
EndSplineSet
Validated: 1
EndChar

StartChar: uni2DEE
Encoding: 11758 11758 149
Width: 0
GlyphClass: 4
Flags: HW
HStem: 533 30<-42 -16.7351 72.1595 97> 728 86<-153 -115.623 171.271 208> 778 36<-107.246 -16 71 162.211>
VStem: -16 87<563.708 778>
AnchorPoint: "Stacking" 24 528 mark 0
AnchorPoint: "Stacking" 30.5 936 basemark 0
AnchorPoint: "Diacritic" 26.5 527 mark 0
LayerCount: 2
Fore
SplineSet
-62 778 m 2xb0
 -102 778 -114 754 -127 728 c 1
 -153 728 l 1xd0
 -199 785 l 1
 -199 814 l 1
 257 814 l 1xb0
 257 785 l 1
 208 728 l 1
 182 728 l 1xd0
 172 756 153 778 118 778 c 2
 71 778 l 1
 71 584 l 2
 71 571 85 563 97 563 c 1
 97 533 l 1
 -42 533 l 1
 -42 563 l 1
 -29 565 -16 568 -16 584 c 1
 -16 778 l 1
 -62 778 l 2xb0
EndSplineSet
Validated: 1
EndChar

StartChar: uni2DF9
Encoding: 11769 11769 150
Width: 0
GlyphClass: 4
Flags: HW
HStem: 529 36<-26.298 26.9191> 830 48<-122.5 -53.8815 54.8833 138.684>
VStem: -159 62<796.812 829.991> -127 85<574.759 707.288> 42 85<573.359 704.935> 97 65<799.302 827.994>
AnchorPoint: "Stacking" -0.5 523 mark 0
AnchorPoint: "Stacking" 0.5 972 basemark 0
AnchorPoint: "Diacritic" 0.5 525 mark 0
LayerCount: 2
Fore
SplineSet
-22 799 m 1xd8
 -33 812 -57 830 -80 830 c 0
 -91 830 -97 818 -97 795 c 1
 -113 779 l 1
 -144 798 -159 817 -159 836 c 0
 -159 843 -155 852 -148 862 c 0
 -141 873 -130 878 -115 878 c 0
 -87 878 -49 858 0 817 c 1
 21 836 42 850 64 861 c 0
 84 872 103 877 120 877 c 0
 143 877 162 862 162 838 c 0
 162 819 145 799 111 778 c 1
 96 793 l 1
 96 797 97 800 97 803 c 0xe4
 97 820 91 828 79 828 c 256
 67 828 48 818 23 799 c 1
 92 738 127 684 127 637 c 0
 127 565 72 529 0 529 c 0
 -72 529 -127 567 -127 639 c 0
 -127 686 -92 740 -22 799 c 1xd8
0 565 m 256
 31 565 42 609 42 648 c 0
 42 689 27 731 12 758 c 0
 6 766 3 771 0 773 c 1
 -9 767 -17 745 -24 732 c 0
 -33 711 -42 681 -42 652 c 0xd8
 -42 623 -38 602 -29 587 c 0
 -20 572 -11 565 0 565 c 256
EndSplineSet
Validated: 1
EndChar

StartChar: uniA677
Encoding: 42615 42615 151
Width: 0
GlyphClass: 4
Flags: HW
HStem: 537 39<-235.166 -225> 703 115<-102.735 -52.434> 789 29<-433 -407.828>
VStem: -229 32<258.737 536.343>
DStem2: -318 818 -403 767 0.348575 -0.937281<0 258.194>
AnchorPoint: "Stacking" -253 271 mark 0
AnchorPoint: "Stacking" -228 944 basemark 0
AnchorPoint: "Diacritic" -249.5 272 mark 0
LayerCount: 2
Fore
SplineSet
-197 364 m 0xd0
 -197 324 -196 286 -192 259 c 0
 -192 253 -195 251 -201 251 c 256
 -217 251 -221 279 -224 298 c 0
 -229 333 -229 375 -229 418 c 0
 -229 457 -225 499 -225 537 c 1
 -311 537 l 1
 -403 767 l 1
 -409 777 -416 789 -433 789 c 1
 -433 818 l 1
 -318 818 l 1
 -285 731 l 2
 -267 684 -247 620 -228 576 c 1
 -218 576 l 1
 -210 636 -195 697 -176 744 c 0
 -168 766 -158 784 -148 798 c 0
 -138 811 -128 818 -118 818 c 2
 -36 818 l 2xb0
 -24 818 -21 813 -21 802 c 0
 -21 785 -30 768 -36 754 c 0
 -45 736 -57 716 -69 703 c 1
 -95 703 l 1
 -97 712 -99 727 -108 727 c 256
 -111 727 -116 723 -122 715 c 0
 -180 633 -197 499 -197 364 c 0xd0
EndSplineSet
Validated: 1
EndChar

StartChar: uniA69E
Encoding: 42654 42654 152
Width: 0
GlyphClass: 4
Flags: HW
HStem: 333 26<-324 -300.227 -211.401 -187> 587 39<-362.332 -298 -213 -148.913> 816 39<-362.213 -298 -213 -150.777> 933 26<-324 -301.21 -210.721 -187>
VStem: -490 85<662.739 779.99> -298 85<359.413 587 626 816 855 932.617> -106 84<664.38 779.299>
AnchorPoint: "Stacking" -256 328.9 mark 0
AnchorPoint: "Stacking" -256 1058 basemark 0
AnchorPoint: "Diacritic" -255.5 330 mark 0
LayerCount: 2
Fore
SplineSet
-405 725 m 0
 -405 671 -371 642 -330 631 c 0
 -318 627 -307 626 -298 626 c 1
 -298 816 l 1
 -340 816 -375 795 -393 768 c 0
 -401 757 -405 742 -405 725 c 0
-106 725 m 0
 -106 774 -144 800 -182 811 c 0
 -195 814 -205 816 -213 816 c 1
 -213 626 l 1
 -169 626 -137 648 -118 676 c 0
 -110 688 -106 705 -106 725 c 0
-324 359 m 1
 -313 359 -298 368 -298 379 c 2
 -298 587 l 1
 -380 587 -446 618 -476 672 c 0
 -486 688 -490 705 -490 723 c 0
 -490 763 -469 791 -444 811 c 0
 -409 838 -360 855 -298 855 c 1
 -298 909 l 2
 -298 922 -310 933 -324 933 c 1
 -324 959 l 1
 -187 959 l 1
 -187 933 l 1
 -207 933 -211 926 -213 909 c 1
 -213 855 l 1
 -131 855 -61 824 -34 769 c 0
 -26 754 -22 739 -22 724 c 0
 -22 628 -110 587 -213 587 c 1
 -213 379 l 1
 -213 366 -199 359 -187 359 c 1
 -187 333 l 1
 -324 333 l 1
 -324 359 l 1
EndSplineSet
Validated: 1
EndChar

StartChar: uni2DEF
Encoding: 11759 11759 153
Width: 0
GlyphClass: 4
Flags: HW
HStem: 509 30<0 20.992 129.701 165> 808 73<109.587 178.807> 844 29<-158 -127.062 -21.6951 0>
VStem: -169 9<365 380.207>
AnchorPoint: "Stacking" -0.5 462 mark 0
AnchorPoint: "Stacking" 0.5 998 basemark 0
AnchorPoint: "Diacritic" 0.5 464 mark 0
LayerCount: 2
Fore
SplineSet
0 539 m 1xd0
 10 540 21 544 21 554 c 0
 21 557 21 559 20 560 c 2
 -27 660 l 1
 -46 637 -66 603 -84 568 c 0
 -114 510 -142 439 -160 365 c 1
 -169 365 l 1
 -167 419 -149 474 -132 522 c 0
 -110 582 -79 648 -49 699 c 1
 -121 821 l 2
 -128 834 -139 841 -158 844 c 1
 -158 873 l 1
 0 873 l 1
 0 844 l 1xb0
 -10 844 -22 838 -22 827 c 0
 -22 825 -21 823 -21 822 c 2
 13 766 l 1
 13 767 l 1
 34 796 54 817 70 831 c 0
 101 856 105 864 137 875 c 0
 149 879 159 881 168 881 c 0
 186 881 196 874 196 858 c 256
 196 834 180 810 169 794 c 0
 165 789 162 785 160 783 c 1
 135 783 l 1
 132 793 127 808 115 808 c 0
 102 808 86 791 76 781 c 0
 62 766 46 746 35 728 c 1
 118 568 l 1
 128 554 141 539 165 539 c 1
 165 509 l 1
 0 509 l 1
 0 539 l 1xd0
EndSplineSet
Validated: 1
EndChar

StartChar: uniA67B
Encoding: 42619 42619 154
Width: 0
GlyphClass: 4
Flags: HW
HStem: 520 39<-432.414 -360.611 -240.738 -169.22> 781 30<-580 -558.503 -459.619 -442 -376 -355.504 -247.498 -226 -162 -142.655 -43.4967 -22>
VStem: -340 78<630.468 775.38>
AnchorPoint: "Stacking" -302 519 mark 0
AnchorPoint: "Stacking" -304 944 basemark 0
AnchorPoint: "Diacritic" -301.5 518 mark 0
LayerCount: 2
Fore
SplineSet
-262 678 m 0
 -262 670 -262 661 -262 652 c 0
 -258 590 -238 559 -204 559 c 0
 -185 559 -169 572 -156 599 c 0
 -142 625 -136 665 -136 718 c 0
 -136 760 -144 781 -162 781 c 1
 -162 811 l 1
 -22 811 l 1
 -22 781 l 1
 -37 781 -46 770 -48 747 c 0
 -65 596 -117 520 -204 520 c 0
 -248 520 -280 557 -302 629 c 1
 -323 557 -355 520 -398 520 c 0
 -444 520 -480 539 -506 577 c 0
 -531 614 -547 671 -554 747 c 0
 -556 770 -565 781 -580 781 c 1
 -580 811 l 1
 -442 811 l 1
 -442 781 l 1
 -458 781 -466 760 -466 718 c 0
 -466 665 -460 625 -446 599 c 0
 -432 572 -416 559 -398 559 c 256
 -354 559 -340 609 -340 662 c 0
 -340 742 -352 781 -376 781 c 1
 -376 811 l 1
 -226 811 l 1
 -226 781 l 1
 -249 781 -262 747 -262 678 c 0
EndSplineSet
Validated: 1
EndChar

StartChar: uni2DFE
Encoding: 11774 11774 155
Width: 0
GlyphClass: 4
Flags: HW
HStem: 533 30<-51.9177 -30 13 38.0356 123.482 149 189 213.994> 778 36<15.0015 144.999>
VStem: -144 114<533 563> 39 84<563.367 682> 145 93<763.872 804>
AnchorPoint: "Stacking" 80 528 mark 0
AnchorPoint: "Stacking" 83.5 936 basemark 0
AnchorPoint: "Diacritic" 81.5 529 mark 0
LayerCount: 2
Fore
SplineSet
13 563 m 1
 25 563 39 571 39 583 c 2
 39 682 l 1
 35 682 l 1
 3 658 -20 637 -32 620 c 0
 -46 603 -52 589 -52 580 c 0
 -52 569 -45 563 -30 563 c 1
 -30 533 l 1
 -144 533 l 2
 -145 534 -144 537 -144 543 c 0
 -144 565 -132 581 -118 599 c 0
 -83 641 -40 672 16 708 c 1
 15 712 l 1
 -2 718 -24 736 -38 748 c 0
 -53 761 -77 782 -77 805 c 0
 -77 810 -78 813 -77 814 c 2
 236 814 l 1
 237 809 238 805 238 803 c 0
 238 789 231 780 222 770 c 0
 202 748 178 731 146 712 c 1
 146 708 l 1
 197 674 255 634 289 584 c 0
 299 568 304 554 304 539 c 2
 304 533 l 1
 189 533 l 1
 189 563 l 1
 206 563 214 568 214 578 c 0
 214 586 210 596 201 608 c 0
 185 629 162 653 142 670 c 0
 133 678 128 682 127 682 c 2
 123 682 l 1
 123 582 l 2
 123 569 137 563 149 563 c 1
 149 533 l 1
 13 533 l 1
 13 563 l 1
21 778 m 1
 17 777 15 775 15 772 c 0
 15 760 33 746 42 740 c 0
 51 732 68 720 81 720 c 0
 94 720 110 734 120 742 c 0
 128 748 145 762 145 773 c 256
 145 776 143 778 139 778 c 2
 21 778 l 1
EndSplineSet
Validated: 1
EndChar

StartChar: uni2DFF
Encoding: 11775 11775 156
Width: 0
GlyphClass: 4
Flags: HW
HStem: 533 30<-300 -274 -190 -163 -13.9795 8 50 75.0356 160.415 184 226 249.994> 689 39<-190 25> 778 36<52.0015 183.999> 785 29<-300 -274.404 -189.094 -164>
VStem: -274 84<563.297 689 728 784.639> -107 115<533 563> -107 93<537.524 592.953> 76 84<563.367 682> 184 92<763.757 806>
AnchorPoint: "Stacking" 85 530 mark 0
AnchorPoint: "Stacking" 81.5 936 basemark 0
AnchorPoint: "Diacritic" 81.5 529 mark 0
LayerCount: 2
Fore
SplineSet
58 778 m 1xe980
 54 777 52 775 52 772 c 0
 52 760 70 746 79 740 c 0
 88 732 105 720 118 720 c 0
 131 720 148 734 158 742 c 0
 165 748 184 762 184 773 c 256
 184 776 182 778 177 778 c 2
 58 778 l 1xe980
-300 563 m 1
 -290 563 -274 568 -274 578 c 1
 -274 768 l 2
 -274 779 -290 785 -300 785 c 1
 -300 814 l 1
 -164 814 l 1
 -164 785 l 1
 -179 785 -188 777 -190 768 c 1
 -190 728 l 1
 27 728 l 1
 5 742 -20 762 -34 785 c 0
 -38 791 -40 797 -40 804 c 0
 -40 807 -39 810 -38 814 c 1
 274 814 l 1
 275 811 276 808 276 804 c 256
 276 790 268 781 260 770 c 0
 240 747 215 731 184 712 c 1
 184 708 l 1
 235 674 294 635 327 584 c 0
 337 569 342 554 342 539 c 2
 342 533 l 1
 226 533 l 1
 226 563 l 1
 242 563 250 568 250 578 c 0
 250 586 246 596 236 608 c 0
 220 629 196 653 176 670 c 0
 166 678 161 682 160 682 c 2
 160 582 l 2
 160 569 172 563 184 563 c 1
 186 533 l 1
 50 533 l 1
 50 563 l 1
 62 563 76 571 76 583 c 2
 76 682 l 1
 43 657 20 636 6 619 c 0
 -7 602 -14 588 -14 579 c 0xdb80
 -14 568 -7 563 8 563 c 1
 8 533 l 1
 -106 533 l 1
 -107 534 -107 537 -107 542 c 256xdd80
 -107 562 -98 577 -85 593 c 0
 -57 630 -21 657 25 689 c 1
 -190 689 l 1
 -190 578 l 2
 -190 568 -178 563 -168 563 c 0
 -164 563 -164 563 -163 563 c 1
 -163 533 l 1
 -300 533 l 1
 -300 563 l 1
EndSplineSet
Validated: 1
EndChar

StartChar: uni2DF4
Encoding: 11764 11764 157
Width: 0
GlyphClass: 4
Flags: HW
HStem: 529 86<14.9052 81.5644> 634 77<-133 -95.3651 189.637 229> 675 36<-93.9763 -48 -3 94 138 188.059> 769 84<7.33582 77.9563>
VStem: -49 46<629.427 675 711 758.55>
AnchorPoint: "Stacking" 46 520 mark 0
AnchorPoint: "Stacking" 43.5 936 basemark 0
AnchorPoint: "Diacritic" 43.5 522 mark 0
LayerCount: 2
Fore
SplineSet
47 769 m 0xb8
 16 769 -3 741 -3 711 c 1
 94 711 l 1
 91 734 84 750 74 758 c 0
 63 765 54 769 47 769 c 0xb8
47 615 m 256
 55 615 64 620 75 630 c 0
 86 639 92 654 95 675 c 1
 -3 675 l 1
 0 654 8 638 18 629 c 0
 30 620 39 615 47 615 c 256
-49 675 m 1
 -81 675 -95 663 -107 634 c 1
 -133 634 l 1xd8
 -181 682 l 1
 -181 711 l 1
 -48 711 l 1
 -48 762 -36 799 -18 820 c 0
 0 842 21 853 45 853 c 0
 70 853 91 842 108 820 c 0
 125 799 138 762 138 711 c 1
 275 711 l 1xb8
 275 682 l 1
 229 634 l 1
 203 634 l 1xd8
 193 658 176 675 138 675 c 1
 138 629 127 593 109 568 c 0
 91 542 70 529 45 529 c 0
 21 529 0 542 -18 568 c 0
 -36 593 -46 629 -49 675 c 1
EndSplineSet
Validated: 1
EndChar

StartChar: uniA678
Encoding: 42616 42616 158
Width: 0
GlyphClass: 4
Flags: HW
HStem: 539 39<-236 -120.004> 539 30<-346 -318.506> 744 76<-388 -364> 784 36<-352.239 -262> 791 29<-181.863 -152>
VStem: -120 92<559 621.227>
DStem2: -312 598 -236 578 0.259601 0.965716<0.415361 82.4524 120.746 192.603>
AnchorPoint: "Stacking" -237 528 mark 0
AnchorPoint: "Stacking" -228 944 basemark 0
AnchorPoint: "Diacritic" -233.5 530 mark 0
LayerCount: 2
Fore
SplineSet
-28 566 m 0x0c
 -28 552 -32 539 -48 539 c 2
 -346 539 l 1
 -346 569 l 1
 -328 569 -318 580 -312 598 c 2
 -262 784 l 1
 -310 784 l 2x54
 -331 784 -348 772 -358 760 c 0
 -362 755 -364 749 -364 744 c 1
 -388 744 l 1x24
 -430 791 l 1
 -430 820 l 1
 -152 820 l 1
 -152 791 l 1
 -173 791 -176 785 -184 774 c 1
 -204 694 l 1
 -144 683 -81 658 -47 619 c 0
 -34 604 -28 586 -28 566 c 0x0c
-140 578 m 2x84
 -125 578 -120 581 -120 590 c 0
 -120 619 -145 634 -168 644 c 0
 -180 649 -194 652 -212 655 c 1
 -236 578 l 1
 -140 578 l 2x84
EndSplineSet
Validated: 1
EndChar

StartChar: uniA679
Encoding: 42617 42617 159
Width: 0
GlyphClass: 4
Flags: HW
HStem: 553 39<-434 -325.006> 553 30<-544 -518.903 -186 -159 -74 -48> 676 39<-434 -366.304> 805 29<-544 -520.966 -431.545 -408 -185 -159.746 -73.5963 -48>
VStem: -518 84<592.035 676 709.905 804.5> -325 92<570 629.586> -159 85<583.246 804.266>
AnchorPoint: "Stacking" -286 543 mark 0
AnchorPoint: "Stacking" -286 944 basemark 0
AnchorPoint: "Diacritic" -284.5 545 mark 0
LayerCount: 2
Fore
SplineSet
-544 583 m 1x7e
 -531 583 -518 589 -518 604 c 2
 -518 780 l 2
 -518 794 -532 805 -544 805 c 1
 -544 834 l 1
 -408 834 l 1
 -408 805 l 1
 -423 805 -434 794 -434 780 c 2
 -434 715 l 1
 -369 701 -298 673 -257 632 c 0
 -241 616 -233 597 -233 577 c 0
 -233 563 -242 553 -258 553 c 2
 -544 553 l 1
 -544 583 l 1x7e
-434 592 m 1xbe
 -342 592 l 2
 -333 592 -325 595 -325 602 c 0
 -327 618 -336 633 -352 647 c 0
 -368 661 -395 670 -434 676 c 1
 -434 592 l 1xbe
-48 805 m 1
 -58 805 -74 799 -74 788 c 2
 -74 598 l 2
 -74 587 -58 583 -48 583 c 1
 -48 553 l 1
 -186 553 l 1
 -186 583 l 1
 -185 583 -185 583 -180 583 c 0x7e
 -171 583 -159 587 -159 598 c 2
 -159 788 l 1
 -161 798 -170 803 -185 805 c 1
 -185 834 l 1
 -48 834 l 1
 -48 805 l 1
EndSplineSet
Validated: 1
EndChar

StartChar: uniA67A
Encoding: 42618 42618 160
Width: 0
GlyphClass: 4
Flags: HW
HStem: 539 39<-229 -120.006> 539 30<-339 -313.903> 662 39<-229 -161.304> 791 29<-339 -315.966 -226.545 -203>
VStem: -313 84<578.035 662 695.905 790.5> -120 92<556 615.586>
AnchorPoint: "Stacking" -173 531 mark 0
AnchorPoint: "Stacking" -174 944 basemark 0
AnchorPoint: "Diacritic" -171.5 531 mark 0
LayerCount: 2
Fore
SplineSet
-339 569 m 1x7c
 -326 569 -313 575 -313 590 c 2
 -313 766 l 2
 -313 780 -327 791 -339 791 c 1
 -339 820 l 1
 -203 820 l 1
 -203 791 l 1
 -218 791 -229 780 -229 766 c 2
 -229 701 l 1
 -164 687 -93 659 -52 618 c 0
 -36 602 -28 583 -28 563 c 0
 -28 549 -37 539 -53 539 c 2
 -339 539 l 1
 -339 569 l 1x7c
-229 578 m 1xbc
 -137 578 l 2
 -128 578 -120 581 -120 588 c 0
 -122 604 -131 619 -147 633 c 0
 -163 647 -190 656 -229 662 c 1
 -229 578 l 1xbc
EndSplineSet
Validated: 1
EndChar

StartChar: uni2DFA
Encoding: 11770 11770 161
Width: 0
GlyphClass: 4
Flags: HW
HStem: 533 39<-15 92.9942> 533 30<-126 -100.903> 656 38<-15 49.6506> 715 86<-218 -180.623 106.271 143> 765 36<-172.246 -100 -15 97.2113> 900 29<-126 -102.375 -12.9062 11>
VStem: -100 85<572.035 656 688.972 765 801 899.543> 93 93<558 610.782>
AnchorPoint: "Stacking" -12 527 mark 0
AnchorPoint: "Stacking" -10.5 1016 basemark 0
AnchorPoint: "Diacritic" -10.5 528 mark 0
LayerCount: 2
Fore
SplineSet
-127 765 m 2x6f
 -167 765 -179 741 -192 715 c 1
 -218 715 l 1x37
 -264 772 l 1
 -264 801 l 1
 -100 801 l 1
 -100 876 l 2
 -100 890 -114 900 -126 900 c 1
 -126 929 l 1
 11 929 l 1
 11 900 l 1
 -3 900 -15 890 -15 876 c 2
 -15 801 l 1
 192 801 l 1x2f
 192 772 l 1
 143 715 l 1
 117 715 l 1x37
 107 743 88 765 53 765 c 2
 -15 765 l 1
 -15 694 l 1
 50 680 121 654 162 613 c 0
 178 597 186 579 186 558 c 0
 186 544 177 533 161 533 c 2
 -126 533 l 1
 -126 563 l 1
 -113 563 -100 569 -100 584 c 2
 -100 765 l 1
 -127 765 l 2x6f
-15 572 m 1xa7
 76 572 l 2
 85 572 93 576 93 582 c 0
 91 598 82 613 66 627 c 0
 51 641 24 651 -15 656 c 1
 -15 572 l 1xa7
EndSplineSet
Validated: 1
EndChar

StartChar: uni2DFB
Encoding: 11771 11771 162
Width: 0
GlyphClass: 4
Flags: HW
HStem: 513 86<97.0404 165.304> 533 31<-183 -157.625 -71.3301 -44> 670 39<-72 36> 754 84<95.0199 167.208> 785 30<-183 -158.842 -69.3365 -46>
VStem: -157 85<564.509 670 709 784.174> 36 45<614.589 670> 181 43<613.784 741.849>
AnchorPoint: "Stacking" 2 512 mark 0
AnchorPoint: "Stacking" 0.5 936 basemark 0
AnchorPoint: "Diacritic" 0.5 510 mark 0
LayerCount: 2
Fore
SplineSet
181 676 m 0xb7
 180 712 171 740 147 750 c 0
 142 753 137 754 132 754 c 0
 108 754 94 735 86 715 c 0
 83 705 81 692 81 676 c 0
 81 642 95 615 116 604 c 0
 122 600 127 599 132 599 c 256
 155 599 170 624 176 642 c 0
 179 652 181 663 181 676 c 0xb7
-183 564 m 1x67
 -171 564 -157 571 -157 584 c 2
 -157 762 l 2
 -157 775 -171 785 -183 785 c 1
 -183 815 l 1
 -46 815 l 1
 -46 785 l 1x6f
 -58 784 -72 773 -72 761 c 2
 -72 709 l 1
 37 709 l 1
 40 756 51 789 69 808 c 0
 87 828 108 838 131 838 c 0
 184 838 206 795 216 750 c 0
 222 729 224 704 224 674 c 0
 224 624 215 585 196 556 c 0
 178 527 156 513 131 513 c 0xb7
 105 513 83 527 64 556 c 0
 46 584 37 622 36 670 c 1
 -72 670 l 1
 -72 584 l 2
 -72 570 -57 564 -44 564 c 1
 -44 533 l 1
 -183 533 l 1
 -183 564 l 1x67
EndSplineSet
Validated: 1
EndChar

StartChar: uni2DFC
Encoding: 11772 11772 163
Width: 0
GlyphClass: 4
Flags: HW
HStem: 520 76<-13.7709 64.5197> 531 30<-238 -212 -127.943 -102 172 196.853 302.714 334> 690 39<-128 39> 783 29<-238 -212.746 -127.596 -102 71 91.9949>
VStem: -212 84<561.297 690 729 782.564>
DStem2: 181 812 121 740 0.456317 -0.889817<36.6879 128.362 160.989 215.393>
AnchorPoint: "Stacking" -2 516 mark 0
AnchorPoint: "Stacking" 0.5 936 basemark 0
AnchorPoint: "Diacritic" 0.5 516 mark 0
LayerCount: 2
Fore
SplineSet
161 662 m 1xb8
 121 740 l 1
 99 713 81 688 68 666 c 0
 55 643 48 625 48 612 c 0
 48 601 53 596 64 596 c 0
 86 596 119 617 162 658 c 1
 161 662 l 1xb8
-102 783 m 1
 -112 783 -128 777 -128 766 c 2
 -128 729 l 1
 70 729 l 1
 85 746 92 760 92 770 c 0
 92 778 85 784 71 784 c 1
 71 812 l 1
 181 812 l 1
 301 578 l 1
 308 567 319 562 334 561 c 1
 334 531 l 1
 172 531 l 1
 172 561 l 1x78
 189 562 197 567 197 578 c 0
 197 581 197 584 196 586 c 2
 175 628 l 1
 139 592 92 553 43 530 c 0
 28 524 12 520 0 520 c 0xb8
 -21 520 -30 532 -30 555 c 1
 -28 586 -17 613 0 636 c 2
 39 690 l 1
 -128 690 l 1
 -128 576 l 1
 -127 566 -112 561 -102 561 c 1
 -102 531 l 1
 -238 531 l 1
 -238 561 l 1
 -234 561 l 2x78
 -225 561 -212 567 -212 576 c 2
 -212 766 l 1
 -214 776 -223 782 -238 783 c 1
 -238 812 l 1
 -102 812 l 1
 -102 783 l 1
EndSplineSet
Validated: 1
EndChar

StartChar: uniA69F
Encoding: 42655 42655 164
Width: 0
GlyphClass: 4
Flags: HW
HStem: 527 83<-116.515 -44.5403> 537 30<-392 -366.053 -281.898 -256> 648 58<-123.812 -20.0638> 667 39<-282 -172 -127.953 -54.9382> 753 79<-120.663 -41.0598> 789 29<-392 -366.722 -281.572 -256>
VStem: -366 84<567.297 667 706 788.596>
AnchorPoint: "Stacking" -194 527 mark 0
AnchorPoint: "Stacking" -195 922.8 basemark 0
AnchorPoint: "Diacritic" -193.5 528 mark 0
LayerCount: 2
Fore
SplineSet
-256 789 m 1x56
 -265 789 -282 783 -282 772 c 2
 -282 706 l 1
 -170 706 l 1x56
 -164 758 -143 804 -106 824 c 0
 -96 830 -87 832 -78 832 c 0
 -54 832 -34 810 -34 786 c 0
 -34 760 -39 752 -62 752 c 0
 -68 752 -74 753 -80 753 c 0
 -111 753 -122 740 -128 707 c 0
 -128 705 -124 704 -116 704 c 256
 -100 704 -76 706 -58 706 c 0
 -53 706 l 0
 -35 706 -16 705 -16 688 c 0
 -16 664 -33 648 -54 648 c 256
 -74 648 -95 659 -110 666 c 0
 -116 668 -120 669 -124 669 c 0
 -126 669 -127 669 -128 668 c 0
 -124 635 -114 610 -82 610 c 0
 -81 610 -80 610 -78 610 c 0
 -76 610 -74 610 -71 610 c 0
 -48 610 -38 603 -38 576 c 0
 -38 546 -55 527 -88 527 c 0xaa
 -150 527 -172 606 -172 667 c 1
 -282 667 l 1
 -282 582 l 1
 -280 572 -266 567 -256 567 c 1
 -256 537 l 1
 -392 537 l 1
 -392 567 l 1
 -392 567 -392 567 -388 567 c 0
 -377 567 -367 573 -366 582 c 1
 -366 772 l 1
 -368 782 -376 789 -392 789 c 1
 -392 818 l 1
 -256 818 l 1
 -256 789 l 1x56
EndSplineSet
Validated: 1
EndChar

StartChar: uni2DFD
Encoding: 11773 11773 165
Width: 0
GlyphClass: 4
Flags: HW
HStem: 533 30<-121.993 -100 -74 -48.2318 37.1602 63 95 118.993> 624 38<-74 -48 37 69> 785 29<-74 -51.373>
VStem: -202 80<535.569 589.197> -48 85<563.251 624>
AnchorPoint: "Stacking" -2 529 mark 0
AnchorPoint: "Stacking" 0.5 936 basemark 0
AnchorPoint: "Diacritic" 0.5 530 mark 0
LayerCount: 2
Fore
SplineSet
-122 576 m 0
 -122 565 -113 563 -100 563 c 1
 -100 533 l 1
 -201 533 l 1
 -201 536 -202 535 -202 538 c 0
 -202 548 -198 560 -191 572 c 0
 -157 632 -98 681 -62 738 c 0
 -55 750 -51 760 -51 767 c 0
 -51 778 -59 785 -74 785 c 1
 -74 814 l 1
 51 814 l 1
 65 783 91 752 114 725 c 0
 153 679 199 630 226 575 c 0
 234 560 238 546 238 533 c 1
 95 533 l 1
 95 563 l 1
 109 563 119 566 119 577 c 256
 119 593 102 609 94 617 c 0
 91 620 89 623 88 624 c 1
 37 624 l 1
 37 580 l 2
 37 567 51 563 63 563 c 1
 63 533 l 1
 -74 533 l 1
 -74 563 l 1
 -61 563 -48 570 -48 580 c 2
 -48 624 l 1
 -94 624 l 1
 -113 604 -122 588 -122 576 c 0
-74 662 m 2
 69 662 l 1
 67 665 60 678 46 694 c 0
 34 710 15 731 -9 761 c 1
 -25 732 -47 699 -66 674 c 0
 -70 667 -73 663 -74 662 c 2
EndSplineSet
Validated: 1
EndChar

StartChar: uni1DCD
Encoding: 7629 7629 166
Width: 0
GlyphClass: 4
Flags: HW
HStem: 545 220
AnchorPoint: "Stacking" -2 872 basemark 0
AnchorPoint: "Stacking" 1 531.7 mark 0
AnchorPoint: "Diacritic" -126 536 mark 0
LayerCount: 2
Fore
SplineSet
-338 571 m 1
 0 765 l 1
 336 568 l 1
 325 545 l 1
 0 686 l 1
 -328 548 l 1
 -338 571 l 1
EndSplineSet
Validated: 1
EndChar

StartChar: uni0487
Encoding: 1159 1159 167
Width: 0
GlyphClass: 4
Flags: HW
HStem: 801 60<-535.528 -238.209>
AnchorPoint: "Stacking" -388 992 basemark 0
AnchorPoint: "Stacking" -392 644 mark 0
AnchorPoint: "Diacritic" -392 644 mark 0
LayerCount: 2
Fore
SplineSet
-389 801 m 0
 -555 801 -649 748 -719 643 c 1
 -760 643 l 1
 -695 773 -584 861 -389 861 c 256
 -191 861 -86 774 -19 643 c 1
 -55 643 l 1
 -113 743 -230 801 -389 801 c 0
EndSplineSet
Validated: 1
EndChar

StartChar: uni035E
Encoding: 862 862 168
Width: 0
GlyphClass: 4
Flags: HW
HStem: 610 61<-319 358.333> 610 52<337.444 364>
AnchorPoint: "Double" -2 601 mark 0
AnchorPoint: "Stacking" 3 781.2 basemark 0
AnchorPoint: "Stacking" 0.5 601.7 mark 0
LayerCount: 2
Fore
SplineSet
247 671 m 1x80
 327 671 l 1x80
 374 662 l 1
 364 610 l 1x40
 -319 610 l 1
 -359 626 l 1
 -359 672 l 1
 247 671 l 1x80
EndSplineSet
Validated: 1
EndChar

StartChar: uni1DC3
Encoding: 7619 7619 169
Width: 0
GlyphClass: 4
Flags: HW
HStem: 622 45<-538.411 -312.044>
VStem: -642 94<677.925 749.692>
AnchorPoint: "Stacking" -498 834 basemark 0
AnchorPoint: "Stacking" -498 619.3 mark 0
AnchorPoint: "Diacritic" -500 620 mark 0
LayerCount: 2
Fore
SplineSet
-548 720 m 1
 -548 676 -514 667 -467 667 c 0
 -359 667 -271 686 -177 712 c 0
 -134 723 -85 738 -31 756 c 1
 -31 731 l 1
 -55 718 -117 697 -220 668 c 0
 -309 642 -396 622 -498 622 c 0
 -575 622 -622 645 -638 690 c 0
 -641 698 -642 706 -642 714 c 0
 -642 741 -626 754 -595 754 c 0
 -566 754 -551 743 -548 720 c 1
EndSplineSet
Validated: 1
EndChar

StartChar: uni0403
Encoding: 1027 1027 170
Width: 815
GlyphClass: 3
Flags: HW
HStem: 0 46<99 141.954 285.95 331> 544 66<284 518.762> 564 46<99 139.605>
VStem: 144 140<50.8221 543.101>
LayerCount: 2
Fore
SplineSet
338 716 m 1x90
 530 926 l 1
 587 868 l 1
 369 686 l 1
 338 716 l 1x90
148 520 m 2
 148 547 133 564 103 564 c 1
 103 610 l 1
 716 610 l 1
 716 564 l 1xb0
 623 461 l 1
 572 461 l 1
 563 480 553 494 542 505 c 0
 532 516 522 524 510 529 c 0
 500 534 488 538 476 540 c 0
 463 542 450 544 437 544 c 1
 288 544 l 1xd0
 288 77 l 2
 289 69 291 63 296 59 c 0
 300 55 304 52 310 50 c 0
 314 48 320 47 324 46 c 0
 330 46 333 46 335 46 c 1
 335 0 l 1
 103 0 l 1
 103 46 l 1
 113 46 123 48 132 54 c 0
 142 59 148 67 148 78 c 1
 148 520 l 2
EndSplineSet
Validated: 1
LCarets2: 1 0
Ligature2: "'ccmp' Canonical Equivalents-Cyrillic" uni0413 uni0301
EndChar

StartChar: uni0404
Encoding: 1028 1028 171
Width: 647
Flags: HW
HStem: -23 162<277.984 477.397> 243 114<291.468 517.459> 289 67<179.03 279.414> 494 146<289.375 494.549>
VStem: 95 84<199.294 438.151>
AnchorPoint: "Double" 647 752 basechar 0
AnchorPoint: "Diacritic" 396 754 basechar 0
LayerCount: 2
Fore
SplineSet
440 139 m 0xb8
 494 139 543 136 543 85 c 0
 543 71 538 55 527 36 c 1
 502 2 458 -23 393 -23 c 0
 291 -23 220 26 175 86 c 0
 131 145 101 230 101 327 c 0
 101 437 147 515 206 566 c 1
 256 607 327 640 408 640 c 0
 464 640 515 622 534 586 c 1
 543 562 545 554 545 530 c 0
 545 494 509 490 471 490 c 0
 436 490 396 494 360 494 c 0
 262 494 185 464 185 365 c 0
 185 357 226 356 256 356 c 2
 283 356 l 2xb8
 330 356 389 357 436 357 c 2
 486 357 l 2
 524 357 552 352 552 315 c 0
 552 261 488 243 435 243 c 0xd8
 361 243 292 266 234 282 c 0
 216 287 203 289 194 289 c 0
 188 289 184 288 184 285 c 0
 184 181 250 138 355 138 c 0
 383 138 412 139 440 139 c 0xb8
EndSplineSet
Validated: 1
EndChar

StartChar: uni0408
Encoding: 1032 1032 172
Width: 389
Flags: HW
HStem: -15 35<78 169.051> 644 18<85 146.198 299.723 368>
VStem: 6 109<21.7786 88.6414> 180 94<90.4014 628.619>
LayerCount: 2
Fore
SplineSet
21 60 m 0
 21 91 41 111 70 111 c 0
 94 111 103 98 113 81 c 0
 118 72 124 61 130 46 c 0
 137 29 147 20 159 20 c 0
 168 20 176 25 184 36 c 0
 191 46 195 65 195 93 c 2
 195 545 l 2
 195 548 195 552 195 555 c 0
 195 592 194 619 168 632 c 0
 155 638 141 644 124 644 c 2
 100 644 l 1
 100 662 l 1
 383 662 l 1
 383 644 l 1
 359 644 l 2
 318 644 301 634 294 599 c 0
 290 586 289 568 289 545 c 2
 289 221 l 2
 289 122 261 42 198 4 c 0
 177 -8 150 -15 119 -15 c 0
 67 -15 21 13 21 60 c 0
EndSplineSet
Validated: 1
EndChar

StartChar: uni0409
Encoding: 1033 1033 173
Width: 872
Flags: HW
HStem: -8 73<103.677 186.63> 0 33<570.702 680.422> 0 18<383 448.875> 319 36<570 679.052> 626 36<291 477> 644 18<153 216.322 600.427 666>
VStem: 248 43<232.377 625.107> 477 93<33.8838 319 355 625.212> 755 111<103.333 257.455>
LayerCount: 2
Fore
SplineSet
6 51 m 0x9b80
 6 75 26 96 50 96 c 0
 62 96 76 86 86 80 c 0
 96 75 111 65 124 65 c 0x9b80
 138 65 151 70 162 80 c 0
 174 91 184 109 193 134 c 0
 202 160 208 195 213 238 c 0
 218 281 220 336 220 403 c 2
 220 542 l 2
 220 595 217 631 174 640 c 0
 161 642 145 644 125 644 c 1
 125 662 l 1
 638 662 l 1
 638 644 l 1
 584 644 552 639 545 593 c 0
 543 579 542 561 542 539 c 2
 542 355 l 1
 581 355 l 2
 699 355 763 343 808 278 c 0
 828 250 838 219 838 184 c 0
 838 104 782 44 720 20 c 0
 684 7 632 0 565 0 c 2x5780
 355 0 l 1
 355 18 l 1x3380
 408 18 447 23 447 70 c 0
 447 83 449 101 449 123 c 2
 449 626 l 1
 263 626 l 1
 263 440 l 2
 263 253 247 132 215 76 c 256
 183 20 139 -8 82 -8 c 0
 41 -8 6 14 6 51 c 0x9b80
727 177 m 0
 727 270 663 319 564 319 c 2
 542 319 l 1
 542 37 l 1
 557 34 571 33 584 33 c 0x5380
 652 33 695 70 716 119 c 0
 723 136 727 156 727 177 c 0
EndSplineSet
Validated: 1
EndChar

StartChar: uni040A
Encoding: 1034 1034 174
Width: 872
Flags: HW
HStem: 0 33<556.701 666.605> 0 18<33 101.241 251.039 317 369 435.875> 319 36<222 463 556 665.863> 644 18<33 100.634 247.601 317 370 430.878 585.875 652>
VStem: 128 94<31.6527 319 355 631.186> 463 93<34.917 319 355 629.622> 742 111<101.875 256.764>
LayerCount: 2
Fore
SplineSet
208 355 m 1x7e
 449 355 l 1
 449 539 l 2
 449 592 449 628 408 638 c 0
 395 642 378 644 356 644 c 1
 356 662 l 1
 638 662 l 1
 638 644 l 1
 587 644 544 638 544 592 c 0
 544 579 542 561 542 539 c 2
 542 355 l 1
 581 355 l 2
 701 355 763 344 809 278 c 0
 829 250 839 219 839 184 c 0
 839 117 803 72 763 44 c 0
 714 8 659 0 565 0 c 2xbe
 355 0 l 1
 355 18 l 1
 408 18 449 23 449 70 c 0
 449 83 449 101 449 123 c 2
 449 319 l 1
 208 319 l 1
 208 117 l 2
 208 68 211 33 248 22 c 0
 258 20 271 18 288 18 c 2
 303 18 l 1
 303 0 l 1
 19 0 l 1
 19 18 l 1
 39 18 l 2
 85 18 114 32 114 72 c 0
 114 84 114 99 114 117 c 2
 114 545 l 2
 114 593 112 629 76 640 c 0
 65 642 51 644 34 644 c 2
 19 644 l 1
 19 662 l 1
 303 662 l 1
 303 644 l 1
 288 644 l 2
 240 644 210 635 210 593 c 0
 210 580 208 564 208 545 c 2
 208 355 l 1x7e
728 177 m 0
 728 270 663 319 564 319 c 2
 542 319 l 1
 542 37 l 1
 557 35 569 33 584 33 c 0
 651 33 697 71 717 120 c 0
 724 137 728 156 728 177 c 0
EndSplineSet
Validated: 1
EndChar

StartChar: uni040B
Encoding: 1035 1035 175
Width: 741
Flags: HW
HStem: 0 18<123 190.75 340.779 402 459 510.385 665.476 715> 395 65<411.725 513.207> 621 41<71.5527 218 312 468.118>
VStem: 12 17<517 552.781> 218 94<30.7451 326.317 356 621> 508 13<517 549.645> 541 93<32.6643 366.471>
LayerCount: 2
Fore
SplineSet
326 356 m 1
 385 425 447 460 510 460 c 0
 573 460 628 423 639 373 c 0
 645 348 648 299 648 228 c 2
 648 123 l 2
 648 117 l 0
 648 70 649 35 686 24 c 0
 696 22 711 18 729 18 c 1
 729 0 l 1
 473 0 l 1
 473 18 l 1
 520 18 547 28 552 72 c 0
 554 84 555 102 555 123 c 2
 555 228 l 2
 555 234 l 0
 555 319 554 395 470 395 c 0
 424 395 376 364 326 302 c 1
 326 123 l 2
 326 117 326 112 326 107 c 0
 326 63 328 31 366 23 c 0
 378 20 395 18 416 18 c 1
 416 0 l 1
 137 0 l 1
 137 18 l 1
 191 18 232 23 232 71 c 0
 232 84 232 102 232 123 c 2
 232 621 l 1
 184 621 l 2
 116 621 73 609 54 562 c 0
 50 548 46 534 43 517 c 1
 26 517 l 1
 26 662 l 1
 535 662 l 1
 535 517 l 1
 522 517 l 1
 515 576 493 608 438 617 c 0
 420 620 400 621 377 621 c 2
 326 621 l 1
 326 356 l 1
EndSplineSet
Validated: 1
EndChar

StartChar: uni040C
Encoding: 1036 1036 176
Width: 939
GlyphClass: 3
Flags: HW
HStem: 0 46<97 139.954 284.384 327 544 577.715> 433 21G<700.5 765> 497 122<607.5 769.5> 564 46<97 128.577 294.331 327>
VStem: 142 140<50.8221 552.671> 587 186<62.5142 142.042>
LayerCount: 2
Fore
SplineSet
386 702 m 1xcc
 578 912 l 1
 635 854 l 1
 417 672 l 1
 386 702 l 1xcc
146 529 m 2
 146 543 142 552 133 557 c 0
 124 562 114 564 101 564 c 1
 101 610 l 1
 331 610 l 1
 331 564 l 1xdc
 316 564 305 560 298 553 c 0
 291 546 287 538 286 529 c 1
 286 78 l 2
 287 70 289 64 294 60 c 0
 298 55 302 52 308 50 c 0
 312 48 317 47 322 46 c 0
 327 46 330 46 331 46 c 1
 331 0 l 1
 101 0 l 1
 101 46 l 1
 111 46 121 48 130 54 c 0
 140 59 146 67 146 78 c 1
 146 529 l 2
367 413 m 1
 400 448 435 478 471 504 c 0
 507 530 542 552 578 568 c 0
 612 586 646 598 678 606 c 0
 709 615 737 619 761 619 c 0
 786 619 805 615 820 606 c 0
 835 597 842 584 842 567 c 0
 842 552 835 533 822 510 c 0
 808 488 785 462 753 433 c 1
 707 433 l 1
 702 455 692 471 676 482 c 0
 662 492 644 497 623 497 c 0xec
 600 497 576 491 552 480 c 0
 526 469 503 454 482 433 c 0
 482 432 489 427 504 420 c 0
 518 413 536 403 558 390 c 0
 579 376 603 358 628 336 c 0
 653 315 677 288 699 257 c 0
 721 226 739 189 754 146 c 0
 769 104 777 55 777 0 c 1
 548 0 l 1
 548 47 l 1
 565 47 576 52 582 62 c 0
 588 73 591 82 591 90 c 0
 591 99 589 115 586 137 c 0
 582 159 573 183 558 210 c 0
 543 237 521 264 491 291 c 0
 461 318 420 343 367 364 c 1
 367 413 l 1
EndSplineSet
Validated: 1
LCarets2: 1 0
Ligature2: "'ccmp' Canonical Equivalents-Cyrillic" uni041A uni0301
EndChar

StartChar: uni040E
Encoding: 1038 1038 177
Width: 993
GlyphClass: 3
Flags: HW
HStem: 0 66<470.457 494> 564 46<95 132.524> 694 96<403.256 544.71>
VStem: 494 60<-459.007 -94>
DStem2: 298 582 145 518 0.34116 -0.940005<-29.3403 545.769>
LayerCount: 2
Fore
SplineSet
335 896 m 1
 360 845 410 790 480 790 c 0
 504 790 528 798 553 814 c 0
 578 830 601 858 623 896 c 1
 654 866 l 1
 636 794 595 733 534 705 c 0
 516 697 498 694 479 694 c 0
 446 694 413 706 382 734 c 0
 350 761 323 805 302 866 c 1
 335 896 l 1
558 -310 m 0
 558 -370 563 -427 563 -482 c 1
 556 -485 549 -486 543 -486 c 0
 534 -486 527 -478 521 -463 c 0
 504 -421 498 -360 498 -296 c 0
 498 -257 495 -213 495 -164 c 0
 495 -116 498 -61 498 0 c 1
 337 0 l 1
 149 518 l 1
 140 539 129 564 99 564 c 1
 99 610 l 1
 293 610 l 2
 293 609 296 600 302 582 c 0
 358 415 421 231 480 66 c 1
 503 66 l 1
 525 229 574 394 636 516 c 0
 655 552 672 578 689 594 c 0
 698 603 713 610 729 610 c 2
 858 610 l 2
 885 610 898 604 898 591 c 0
 898 586 897 584 896 580 c 0
 886 542 864 502 846 472 c 0
 838 458 829 445 822 436 c 0
 815 427 810 422 809 421 c 2
 764 421 l 1
 762 438 758 467 739 467 c 0
 726 467 717 458 710 446 c 0
 599 257 558 -15 558 -310 c 0
EndSplineSet
Validated: 1
LCarets2: 1 0
Ligature2: "'ccmp' Canonical Equivalents-Cyrillic" uni0423 uni0306
EndChar

StartChar: uni040F
Encoding: 1039 1039 178
Width: 722
Flags: HW
HStem: 0 36<206.903 276.818 446.409 514.908> 0 18<18 82.8468 639.678 704> 644 18<18 81.6523 239.2 303 419 482.652 640.04 704>
VStem: 114 94<38.7448 628.484> 352 18<-190 -111.375> 515 93<36.4526 628.484>
LayerCount: 2
Fore
SplineSet
530 0 m 2x7c
 409 -0 370 -74 370 -190 c 1
 352 -190 l 1
 352 -60 307 0 182 0 c 2
 18 0 l 1
 18 18 l 1x7c
 70 18 104 23 111 68 c 0
 113 81 114 99 114 120 c 2
 114 542 l 2
 114 596 111 631 67 640 c 0
 54 642 38 644 18 644 c 1
 18 662 l 1
 303 662 l 1
 303 644 l 1
 251 644 219 639 212 595 c 0
 209 582 208 564 208 542 c 2
 208 120 l 2
 208 99 208 83 206 72 c 0
 206 69 206 66 206 63 c 0
 206 47 212 38 228 38 c 0
 237 38 252 36 272 36 c 2
 445 36 l 2
 465 36 480 36 490 36 c 0xbc
 510 36 516 46 516 66 c 0
 516 80 515 96 515 120 c 2
 515 542 l 2
 515 596 512 631 468 640 c 0
 455 642 439 644 419 644 c 1
 419 662 l 1
 704 662 l 1
 704 644 l 1
 653 644 619 639 612 595 c 0
 609 582 608 564 608 542 c 2
 608 120 l 2
 608 67 611 30 654 22 c 0
 667 20 683 18 704 18 c 1
 704 0 l 1
 530 0 l 2x7c
EndSplineSet
Validated: 1
EndChar

StartChar: uni0410
Encoding: 1040 1040 179
Width: 845
GlyphClass: 2
Flags: HW
HStem: -30 125<132.5 220.814> 0 46<515 558.901 742.863 795> 564 46<284 318.937>
VStem: 50 127<35.5 152.738>
DStem2: 472 610 374 476 0.445212 -0.895425<76.3563 287.442 354.533 515.936>
AnchorPoint: "Double" 846.5 750 basechar 0
AnchorPoint: "Diacritic" 370 751 basechar 0
LayerCount: 2
Fore
SplineSet
100 -24 m 1xb0
 67 -10 50 16 50 55 c 0
 50 80 55 105 63 131 c 0
 87 198 126 254 170 313 c 0
 197 348 228 388 263 432 c 0
 301 478 320 512 320 534 c 0
 320 552 308 562 284 564 c 1
 284 610 l 1
 472 610 l 1
 739 73 l 1
 750 55 768 46 795 46 c 1
 795 0 l 1
 515 0 l 1
 515 46 l 1x70
 545 46 560 56 560 77 c 0
 560 89 557 100 552 109 c 2
 494 225 l 1
 446 166 381 100 319 54 c 0
 288 29 256 9 225 -6 c 0
 194 -22 165 -30 139 -30 c 0
 126 -30 113 -28 100 -24 c 1xb0
467 286 m 1
 468 287 l 1
 374 476 l 1
 305 381 255 306 224 250 c 0
 193 194 177 153 177 128 c 0
 177 106 187 95 207 95 c 0xb0
 223 95 241 100 261 110 c 0
 311 133 356 170 397 210 c 0
 421 233 444 259 467 286 c 1
EndSplineSet
Validated: 1
EndChar

StartChar: uni0411
Encoding: 1041 1041 180
Width: 684
Flags: HW
HStem: 0 66<232 471.982> 0 46<45 87.238> 300 65<232 302.248> 455 155<478.055 560.228> 542 68<232 424.996> 564 46<47 87.2086>
VStem: 92 140<66.7378 300 359.731 543.236> 472 154<66.8607 156.803>
AnchorPoint: "Double" 684 752 basechar 0
AnchorPoint: "Diacritic" 361 751 basechar 0
LayerCount: 2
Fore
SplineSet
45 46 m 1x6b
 73 46 92 62 92 88 c 1
 92 522 l 1
 88 550 80 564 47 564 c 1
 47 610 l 1
 639 610 l 1
 639 564 l 1x67
 613 531 581 496 552 468 c 0
 545 462 540 457 537 455 c 1
 492 455 l 1x33
 456 512 412 542 324 542 c 0
 298 542 267 544 232 544 c 1
 232 365 l 1
 319 343 413 315 484 274 c 0
 522 253 554 226 580 195 c 0
 606 164 621 125 626 79 c 1
 626 71 l 2
 626 42 614 3 588 0 c 1
 45 0 l 1
 45 46 l 1x6b
453 66 m 2xa3
 466 66 472 77 472 89 c 0
 472 105 467 123 458 144 c 0
 434 194 390 232 339 261 c 0
 309 278 273 291 232 300 c 1
 232 66 l 1
 453 66 l 2xa3
EndSplineSet
Validated: 1
EndChar

StartChar: uni0412
Encoding: 1042 1042 181
Width: 731
Flags: HW
HStem: 0 67<230 495.796> 0 46<45 83.595> 346 64<230 304.302> 544 66<230 407.999> 564 46<45 82.303>
VStem: 91 139<67.4036 346 410 543.457> 408 152<528.235 586.5> 498 188<69.2694 155.284>
AnchorPoint: "Double" 731 752 basechar 0
AnchorPoint: "Diacritic" 291 751 basechar 0
LayerCount: 2
Fore
SplineSet
365 388 m 1x6e
 371 386 380 382 393 376 c 0
 467 341 549 287 607 229 c 0
 630 206 649 182 663 158 c 0
 679 132 686 108 686 83 c 0x6d
 686 53 670 29 652 14 c 0
 643 6 630 0 614 0 c 1
 45 0 l 1
 45 46 l 1
 80 50 91 70 91 103 c 0
 91 234 91 365 91 496 c 0
 90 497 91 500 91 508 c 0
 91 536 76 564 45 564 c 1
 45 610 l 1
 534 610 l 2
 550 610 560 594 560 579 c 0
 560 568 555 555 547 541 c 0
 517 495 465 453 419 422 c 0
 405 411 391 403 381 396 c 0
 374 393 369 389 365 388 c 1x6e
464 67 m 2xa5
 484 67 498 83 498 101 c 0
 498 139 473 174 453 200 c 0
 414 254 357 306 293 334 c 0
 275 342 257 346 240 346 c 2
 230 346 l 1
 230 67 l 1
 464 67 l 2xa5
230 410 m 1
 273 410 317 437 346 457 c 0
 364 470 379 483 391 496 c 0
 402 510 408 522 408 533 c 0
 408 537 407 541 405 544 c 1
 230 544 l 1x36
 230 410 l 1
EndSplineSet
Validated: 1
EndChar

StartChar: uni0413
Encoding: 1043 1043 182
Width: 703
Flags: HW
HStem: 0 46<45 87.7324 231.601 277> 544 66<230 464.811> 564 46<45 85.6055>
VStem: 90 140<50.5879 543.101>
AnchorPoint: "Double" 703 752 basechar 0
AnchorPoint: "Diacritic" 359 751 basechar 0
LayerCount: 2
Fore
SplineSet
45 46 m 1xd0
 67 46 90 57 90 78 c 1
 90 520 l 2
 90 547 75 564 45 564 c 1
 45 610 l 1
 658 610 l 1
 658 564 l 1xb0
 565 461 l 1
 514 461 l 1
 493 503 468 532 418 540 c 0
 405 542 392 544 379 544 c 1
 230 544 l 1
 230 77 l 1
 230 54 253 46 277 46 c 1
 277 0 l 1
 45 0 l 1
 45 46 l 1xd0
EndSplineSet
Validated: 1
EndChar

StartChar: uni0414
Encoding: 1044 1044 183
Width: 1057
Flags: HW
HStem: 0 66<325.352 678.397> 564 46<372 409.346>
AnchorPoint: "Double" 1058.5 752 basechar 0
AnchorPoint: "Diacritic" 467 751 basechar 0
LayerCount: 2
Fore
SplineSet
822 -141 m 1
 805 -50 731 0 628 0 c 2
 340 0 l 1
 299 -6 274 -26 253 -60 c 1
 240 -78 232 -106 228 -141 c 1
 168 -141 l 1
 45 0 l 1
 45 66 l 1
 162 66 230 97 287 164 c 0
 337 222 381 299 406 379 c 0
 418 418 424 452 424 481 c 0
 424 526 411 558 372 564 c 1
 372 610 l 1
 564 610 l 1
 850 66 l 1
 1012 66 l 1
 1012 0 l 1
 881 -141 l 1
 822 -141 l 1
324 66 m 1
 680 66 l 1
 494 444 l 1
 475 343 446 252 407 179 c 0
 391 148 375 122 361 104 c 0
 345 84 333 72 324 66 c 1
EndSplineSet
Validated: 1
EndChar

StartChar: uni0415
Encoding: 1045 1045 184
Width: 411
Flags: HW
HStem: -24 164<175.85 286.365> 237 122<192.265 336.461> 276 82<141.719 201.772> 474 160<173.296 299.011>
VStem: 45.5 93<181.375 275.999 358.371 438.005> 89.5 237<39.1655 110.364>
AnchorPoint: "Double" 407.5 752 basechar 0
AnchorPoint: "Diacritic" 229.5 751 basechar 0
LayerCount: 2
Fore
SplineSet
308 359 m 2xd8
 342 359 366 349 366 314 c 0
 366 309 366 305 364 302 c 0
 348 262 324 237 276 237 c 0xd8
 234 237 196 257 168 270 c 0
 158 274 152 276 146 276 c 0
 144 276 142 275 142 274 c 0
 142 200 160 152 218 140 c 1
 244 133 272 130 296 119 c 0
 310 112 326 95 326 71 c 0
 326 58 320 41 310 22 c 1
 294 -2 262 -24 218 -24 c 0
 152 -24 112 28 90 78 c 1xb4
 62 137 46 219 46 305 c 0
 46 409 68 494 110 553 c 1
 138 595 180 634 240 634 c 0
 282 634 312 607 326 576 c 0
 332 564 334 552 334 539 c 0
 334 484 302 473 252 473 c 0
 248 473 246 473 242 474 c 1
 238 474 l 2
 172 474 144 436 138 368 c 1
 138 367 l 2
 138 359 158 358 174 358 c 2
 184 358 l 258xb8
 212 358 248 359 276 359 c 2
 308 359 l 2xd8
EndSplineSet
Validated: 1
EndChar

StartChar: uni0416
Encoding: 1046 1046 185
Width: 1133
Flags: HW
HStem: 0 46<250.977 291.5 452.5 492.554 638.417 681.5 842.5 885.176> 564 46<326.816 361.5 450.5 483.951 647.215 681.5 769.5 804.938>
VStem: 139.5 187<531.758 601.5> 496.5 140<50.6406 319 425 553.911>
AnchorPoint: "Double" 1130.5 752 basechar 0
AnchorPoint: "Diacritic" 568.5 751 basechar 0
LayerCount: 2
Fore
SplineSet
452 46 m 1
 476 46 492 57 496 79 c 1
 496 319 l 1
 488 319 l 1
 406 265 346 217 308 175 c 0
 268 133 250 101 250 78 c 0
 250 58 264 46 292 46 c 1
 292 0 l 1
 46 0 l 1
 46 61 66 96 96 136 c 0
 112 156 136 178 164 202 c 0
 240 267 330 317 436 369 c 1
 436 378 l 1
 338 408 228 451 168 522 c 0
 150 545 140 571 140 599 c 0
 140 604 140 607 140 610 c 1
 362 610 l 1
 362 564 l 1
 338 559 326 551 326 539 c 0
 326 528 334 516 350 503 c 0
 378 478 420 449 456 433 c 0
 474 425 486 423 492 423 c 0
 496 423 498 430 498 438 c 0
 498 445 496 453 496 457 c 0
 496 502 494 564 450 564 c 1
 450 610 l 1
 682 610 l 1
 682 564 l 1
 638 564 636 512 636 457 c 0
 636 446 636 436 636 425 c 1
 640 422 l 1
 686 431 730 450 762 473 c 0
 780 488 806 509 806 536 c 0
 806 553 794 564 770 564 c 1
 770 610 l 1
 988 610 l 1
 988 554 966 522 930 492 c 1
 908 473 878 455 842 436 c 1
 804 418 754 399 696 378 c 1
 696 369 l 1
 796 323 886 273 966 208 c 1
 1008 171 1048 128 1072 76 c 1
 1082 51 1088 26 1088 0 c 1
 842 0 l 1
 842 46 l 1
 872 46 886 58 886 76 c 0
 886 87 882 99 872 114 c 0
 818 195 722 261 644 319 c 1
 636 319 l 1
 636 78 l 2
 636 56 660 46 682 46 c 1
 682 0 l 1
 452 0 l 1
 452 46 l 1
EndSplineSet
Validated: 1
EndChar

StartChar: uni0417
Encoding: 1047 1047 186
Width: 565
Flags: HW
HStem: -21 70<214.364 340.021> 138 45<198.831 240> 419 45<198.831 240> 553 70<214.364 340.021>
VStem: 40 200<138 183 419 464> 40 158<65.7247 135.479 466.521 536.275> 366 160<76.0698 209.608 392.362 525.93>
AnchorPoint: "Double" 565.5 752 basechar 0
AnchorPoint: "Diacritic" 271 751 basechar 0
LayerCount: 2
Fore
SplineSet
414 300 m 1xfa
 492 263 526 216 526 152 c 0
 526 19 412 -21 268 -21 c 0
 116 -21 40 37 40 154 c 0
 40 164 40 173 40 183 c 1
 240 183 l 1
 240 138 l 1xfa
 212 138 198 127 198 109 c 0
 198 66 238 49 282 49 c 0
 338 49 366 86 366 143 c 0
 366 179 354 201 334 221 c 0
 302 254 258 272 202 294 c 1
 202 308 l 1
 254 329 302 348 334 381 c 0
 354 401 366 423 366 459 c 0
 366 516 338 553 282 553 c 0
 238 553 198 536 198 493 c 0xf6
 198 475 212 464 240 464 c 1
 240 419 l 1
 42 419 l 1
 42 429 40 438 40 448 c 0
 40 565 116 623 268 623 c 0
 412 623 526 583 526 450 c 0
 526 387 488 337 414 300 c 1xfa
EndSplineSet
EndChar

StartChar: uni0418
Encoding: 1048 1048 187
Width: 760
Flags: HW
HStem: 0 46<45 87.7324 234.848 279 485 527.647 671.843 715> 311 66<233 530> 564 46<45 87.1738 236.868 278 485 525.781 673.503 715>
VStem: 90 143<50.5879 311 377 559.351> 530 140<50.5879 311 377 557.839>
AnchorPoint: "Double" 757 752 basechar 0
AnchorPoint: "Diacritic" 361 751 basechar 0
LayerCount: 2
Fore
SplineSet
45 46 m 1
 67 46 90 57 90 78 c 2
 90 528 l 2
 90 552 69 564 45 564 c 1
 45 610 l 1
 278 610 l 1
 278 564 l 1
 249 564 237 553 233 528 c 1
 233 377 l 1
 530 377 l 1
 530 528 l 2
 530 549 505 564 485 564 c 1
 485 610 l 1
 715 610 l 1
 715 564 l 1
 686 564 674 554 670 529 c 1
 670 78 l 2
 670 55 692 46 715 46 c 1
 715 0 l 1
 485 0 l 1
 485 46 l 1
 506 46 530 57 530 78 c 2
 530 311 l 1
 233 311 l 1
 233 78 l 2
 233 55 255 46 279 46 c 1
 279 0 l 1
 45 0 l 1
 45 46 l 1
EndSplineSet
Validated: 1
EndChar

StartChar: uni0419
Encoding: 1049 1049 188
Width: 761
Flags: HW
HStem: 0 46<45.5 88.2324 235.348 279.5 485.5 528.147 672.343 715.5> 311 66<233.5 530.5> 564 46<45.5 87.6738 237.368 278.5 485.5 526.281 674.003 715.5> 655 97<308.336 446.283>
VStem: 90.5 143<50.5879 311 377 559.351> 530.5 140<50.5879 311 377 557.839>
AnchorPoint: "Double" 758.5 900 basechar 0
AnchorPoint: "Diacritic" 378.5 896 basechar 0
LayerCount: 2
Fore
SplineSet
234 858 m 1
 260 808 310 752 380 752 c 0
 404 752 428 761 452 777 c 0
 478 793 500 820 522 858 c 1
 554 828 l 1
 536 757 496 696 434 668 c 0
 416 660 398 655 380 655 c 0
 344 655 314 666 282 694 c 0
 250 722 224 768 202 830 c 1
 234 858 l 1
46 46 m 1
 68 46 90 57 90 78 c 2
 90 528 l 2
 90 552 70 564 46 564 c 1
 46 610 l 1
 278 610 l 1
 278 563 l 1
 250 563 238 553 234 528 c 1
 234 377 l 1
 530 377 l 1
 530 528 l 2
 530 549 506 564 486 564 c 1
 486 610 l 1
 716 610 l 1
 716 564 l 1
 686 564 674 554 670 529 c 1
 670 78 l 2
 670 55 692 46 716 46 c 1
 716 0 l 1
 486 0 l 1
 486 46 l 1
 506 46 530 57 530 78 c 2
 530 311 l 1
 234 311 l 1
 234 78 l 2
 234 55 256 46 280 46 c 1
 280 0 l 1
 46 0 l 1
 46 46 l 1
EndSplineSet
Validated: 1
LCarets2: 1 0
Ligature2: "'ccmp' Canonical Equivalents-Cyrillic" uni0418 uni0306
EndChar

StartChar: uni041A
Encoding: 1050 1050 189
Width: 821
Flags: HW
HStem: 0 46<40 82.7324 226.843 270 487 524.033> 433 21G<641 708> 497 122<533.5 732.646> 564 46<40 83.0752 228.691 270>
VStem: 85 140<50.5879 559.554> 530 186<51.8433 142.042>
AnchorPoint: "Double" 822.5 752 basechar 0
AnchorPoint: "Diacritic" 407 751 basechar 0
LayerCount: 2
Fore
SplineSet
40 46 m 1xdc
 62 46 85 57 85 78 c 2
 85 529 l 2
 85 556 66 564 40 564 c 1
 40 610 l 1
 270 610 l 1
 270 564 l 1
 243 564 228 551 225 529 c 1
 225 78 l 2
 225 55 247 46 270 46 c 1
 270 0 l 1
 40 0 l 1
 40 46 l 1xdc
487 47 m 1
 514 47 530 67 530 90 c 0
 530 133 517 173 497 210 c 0
 482 237 460 264 430 291 c 0
 400 318 359 343 306 364 c 1
 306 413 l 1
 366 476 438 530 517 568 c 0
 571 595 632 619 700 619 c 0
 742 619 781 606 781 567 c 0
 781 552 774 533 761 510 c 1
 747 488 724 462 692 433 c 1
 646 433 l 1
 636 473 608 497 562 497 c 0xec
 505 497 454 465 421 433 c 0
 421 432 428 427 443 420 c 0
 485 400 527 371 567 336 c 1
 622 290 666 225 693 146 c 0
 708 104 715 55 716 0 c 1
 487 0 l 1
 487 47 l 1
EndSplineSet
Validated: 1
EndChar

StartChar: uni041B
Encoding: 1051 1051 190
Width: 760
Flags: HW
HStem: 0 46<182.351 218.5 471.5 508.972> 564 46<235.5 275.042>
VStem: 45.5 131<50.4318 145.027> 515.5 199<22 122.571>
AnchorPoint: "Double" 758 752 basechar 0
AnchorPoint: "Diacritic" 321.5 751 basechar 0
LayerCount: 2
Fore
SplineSet
176 100 m 0
 176 68 188 46 218 46 c 1
 218 0 l 1
 46 0 l 1
 46 4 46 8 46 12 c 2
 46 25 l 2
 46 106 76 177 106 234 c 0
 138 295 180 356 218 410 c 0
 234 435 250 458 260 478 c 0
 272 499 278 516 278 529 c 0
 278 553 260 561 236 564 c 1
 236 610 l 1
 410 610 l 1
 450 541 496 468 538 400 c 0
 596 307 662 210 700 102 c 0
 710 74 714 49 714 27 c 0
 714 17 714 8 712 0 c 1
 472 0 l 1
 472 46 l 1
 502 46 516 68 516 100 c 0
 516 122 510 148 498 180 c 0
 460 283 392 384 332 467 c 1
 284 388 228 283 194 188 c 0
 182 153 176 124 176 100 c 0
EndSplineSet
Validated: 1
EndChar

StartChar: uni041C
Encoding: 1052 1052 191
Width: 1150
Flags: HW
HStem: -14 139<512.946 642.254> 0 46<45 90.3214 276.125 315 836 876.918 1061.93 1105> 564 46<120 151.008 400.414 426 727 750.996 1009.11 1039>
DStem2: 146 279 277 254 0.137905 0.990445<-129.535 180.398>
AnchorPoint: "Double" 1150 752 basechar 0
AnchorPoint: "Diacritic" 564 751 basechar 0
LayerCount: 2
Fore
SplineSet
266 130 m 0xa0
 266 82 273 46 315 46 c 1
 315 0 l 1
 45 0 l 1
 45 46 l 1x60
 86 46 104 83 116 118 c 0
 131 163 139 223 146 279 c 256
 153 334 164 403 164 463 c 256
 164 508 159 559 123 564 c 1
 120 564 l 1
 120 610 l 1
 426 610 l 1
 426 564 l 1
 402 564 397 539 397 514 c 2
 397 485 l 2
 397 357 433 229 496 162 c 0
 519 137 546 125 577 125 c 0xa0
 610 125 638 138 661 164 c 0
 723 235 753 367 753 497 c 2
 753 522 l 2
 753 544 748 564 727 564 c 1
 727 610 l 1
 1039 610 l 1
 1039 564 l 1
 1000 557 993 505 993 455 c 0
 993 362 1015 278 1025 193 c 0
 1031 143 1040 96 1063 66 c 0
 1073 53 1087 46 1105 46 c 1
 1105 0 l 1
 836 0 l 1
 836 46 l 1x60
 879 46 887 79 887 127 c 0
 887 159 883 201 875 252 c 0
 868 303 859 366 850 440 c 1
 828 440 l 1
 818 361 807 292 795 235 c 0
 774 138 743 53 678 12 c 0
 651 -5 617 -14 577 -14 c 256
 486 -14 438 29 405 94 c 0
 385 132 370 178 358 236 c 0
 346 292 336 360 328 439 c 1
 305 439 l 1
 294 366 284 305 277 254 c 0
 270 203 266 162 266 130 c 0xa0
EndSplineSet
Validated: 1
EndChar

StartChar: uni041D
Encoding: 1053 1053 192
Width: 759
Flags: HW
HStem: 0 46<45.5 88.2324 232.27 275.5 482.5 525.147 668.973 713.5> 564 46<45.5 86.8925 233.214 275.5 482.5 523.893 671.49 713.5>
VStem: 90.5 140<50.5879 408 483 558.353> 527.5 140<50.5879 163 262 558.353>
AnchorPoint: "Double" 759.5 752 basechar 0
AnchorPoint: "Diacritic" 377.5 751 basechar 0
LayerCount: 2
Fore
SplineSet
46 46 m 1
 68 46 90 57 90 78 c 2
 90 528 l 2
 90 550 66 564 46 564 c 1
 46 610 l 1
 276 610 l 1
 276 564 l 1
 250 564 230 553 230 528 c 2
 230 483 l 1
 528 262 l 1
 528 528 l 2
 528 550 504 564 482 564 c 1
 482 610 l 1
 714 610 l 1
 714 564 l 1
 684 564 672 553 668 528 c 1
 668 78 l 2
 668 54 688 46 714 46 c 1
 714 0 l 1
 482 0 l 1
 482 46 l 1
 504 46 528 57 528 78 c 2
 528 163 l 1
 230 408 l 1
 230 78 l 2
 230 55 252 46 276 46 c 1
 276 0 l 1
 46 0 l 1
 46 46 l 1
EndSplineSet
Validated: 1
EndChar

StartChar: uni041E
Encoding: 1054 1054 193
Width: 772
Flags: HW
HStem: -20 67<300.997 467.798> 553 67<297.98 474.753>
VStem: 45 141<187.963 416.839> 586 141<191.711 415.265>
AnchorPoint: "Double" 771 752 basechar 0
AnchorPoint: "Diacritic" 391 751 basechar 0
LayerCount: 2
Fore
SplineSet
386 47 m 0
 459 47 507 90 537 136 c 0
 565 180 586 243 586 309 c 0
 586 412 544 492 477 531 c 0
 452 546 421 553 386 553 c 0
 315 553 266 519 235 476 c 1
 207 435 186 375 186 309 c 0
 186 203 230 116 295 72 c 0
 321 55 351 47 386 47 c 0
386 620 m 0
 552 620 652 544 701 428 c 0
 715 393 727 352 727 310 c 0
 727 225 695 149 651 94 c 0
 597 26 511 -20 386 -20 c 0
 273 -20 189 21 133 80 c 1
 81 133 45 212 45 310 c 0
 45 391 82 462 125 512 c 1
 181 574 267 620 386 620 c 0
EndSplineSet
Validated: 1
EndChar

StartChar: uni041F
Encoding: 1055 1055 194
Width: 756
Flags: HW
HStem: 0 47<45 87.7324 231.843 275 480 522.647 666.473 711> 545 65<230 525> 564 46<45 86.5187 668.322 711>
VStem: 90 140<51.5879 544.966> 525 140<51.5879 544.171>
AnchorPoint: "Double" 758 752 basechar 0
AnchorPoint: "Diacritic" 370 751 basechar 0
LayerCount: 2
Fore
SplineSet
45 47 m 1xd8
 67 47 90 58 90 79 c 2
 90 528 l 2
 90 551 67 564 45 564 c 1
 45 610 l 1
 711 610 l 1
 711 564 l 1xb8
 683 564 668 554 665 529 c 1
 665 79 l 2
 665 55 686 47 711 47 c 1
 711 0 l 1
 480 0 l 1
 480 47 l 1
 501 47 525 58 525 79 c 2
 525 545 l 1
 230 545 l 1
 230 79 l 2
 230 56 252 47 275 47 c 1
 275 0 l 1
 45 0 l 1
 45 47 l 1xd8
EndSplineSet
Validated: 1
EndChar

StartChar: uni0420
Encoding: 1056 1056 195
Width: 588
Flags: HW
HStem: -18 90<210.573 344.609> 499 158<180 261.32>
VStem: 40.5 130<-4.20979 453.404> 372.5 175<100.415 304.464>
AnchorPoint: "Double" 589 799 basechar 0
AnchorPoint: "Diacritic" 221.5 800 basechar 0
LayerCount: 2
Fore
SplineSet
294 72 m 0
 350 72 372 120 372 180 c 0
 372 233 360 278 346 322 c 1
 326 380 298 436 264 474 c 0
 250 491 236 499 226 499 c 0
 202 499 192 456 186 430 c 0
 176 385 170 324 170 265 c 0
 170 227 172 196 176 171 c 0
 182 128 184 112 208 95 c 0
 230 80 260 72 294 72 c 0
178 -469 m 1
 174 -480 174 -489 162 -489 c 0
 150 -489 140 -480 130 -461 c 0
 104 -413 88 -342 76 -271 c 0
 54 -137 40 19 40 175 c 0
 40 295 50 420 74 512 c 0
 86 556 102 591 122 618 c 0
 142 644 166 657 194 657 c 0
 212 657 230 652 248 643 c 0
 338 596 414 517 464 433 c 1
 508 364 548 275 548 176 c 0
 548 40 472 -18 330 -18 c 0
 270 -18 224 -8 178 13 c 1
 178 -469 l 1
EndSplineSet
Validated: 1
EndChar

StartChar: uni0421
Encoding: 1057 1057 196
Width: 372
Flags: HW
HStem: -24 165<209.073 281.131> 463 177<176.203 292.097>
VStem: 42 89<220.787 334> 88 234<51.9375 130.274>
AnchorPoint: "Double" 376 752 basechar 0
AnchorPoint: "Diacritic" 203 756 basechar 0
LayerCount: 2
Fore
SplineSet
322 84 m 0xd0
 322 40 304 14 276 -7 c 1
 262 -19 242 -24 215 -24 c 0
 151 -24 112 39 88 93 c 1xd0
 59 155 42 241 42 331 c 0xe0
 42 428 68 507 108 563 c 0
 135 602 177 640 234 640 c 0
 281 640 309 608 322 573 c 1xd0
 328 560 330 546 330 531 c 0
 330 470 298 463 240 463 c 0
 199 463 174 445 155 417 c 0
 144 400 136 373 132 336 c 1
 131 334 l 1xe0
 131 260 150 208 186 177 c 0
 211 155 241 150 275 141 c 0
 303 133 322 121 322 84 c 0xd0
EndSplineSet
Validated: 1
EndChar

StartChar: uni0422
Encoding: 1058 1058 197
Width: 956
Flags: HW
HStem: 0 46<362.5 403.162 553.43 592.5> 458 152<141.5 197.471 758.719 815.5> 544 66<242.136 407.5 547.5 711.379>
VStem: 407.5 140<51.5906 544>
AnchorPoint: "Double" 958 752 basechar 0
AnchorPoint: "Diacritic" 476.5 751 basechar 0
LayerCount: 2
Fore
SplineSet
326 544 m 2xb0
 254 544 210 510 186 458 c 1
 142 458 l 1xd0
 46 564 l 1
 46 610 l 1
 910 610 l 1xb0
 910 564 l 1
 816 458 l 1
 770 458 l 1xd0
 754 493 730 516 696 530 c 0
 674 539 652 540 628 544 c 1
 548 544 l 1
 548 92 l 2
 548 62 568 46 592 46 c 1
 592 0 l 1
 362 0 l 1
 362 46 l 1
 390 46 408 60 408 91 c 2
 408 544 l 1
 326 544 l 2xb0
EndSplineSet
Validated: 1
EndChar

StartChar: uni0423
Encoding: 1059 1059 198
Width: 835
Flags: HW
HStem: 0 66<393.457 417> 564 46<18 55.5243>
VStem: 417 60<-459.007 -94>
DStem2: 221 582 68 518 0.34116 -0.940005<-29.3403 545.769>
AnchorPoint: "Double" 838 752 basechar 0
AnchorPoint: "Diacritic" 414 751 basechar 0
LayerCount: 2
Fore
SplineSet
477 -310 m 0
 477 -370 482 -427 482 -482 c 1
 475 -485 468 -486 462 -486 c 0
 453 -486 446 -478 440 -463 c 0
 423 -421 417 -360 417 -296 c 0
 417 -257 414 -213 414 -164 c 0
 414 -116 417 -61 417 0 c 1
 256 0 l 1
 68 518 l 1
 59 539 48 564 18 564 c 1
 18 610 l 1
 212 610 l 1
 212 609 215 600 221 582 c 0
 277 415 340 231 399 66 c 1
 422 66 l 1
 444 229 493 394 555 516 c 0
 574 552 591 578 608 594 c 0
 617 603 632 610 648 610 c 2
 777 610 l 2
 804 610 817 604 817 591 c 0
 817 586 816 584 815 580 c 0
 805 542 783 502 765 472 c 0
 754 453 740 433 728 421 c 1
 683 421 l 1
 681 438 677 467 658 467 c 0
 645 467 636 458 629 446 c 0
 518 257 477 -15 477 -310 c 0
EndSplineSet
Validated: 1
EndChar

StartChar: uni0424
Encoding: 1060 1060 199
Width: 951
Flags: HW
HStem: -487 46<362 404.818 546.404 589> -31 65<331.649 407 544 620.745> 459 65<317.859 407 544 632.428> 679 45<362 400.94 550.163 589>
VStem: 41 148<159.511 340.338> 407 137<-436.738 -31 34 459 524 673.305> 760 150<162.907 342.524>
AnchorPoint: "Double" 949 857 basechar 0
AnchorPoint: "Diacritic" 473 865 basechar 0
LayerCount: 2
Fore
SplineSet
189 250 m 0
 189 173 228 121 273 88 c 0
 309 61 358 40 407 34 c 1
 407 459 l 1
 358 459 308 437 273 412 c 0
 228 380 189 328 189 250 c 0
760 251 m 0
 760 329 722 380 677 412 c 0
 643 437 593 459 544 459 c 1
 544 34 l 1
 590 34 639 61 673 86 c 0
 718 120 760 174 760 251 c 0
362 -441 m 1
 385 -441 407 -430 407 -408 c 2
 407 -31 l 1
 295 -26 203 8 139 60 c 0
 86 102 41 163 41 247 c 0
 41 329 79 391 129 433 c 0
 194 488 288 519 407 524 c 1
 407 631 l 2
 407 658 391 679 362 679 c 1
 362 724 l 1
 589 724 l 1
 589 679 l 1
 555 677 548 663 544 631 c 1
 544 524 l 1
 661 519 756 486 821 433 c 0
 871 391 910 331 910 249 c 0
 910 164 868 102 817 60 c 0
 752 7 658 -26 544 -31 c 1
 544 -408 l 1
 546 -432 564 -441 589 -441 c 1
 589 -487 l 1
 362 -487 l 1
 362 -441 l 1
EndSplineSet
Validated: 1
EndChar

StartChar: uni0425
Encoding: 1061 1061 200
Width: 746
Flags: HW
HStem: -178 47<399.5 435.431 629.392 678.5> 450 171<592 726.373> 564 46<38.5 85.9569 272.677 310.5>
VStem: -24.5 20<-481 -442.261>
DStem2: 406.5 300 300.5 182 0.461353 -0.887217<55.7882 367.465>
AnchorPoint: "Double" 748.5 752 basechar 0
AnchorPoint: "Diacritic" 424.5 751 basechar 0
LayerCount: 2
Fore
SplineSet
400 -131 m 1xd0
 424 -131 436 -122 436 -99 c 0
 436 -90 434 -81 432 -74 c 1
 300 182 l 1
 296 177 286 164 272 146 c 0
 178 16 100 -148 42 -317 c 0
 22 -370 8 -425 -4 -481 c 1
 -24 -481 l 1
 -24 -363 12 -244 48 -136 c 1
 96 9 166 157 246 277 c 1
 198 360 150 442 100 524 c 0
 90 542 68 564 38 564 c 1
 38 610 l 1
 310 610 l 1
 310 564 l 1xb0
 290 561 270 551 270 528 c 0
 270 519 272 513 274 506 c 1
 350 383 l 1
 350 384 l 1
 410 457 468 519 542 566 c 0
 592 598 642 621 712 621 c 0
 750 621 770 602 770 567 c 0
 770 533 754 498 742 472 c 1
 728 447 708 416 688 400 c 1
 676 400 l 2
 668 400 648 401 642 401 c 1
 638 428 626 450 600 450 c 0
 584 450 566 446 548 433 c 0
 496 400 442 346 406 300 c 1
 602 -75 l 1
 616 -98 642 -131 678 -131 c 1
 678 -178 l 1
 400 -178 l 1
 400 -131 l 1xd0
EndSplineSet
Validated: 1
EndChar

